M48
; DRILL file {KiCad 8.0.4} date 2024-09-24T19:09:59+0300
; FORMAT={-:-/ absolute / inch / decimal}
; #@! TF.CreationDate,2024-09-24T19:09:59+03:00
; #@! TF.GenerationSoftware,Kicad,Pcbnew,8.0.4
; #@! TF.FileFunction,Plated,1,2,PTH
FMAT,2
INCH
; #@! TA.AperFunction,Plated,PTH,ViaDrill
T1C0.0118
; #@! TA.AperFunction,Plated,PTH,ComponentDrill
T2C0.0276
; #@! TA.AperFunction,Plated,PTH,ComponentDrill
T3C0.0315
; #@! TA.AperFunction,Plated,PTH,ComponentDrill
T4C0.0354
; #@! TA.AperFunction,Plated,PTH,ComponentDrill
T5C0.0374
; #@! TA.AperFunction,Plated,PTH,ComponentDrill
T6C0.0394
; #@! TA.AperFunction,Plated,PTH,ComponentDrill
T7C0.0591
; #@! TA.AperFunction,Plated,PTH,ComponentDrill
T8C0.0866
%
G90
G05
T1
X4.5787Y-4.0315
X4.8465Y-4.1063
X4.9715Y-3.9931
X5.4488Y-4.1181
X5.4528Y-4.0354
X5.6496Y-4.3602
X5.7372Y-3.9793
X5.8858Y-4.1142
X5.9488Y-4.1142
X6.3189Y-3.9764
X6.3189Y-4.0276
X6.7323Y-3.9764
X6.7323Y-4.0276
X6.7421Y-3.2087
X6.9882Y-4.0276
X7.0866Y-3.9764
T2
X4.9049Y-2.3378
X4.9049Y-2.6378
X5.062Y-2.3378
X5.062Y-2.6378
X5.2191Y-2.3378
X5.2191Y-2.6378
X5.3762Y-2.3378
X5.3762Y-2.6378
X5.5333Y-2.3378
X5.5333Y-2.6378
X5.6904Y-2.3378
X5.6904Y-2.6378
X5.8474Y-2.3378
X5.8474Y-2.6378
X6.0045Y-2.3378
X6.0045Y-2.6378
X6.1616Y-2.3378
X6.1616Y-2.6378
X6.3187Y-2.3378
X6.3187Y-2.6378
X6.4758Y-2.3378
X6.4758Y-2.6378
X6.6329Y-2.3378
X6.6329Y-2.6378
X6.79Y-2.3378
X6.79Y-2.6378
X6.947Y-2.3378
X6.947Y-2.6378
X7.1041Y-2.3378
X7.1041Y-2.6378
X7.2612Y-2.3376
X7.2612Y-2.6376
T3
X4.3307Y-4.6654
X4.3307Y-4.7638
X4.6372Y-3.1368
X4.6372Y-3.2368
X4.6372Y-3.3368
X4.6372Y-3.4368
X4.6372Y-3.5368
X4.6372Y-3.6368
X4.6372Y-3.7368
X4.6372Y-3.8368
X4.7343Y-4.4094
X4.7372Y-4.5346
X4.7372Y-4.8346
X4.8327Y-4.4094
X4.8372Y-4.5346
X4.8372Y-4.8346
X4.9372Y-2.9585
X4.9372Y-3.1368
X4.9372Y-3.2368
X4.9372Y-3.3368
X4.9372Y-3.4368
X4.9372Y-3.5368
X4.9372Y-3.6368
X4.9372Y-3.7368
X4.9372Y-3.8368
X4.9372Y-4.5346
X4.9372Y-4.8346
X5.0356Y-2.9585
X5.0372Y-4.5346
X5.0372Y-4.8346
X5.1372Y-4.5346
X5.1372Y-4.8346
X5.2372Y-4.5346
X5.2372Y-4.8346
X5.3372Y-4.5346
X5.3372Y-4.8346
X5.4372Y-3.1346
X5.4372Y-3.2346
X5.4372Y-3.3346
X5.4372Y-3.4346
X5.4372Y-3.5346
X5.4372Y-3.6346
X5.4372Y-3.7346
X5.4372Y-3.8346
X5.4372Y-4.5346
X5.4372Y-4.8346
X5.5372Y-4.5346
X5.5372Y-4.8346
X5.6372Y-4.5346
X5.6372Y-4.8346
X5.7372Y-2.9563
X5.7372Y-3.1346
X5.7372Y-3.2346
X5.7372Y-3.3346
X5.7372Y-3.4346
X5.7372Y-3.5346
X5.7372Y-3.6346
X5.7372Y-3.7346
X5.7372Y-3.8346
X5.8356Y-2.9563
X6.2953Y-3.1346
X6.2953Y-3.2346
X6.2953Y-3.3346
X6.2953Y-3.4346
X6.2953Y-3.5346
X6.2953Y-3.6346
X6.2953Y-3.7346
X6.2953Y-3.8346
X6.3953Y-4.4134
X6.3953Y-4.5346
X6.3953Y-4.8346
X6.4937Y-4.4134
X6.4953Y-4.5346
X6.4953Y-4.8346
X6.5953Y-2.9565
X6.5953Y-3.1346
X6.5953Y-3.2346
X6.5953Y-3.3346
X6.5953Y-3.4346
X6.5953Y-3.5346
X6.5953Y-3.6346
X6.5953Y-3.7346
X6.5953Y-3.8346
X6.5953Y-4.5346
X6.5953Y-4.8346
X6.6937Y-2.9565
X6.6953Y-4.5346
X6.6953Y-4.8346
X6.7953Y-4.5346
X6.7953Y-4.8346
X6.8953Y-4.5346
X6.8953Y-4.8346
X6.9953Y-4.5346
X6.9953Y-4.8346
X7.0953Y-4.5346
X7.0953Y-4.8346
X7.1953Y-4.5346
X7.1953Y-4.8346
X7.2953Y-4.5346
X7.2953Y-4.8346
X7.3118Y-3.1366
X7.3118Y-3.2366
X7.3118Y-3.3366
X7.3118Y-3.4366
X7.3118Y-3.5366
X7.3118Y-3.6366
X7.3118Y-3.7366
X7.3118Y-3.8366
X7.6118Y-2.9585
X7.6118Y-3.1366
X7.6118Y-3.2366
X7.6118Y-3.3366
X7.6118Y-3.4366
X7.6118Y-3.5366
X7.6118Y-3.6366
X7.6118Y-3.7366
X7.6118Y-3.8366
X7.7102Y-2.9585
T4
X4.527Y-2.1358
X4.6057Y-2.1358
X4.6844Y-2.1358
X4.9049Y-2.1047
X4.9049Y-2.2047
X5.062Y-2.1047
X5.062Y-2.2047
X5.2191Y-2.1047
X5.2191Y-2.2047
X5.3762Y-2.1047
X5.3762Y-2.2047
X5.5333Y-2.1047
X5.5333Y-2.2047
X5.6904Y-2.1047
X5.6904Y-2.2047
X5.8474Y-2.1047
X5.8474Y-2.2047
X6.0045Y-2.1047
X6.0045Y-2.2047
X6.1616Y-2.1047
X6.1616Y-2.2047
X6.3187Y-2.1047
X6.3187Y-2.2047
X6.4758Y-2.1047
X6.4758Y-2.2047
X6.6329Y-2.1047
X6.6329Y-2.2047
X6.79Y-2.1047
X6.79Y-2.2047
X6.947Y-2.1047
X6.947Y-2.2047
X7.1041Y-2.1047
X7.1041Y-2.2047
X7.2612Y-2.1047
X7.2612Y-2.2047
T5
X5.7579Y-5.5906
X5.8563Y-5.5906
X5.9547Y-5.5906
X6.0531Y-5.5906
X6.1516Y-5.5906
X6.25Y-5.5906
X6.3484Y-5.5906
X6.4469Y-5.5906
X6.7126Y-5.5906
X6.811Y-5.5906
X6.9094Y-5.5906
X7.0079Y-5.5906
X7.1063Y-5.5906
X7.2047Y-5.5906
X7.3031Y-5.5906
X7.4016Y-5.5906
T6
X4.3996Y-5.5335
X4.4882Y-3.3368
X4.4882Y-3.4368
X4.4882Y-3.5368
X4.4882Y-3.6368
X4.498Y-5.5335
X4.8327Y-5.5335
X4.9311Y-5.5335
X5.2657Y-5.5335
X5.2953Y-3.3346
X5.2953Y-3.4346
X5.2953Y-3.5346
X5.2953Y-3.6346
X5.3642Y-5.5335
X6.1417Y-3.3346
X6.1417Y-3.4346
X6.1417Y-3.5346
X6.1417Y-3.6346
X7.1654Y-3.3366
X7.1654Y-3.4366
X7.1654Y-3.5366
X7.1654Y-3.6366
T7
X4.4443Y-2.1358
X4.7671Y-2.1358
T8
X4.0945Y-2.126
X4.0945Y-5.748
X7.7165Y-2.126
X7.7165Y-5.748
M30
