%TF.GenerationSoftware,KiCad,Pcbnew,8.0.4*%
%TF.CreationDate,2024-09-24T19:09:35+03:00*%
%TF.ProjectId,Register,52656769-7374-4657-922e-6b696361645f,rev?*%
%TF.SameCoordinates,Original*%
%TF.FileFunction,Legend,Top*%
%TF.FilePolarity,Positive*%
%FSLAX46Y46*%
G04 Gerber Fmt 4.6, Leading zero omitted, Abs format (unit mm)*
G04 Created by KiCad (PCBNEW 8.0.4) date 2024-09-24 19:09:35*
%MOMM*%
%LPD*%
G01*
G04 APERTURE LIST*
%ADD10C,0.250000*%
%ADD11C,0.200000*%
%ADD12C,0.100000*%
%ADD13C,0.150000*%
%ADD14C,0.120000*%
G04 APERTURE END LIST*
D10*
X102545425Y-70632714D02*
X102640663Y-70537476D01*
X102640663Y-70537476D02*
X102831139Y-70442238D01*
X102831139Y-70442238D02*
X103307330Y-70442238D01*
X103307330Y-70442238D02*
X103497806Y-70537476D01*
X103497806Y-70537476D02*
X103593044Y-70632714D01*
X103593044Y-70632714D02*
X103688282Y-70823190D01*
X103688282Y-70823190D02*
X103688282Y-71013666D01*
X103688282Y-71013666D02*
X103593044Y-71299380D01*
X103593044Y-71299380D02*
X102450187Y-72442238D01*
X102450187Y-72442238D02*
X103688282Y-72442238D01*
X105402568Y-71108904D02*
X105402568Y-72442238D01*
X104926377Y-70347000D02*
X104450187Y-71775571D01*
X104450187Y-71775571D02*
X105688282Y-71775571D01*
X107878758Y-70347000D02*
X106164473Y-72918428D01*
X108640663Y-72442238D02*
X109021615Y-72442238D01*
X109021615Y-72442238D02*
X109212092Y-72347000D01*
X109212092Y-72347000D02*
X109307330Y-72251761D01*
X109307330Y-72251761D02*
X109497806Y-71966047D01*
X109497806Y-71966047D02*
X109593044Y-71585095D01*
X109593044Y-71585095D02*
X109593044Y-70823190D01*
X109593044Y-70823190D02*
X109497806Y-70632714D01*
X109497806Y-70632714D02*
X109402568Y-70537476D01*
X109402568Y-70537476D02*
X109212092Y-70442238D01*
X109212092Y-70442238D02*
X108831139Y-70442238D01*
X108831139Y-70442238D02*
X108640663Y-70537476D01*
X108640663Y-70537476D02*
X108545425Y-70632714D01*
X108545425Y-70632714D02*
X108450187Y-70823190D01*
X108450187Y-70823190D02*
X108450187Y-71299380D01*
X108450187Y-71299380D02*
X108545425Y-71489857D01*
X108545425Y-71489857D02*
X108640663Y-71585095D01*
X108640663Y-71585095D02*
X108831139Y-71680333D01*
X108831139Y-71680333D02*
X109212092Y-71680333D01*
X109212092Y-71680333D02*
X109402568Y-71585095D01*
X109402568Y-71585095D02*
X109497806Y-71489857D01*
X109497806Y-71489857D02*
X109593044Y-71299380D01*
X111878758Y-70347000D02*
X110164473Y-72918428D01*
X112450187Y-70632714D02*
X112545425Y-70537476D01*
X112545425Y-70537476D02*
X112735901Y-70442238D01*
X112735901Y-70442238D02*
X113212092Y-70442238D01*
X113212092Y-70442238D02*
X113402568Y-70537476D01*
X113402568Y-70537476D02*
X113497806Y-70632714D01*
X113497806Y-70632714D02*
X113593044Y-70823190D01*
X113593044Y-70823190D02*
X113593044Y-71013666D01*
X113593044Y-71013666D02*
X113497806Y-71299380D01*
X113497806Y-71299380D02*
X112354949Y-72442238D01*
X112354949Y-72442238D02*
X113593044Y-72442238D01*
X115307330Y-71108904D02*
X115307330Y-72442238D01*
X114831139Y-70347000D02*
X114354949Y-71775571D01*
X114354949Y-71775571D02*
X115593044Y-71775571D01*
X102640663Y-69042238D02*
X102640663Y-67708904D01*
X102640663Y-68089857D02*
X102735901Y-67899380D01*
X102735901Y-67899380D02*
X102831139Y-67804142D01*
X102831139Y-67804142D02*
X103021615Y-67708904D01*
X103021615Y-67708904D02*
X103212092Y-67708904D01*
X104640663Y-68947000D02*
X104450187Y-69042238D01*
X104450187Y-69042238D02*
X104069234Y-69042238D01*
X104069234Y-69042238D02*
X103878758Y-68947000D01*
X103878758Y-68947000D02*
X103783520Y-68756523D01*
X103783520Y-68756523D02*
X103783520Y-67994619D01*
X103783520Y-67994619D02*
X103878758Y-67804142D01*
X103878758Y-67804142D02*
X104069234Y-67708904D01*
X104069234Y-67708904D02*
X104450187Y-67708904D01*
X104450187Y-67708904D02*
X104640663Y-67804142D01*
X104640663Y-67804142D02*
X104735901Y-67994619D01*
X104735901Y-67994619D02*
X104735901Y-68185095D01*
X104735901Y-68185095D02*
X103783520Y-68375571D01*
X105402568Y-67708904D02*
X105878758Y-69042238D01*
X105878758Y-69042238D02*
X106354949Y-67708904D01*
X109688283Y-69042238D02*
X108545426Y-69042238D01*
X109116854Y-69042238D02*
X109116854Y-67042238D01*
X109116854Y-67042238D02*
X108926378Y-67327952D01*
X108926378Y-67327952D02*
X108735902Y-67518428D01*
X108735902Y-67518428D02*
X108545426Y-67613666D01*
X110545426Y-68851761D02*
X110640664Y-68947000D01*
X110640664Y-68947000D02*
X110545426Y-69042238D01*
X110545426Y-69042238D02*
X110450188Y-68947000D01*
X110450188Y-68947000D02*
X110545426Y-68851761D01*
X110545426Y-68851761D02*
X110545426Y-69042238D01*
X111878759Y-67042238D02*
X112069236Y-67042238D01*
X112069236Y-67042238D02*
X112259712Y-67137476D01*
X112259712Y-67137476D02*
X112354950Y-67232714D01*
X112354950Y-67232714D02*
X112450188Y-67423190D01*
X112450188Y-67423190D02*
X112545426Y-67804142D01*
X112545426Y-67804142D02*
X112545426Y-68280333D01*
X112545426Y-68280333D02*
X112450188Y-68661285D01*
X112450188Y-68661285D02*
X112354950Y-68851761D01*
X112354950Y-68851761D02*
X112259712Y-68947000D01*
X112259712Y-68947000D02*
X112069236Y-69042238D01*
X112069236Y-69042238D02*
X111878759Y-69042238D01*
X111878759Y-69042238D02*
X111688283Y-68947000D01*
X111688283Y-68947000D02*
X111593045Y-68851761D01*
X111593045Y-68851761D02*
X111497807Y-68661285D01*
X111497807Y-68661285D02*
X111402569Y-68280333D01*
X111402569Y-68280333D02*
X111402569Y-67804142D01*
X111402569Y-67804142D02*
X111497807Y-67423190D01*
X111497807Y-67423190D02*
X111593045Y-67232714D01*
X111593045Y-67232714D02*
X111688283Y-67137476D01*
X111688283Y-67137476D02*
X111878759Y-67042238D01*
X102545425Y-61847000D02*
X102831139Y-61942238D01*
X102831139Y-61942238D02*
X103307330Y-61942238D01*
X103307330Y-61942238D02*
X103497806Y-61847000D01*
X103497806Y-61847000D02*
X103593044Y-61751761D01*
X103593044Y-61751761D02*
X103688282Y-61561285D01*
X103688282Y-61561285D02*
X103688282Y-61370809D01*
X103688282Y-61370809D02*
X103593044Y-61180333D01*
X103593044Y-61180333D02*
X103497806Y-61085095D01*
X103497806Y-61085095D02*
X103307330Y-60989857D01*
X103307330Y-60989857D02*
X102926377Y-60894619D01*
X102926377Y-60894619D02*
X102735901Y-60799380D01*
X102735901Y-60799380D02*
X102640663Y-60704142D01*
X102640663Y-60704142D02*
X102545425Y-60513666D01*
X102545425Y-60513666D02*
X102545425Y-60323190D01*
X102545425Y-60323190D02*
X102640663Y-60132714D01*
X102640663Y-60132714D02*
X102735901Y-60037476D01*
X102735901Y-60037476D02*
X102926377Y-59942238D01*
X102926377Y-59942238D02*
X103402568Y-59942238D01*
X103402568Y-59942238D02*
X103688282Y-60037476D01*
X104545425Y-61942238D02*
X104545425Y-59942238D01*
X104545425Y-60894619D02*
X105688282Y-60894619D01*
X105688282Y-61942238D02*
X105688282Y-59942238D01*
X106926377Y-60799380D02*
X106735901Y-60704142D01*
X106735901Y-60704142D02*
X106640663Y-60608904D01*
X106640663Y-60608904D02*
X106545425Y-60418428D01*
X106545425Y-60418428D02*
X106545425Y-60323190D01*
X106545425Y-60323190D02*
X106640663Y-60132714D01*
X106640663Y-60132714D02*
X106735901Y-60037476D01*
X106735901Y-60037476D02*
X106926377Y-59942238D01*
X106926377Y-59942238D02*
X107307330Y-59942238D01*
X107307330Y-59942238D02*
X107497806Y-60037476D01*
X107497806Y-60037476D02*
X107593044Y-60132714D01*
X107593044Y-60132714D02*
X107688282Y-60323190D01*
X107688282Y-60323190D02*
X107688282Y-60418428D01*
X107688282Y-60418428D02*
X107593044Y-60608904D01*
X107593044Y-60608904D02*
X107497806Y-60704142D01*
X107497806Y-60704142D02*
X107307330Y-60799380D01*
X107307330Y-60799380D02*
X106926377Y-60799380D01*
X106926377Y-60799380D02*
X106735901Y-60894619D01*
X106735901Y-60894619D02*
X106640663Y-60989857D01*
X106640663Y-60989857D02*
X106545425Y-61180333D01*
X106545425Y-61180333D02*
X106545425Y-61561285D01*
X106545425Y-61561285D02*
X106640663Y-61751761D01*
X106640663Y-61751761D02*
X106735901Y-61847000D01*
X106735901Y-61847000D02*
X106926377Y-61942238D01*
X106926377Y-61942238D02*
X107307330Y-61942238D01*
X107307330Y-61942238D02*
X107497806Y-61847000D01*
X107497806Y-61847000D02*
X107593044Y-61751761D01*
X107593044Y-61751761D02*
X107688282Y-61561285D01*
X107688282Y-61561285D02*
X107688282Y-61180333D01*
X107688282Y-61180333D02*
X107593044Y-60989857D01*
X107593044Y-60989857D02*
X107497806Y-60894619D01*
X107497806Y-60894619D02*
X107307330Y-60799380D01*
X103688282Y-63537476D02*
X103497806Y-63442238D01*
X103497806Y-63442238D02*
X103212092Y-63442238D01*
X103212092Y-63442238D02*
X102926377Y-63537476D01*
X102926377Y-63537476D02*
X102735901Y-63727952D01*
X102735901Y-63727952D02*
X102640663Y-63918428D01*
X102640663Y-63918428D02*
X102545425Y-64299380D01*
X102545425Y-64299380D02*
X102545425Y-64585095D01*
X102545425Y-64585095D02*
X102640663Y-64966047D01*
X102640663Y-64966047D02*
X102735901Y-65156523D01*
X102735901Y-65156523D02*
X102926377Y-65347000D01*
X102926377Y-65347000D02*
X103212092Y-65442238D01*
X103212092Y-65442238D02*
X103402568Y-65442238D01*
X103402568Y-65442238D02*
X103688282Y-65347000D01*
X103688282Y-65347000D02*
X103783520Y-65251761D01*
X103783520Y-65251761D02*
X103783520Y-64585095D01*
X103783520Y-64585095D02*
X103402568Y-64585095D01*
X104640663Y-65442238D02*
X104640663Y-63442238D01*
X104640663Y-63442238D02*
X105402568Y-63442238D01*
X105402568Y-63442238D02*
X105593044Y-63537476D01*
X105593044Y-63537476D02*
X105688282Y-63632714D01*
X105688282Y-63632714D02*
X105783520Y-63823190D01*
X105783520Y-63823190D02*
X105783520Y-64108904D01*
X105783520Y-64108904D02*
X105688282Y-64299380D01*
X105688282Y-64299380D02*
X105593044Y-64394619D01*
X105593044Y-64394619D02*
X105402568Y-64489857D01*
X105402568Y-64489857D02*
X104640663Y-64489857D01*
X109307330Y-65442238D02*
X108640663Y-64489857D01*
X108164473Y-65442238D02*
X108164473Y-63442238D01*
X108164473Y-63442238D02*
X108926378Y-63442238D01*
X108926378Y-63442238D02*
X109116854Y-63537476D01*
X109116854Y-63537476D02*
X109212092Y-63632714D01*
X109212092Y-63632714D02*
X109307330Y-63823190D01*
X109307330Y-63823190D02*
X109307330Y-64108904D01*
X109307330Y-64108904D02*
X109212092Y-64299380D01*
X109212092Y-64299380D02*
X109116854Y-64394619D01*
X109116854Y-64394619D02*
X108926378Y-64489857D01*
X108926378Y-64489857D02*
X108164473Y-64489857D01*
X110926378Y-65347000D02*
X110735902Y-65442238D01*
X110735902Y-65442238D02*
X110354949Y-65442238D01*
X110354949Y-65442238D02*
X110164473Y-65347000D01*
X110164473Y-65347000D02*
X110069235Y-65156523D01*
X110069235Y-65156523D02*
X110069235Y-64394619D01*
X110069235Y-64394619D02*
X110164473Y-64204142D01*
X110164473Y-64204142D02*
X110354949Y-64108904D01*
X110354949Y-64108904D02*
X110735902Y-64108904D01*
X110735902Y-64108904D02*
X110926378Y-64204142D01*
X110926378Y-64204142D02*
X111021616Y-64394619D01*
X111021616Y-64394619D02*
X111021616Y-64585095D01*
X111021616Y-64585095D02*
X110069235Y-64775571D01*
X112735902Y-64108904D02*
X112735902Y-65727952D01*
X112735902Y-65727952D02*
X112640664Y-65918428D01*
X112640664Y-65918428D02*
X112545426Y-66013666D01*
X112545426Y-66013666D02*
X112354949Y-66108904D01*
X112354949Y-66108904D02*
X112069235Y-66108904D01*
X112069235Y-66108904D02*
X111878759Y-66013666D01*
X112735902Y-65347000D02*
X112545426Y-65442238D01*
X112545426Y-65442238D02*
X112164473Y-65442238D01*
X112164473Y-65442238D02*
X111973997Y-65347000D01*
X111973997Y-65347000D02*
X111878759Y-65251761D01*
X111878759Y-65251761D02*
X111783521Y-65061285D01*
X111783521Y-65061285D02*
X111783521Y-64489857D01*
X111783521Y-64489857D02*
X111878759Y-64299380D01*
X111878759Y-64299380D02*
X111973997Y-64204142D01*
X111973997Y-64204142D02*
X112164473Y-64108904D01*
X112164473Y-64108904D02*
X112545426Y-64108904D01*
X112545426Y-64108904D02*
X112735902Y-64204142D01*
X113688283Y-65442238D02*
X113688283Y-64108904D01*
X113688283Y-63442238D02*
X113593045Y-63537476D01*
X113593045Y-63537476D02*
X113688283Y-63632714D01*
X113688283Y-63632714D02*
X113783521Y-63537476D01*
X113783521Y-63537476D02*
X113688283Y-63442238D01*
X113688283Y-63442238D02*
X113688283Y-63632714D01*
X114545426Y-65347000D02*
X114735902Y-65442238D01*
X114735902Y-65442238D02*
X115116854Y-65442238D01*
X115116854Y-65442238D02*
X115307331Y-65347000D01*
X115307331Y-65347000D02*
X115402569Y-65156523D01*
X115402569Y-65156523D02*
X115402569Y-65061285D01*
X115402569Y-65061285D02*
X115307331Y-64870809D01*
X115307331Y-64870809D02*
X115116854Y-64775571D01*
X115116854Y-64775571D02*
X114831140Y-64775571D01*
X114831140Y-64775571D02*
X114640664Y-64680333D01*
X114640664Y-64680333D02*
X114545426Y-64489857D01*
X114545426Y-64489857D02*
X114545426Y-64394619D01*
X114545426Y-64394619D02*
X114640664Y-64204142D01*
X114640664Y-64204142D02*
X114831140Y-64108904D01*
X114831140Y-64108904D02*
X115116854Y-64108904D01*
X115116854Y-64108904D02*
X115307331Y-64204142D01*
X115973998Y-64108904D02*
X116735902Y-64108904D01*
X116259712Y-63442238D02*
X116259712Y-65156523D01*
X116259712Y-65156523D02*
X116354950Y-65347000D01*
X116354950Y-65347000D02*
X116545426Y-65442238D01*
X116545426Y-65442238D02*
X116735902Y-65442238D01*
X118164474Y-65347000D02*
X117973998Y-65442238D01*
X117973998Y-65442238D02*
X117593045Y-65442238D01*
X117593045Y-65442238D02*
X117402569Y-65347000D01*
X117402569Y-65347000D02*
X117307331Y-65156523D01*
X117307331Y-65156523D02*
X117307331Y-64394619D01*
X117307331Y-64394619D02*
X117402569Y-64204142D01*
X117402569Y-64204142D02*
X117593045Y-64108904D01*
X117593045Y-64108904D02*
X117973998Y-64108904D01*
X117973998Y-64108904D02*
X118164474Y-64204142D01*
X118164474Y-64204142D02*
X118259712Y-64394619D01*
X118259712Y-64394619D02*
X118259712Y-64585095D01*
X118259712Y-64585095D02*
X117307331Y-64775571D01*
X119116855Y-65442238D02*
X119116855Y-64108904D01*
X119116855Y-64489857D02*
X119212093Y-64299380D01*
X119212093Y-64299380D02*
X119307331Y-64204142D01*
X119307331Y-64204142D02*
X119497807Y-64108904D01*
X119497807Y-64108904D02*
X119688284Y-64108904D01*
D11*
X179832707Y-79867219D02*
X179261279Y-79867219D01*
X179546993Y-79867219D02*
X179546993Y-78867219D01*
X179546993Y-78867219D02*
X179451755Y-79010076D01*
X179451755Y-79010076D02*
X179356517Y-79105314D01*
X179356517Y-79105314D02*
X179261279Y-79152933D01*
X180213660Y-78962457D02*
X180261279Y-78914838D01*
X180261279Y-78914838D02*
X180356517Y-78867219D01*
X180356517Y-78867219D02*
X180594612Y-78867219D01*
X180594612Y-78867219D02*
X180689850Y-78914838D01*
X180689850Y-78914838D02*
X180737469Y-78962457D01*
X180737469Y-78962457D02*
X180785088Y-79057695D01*
X180785088Y-79057695D02*
X180785088Y-79152933D01*
X180785088Y-79152933D02*
X180737469Y-79295790D01*
X180737469Y-79295790D02*
X180166041Y-79867219D01*
X180166041Y-79867219D02*
X180785088Y-79867219D01*
X181213660Y-79486266D02*
X181975565Y-79486266D01*
X182975564Y-79867219D02*
X182404136Y-79867219D01*
X182689850Y-79867219D02*
X182689850Y-78867219D01*
X182689850Y-78867219D02*
X182594612Y-79010076D01*
X182594612Y-79010076D02*
X182499374Y-79105314D01*
X182499374Y-79105314D02*
X182404136Y-79152933D01*
X183880326Y-78867219D02*
X183404136Y-78867219D01*
X183404136Y-78867219D02*
X183356517Y-79343409D01*
X183356517Y-79343409D02*
X183404136Y-79295790D01*
X183404136Y-79295790D02*
X183499374Y-79248171D01*
X183499374Y-79248171D02*
X183737469Y-79248171D01*
X183737469Y-79248171D02*
X183832707Y-79295790D01*
X183832707Y-79295790D02*
X183880326Y-79343409D01*
X183880326Y-79343409D02*
X183927945Y-79438647D01*
X183927945Y-79438647D02*
X183927945Y-79676742D01*
X183927945Y-79676742D02*
X183880326Y-79771980D01*
X183880326Y-79771980D02*
X183832707Y-79819600D01*
X183832707Y-79819600D02*
X183737469Y-79867219D01*
X183737469Y-79867219D02*
X183499374Y-79867219D01*
X183499374Y-79867219D02*
X183404136Y-79819600D01*
X183404136Y-79819600D02*
X183356517Y-79771980D01*
X154654136Y-79295790D02*
X154558898Y-79248171D01*
X154558898Y-79248171D02*
X154511279Y-79200552D01*
X154511279Y-79200552D02*
X154463660Y-79105314D01*
X154463660Y-79105314D02*
X154463660Y-79057695D01*
X154463660Y-79057695D02*
X154511279Y-78962457D01*
X154511279Y-78962457D02*
X154558898Y-78914838D01*
X154558898Y-78914838D02*
X154654136Y-78867219D01*
X154654136Y-78867219D02*
X154844612Y-78867219D01*
X154844612Y-78867219D02*
X154939850Y-78914838D01*
X154939850Y-78914838D02*
X154987469Y-78962457D01*
X154987469Y-78962457D02*
X155035088Y-79057695D01*
X155035088Y-79057695D02*
X155035088Y-79105314D01*
X155035088Y-79105314D02*
X154987469Y-79200552D01*
X154987469Y-79200552D02*
X154939850Y-79248171D01*
X154939850Y-79248171D02*
X154844612Y-79295790D01*
X154844612Y-79295790D02*
X154654136Y-79295790D01*
X154654136Y-79295790D02*
X154558898Y-79343409D01*
X154558898Y-79343409D02*
X154511279Y-79391028D01*
X154511279Y-79391028D02*
X154463660Y-79486266D01*
X154463660Y-79486266D02*
X154463660Y-79676742D01*
X154463660Y-79676742D02*
X154511279Y-79771980D01*
X154511279Y-79771980D02*
X154558898Y-79819600D01*
X154558898Y-79819600D02*
X154654136Y-79867219D01*
X154654136Y-79867219D02*
X154844612Y-79867219D01*
X154844612Y-79867219D02*
X154939850Y-79819600D01*
X154939850Y-79819600D02*
X154987469Y-79771980D01*
X154987469Y-79771980D02*
X155035088Y-79676742D01*
X155035088Y-79676742D02*
X155035088Y-79486266D01*
X155035088Y-79486266D02*
X154987469Y-79391028D01*
X154987469Y-79391028D02*
X154939850Y-79343409D01*
X154939850Y-79343409D02*
X154844612Y-79295790D01*
X155463660Y-79486266D02*
X156225565Y-79486266D01*
X157225564Y-79867219D02*
X156654136Y-79867219D01*
X156939850Y-79867219D02*
X156939850Y-78867219D01*
X156939850Y-78867219D02*
X156844612Y-79010076D01*
X156844612Y-79010076D02*
X156749374Y-79105314D01*
X156749374Y-79105314D02*
X156654136Y-79152933D01*
X158177945Y-79867219D02*
X157606517Y-79867219D01*
X157892231Y-79867219D02*
X157892231Y-78867219D01*
X157892231Y-78867219D02*
X157796993Y-79010076D01*
X157796993Y-79010076D02*
X157701755Y-79105314D01*
X157701755Y-79105314D02*
X157606517Y-79152933D01*
X133892231Y-79200552D02*
X133892231Y-79867219D01*
X133654136Y-78819600D02*
X133416041Y-79533885D01*
X133416041Y-79533885D02*
X134035088Y-79533885D01*
X134416041Y-79486266D02*
X135177946Y-79486266D01*
X135558898Y-78867219D02*
X136225564Y-78867219D01*
X136225564Y-78867219D02*
X135796993Y-79867219D01*
X113404136Y-78867219D02*
X113499374Y-78867219D01*
X113499374Y-78867219D02*
X113594612Y-78914838D01*
X113594612Y-78914838D02*
X113642231Y-78962457D01*
X113642231Y-78962457D02*
X113689850Y-79057695D01*
X113689850Y-79057695D02*
X113737469Y-79248171D01*
X113737469Y-79248171D02*
X113737469Y-79486266D01*
X113737469Y-79486266D02*
X113689850Y-79676742D01*
X113689850Y-79676742D02*
X113642231Y-79771980D01*
X113642231Y-79771980D02*
X113594612Y-79819600D01*
X113594612Y-79819600D02*
X113499374Y-79867219D01*
X113499374Y-79867219D02*
X113404136Y-79867219D01*
X113404136Y-79867219D02*
X113308898Y-79819600D01*
X113308898Y-79819600D02*
X113261279Y-79771980D01*
X113261279Y-79771980D02*
X113213660Y-79676742D01*
X113213660Y-79676742D02*
X113166041Y-79486266D01*
X113166041Y-79486266D02*
X113166041Y-79248171D01*
X113166041Y-79248171D02*
X113213660Y-79057695D01*
X113213660Y-79057695D02*
X113261279Y-78962457D01*
X113261279Y-78962457D02*
X113308898Y-78914838D01*
X113308898Y-78914838D02*
X113404136Y-78867219D01*
X114166041Y-79486266D02*
X114927946Y-79486266D01*
X115308898Y-78867219D02*
X115927945Y-78867219D01*
X115927945Y-78867219D02*
X115594612Y-79248171D01*
X115594612Y-79248171D02*
X115737469Y-79248171D01*
X115737469Y-79248171D02*
X115832707Y-79295790D01*
X115832707Y-79295790D02*
X115880326Y-79343409D01*
X115880326Y-79343409D02*
X115927945Y-79438647D01*
X115927945Y-79438647D02*
X115927945Y-79676742D01*
X115927945Y-79676742D02*
X115880326Y-79771980D01*
X115880326Y-79771980D02*
X115832707Y-79819600D01*
X115832707Y-79819600D02*
X115737469Y-79867219D01*
X115737469Y-79867219D02*
X115451755Y-79867219D01*
X115451755Y-79867219D02*
X115356517Y-79819600D01*
X115356517Y-79819600D02*
X115308898Y-79771980D01*
X132404761Y-137521980D02*
X132357142Y-137569600D01*
X132357142Y-137569600D02*
X132214285Y-137617219D01*
X132214285Y-137617219D02*
X132119047Y-137617219D01*
X132119047Y-137617219D02*
X131976190Y-137569600D01*
X131976190Y-137569600D02*
X131880952Y-137474361D01*
X131880952Y-137474361D02*
X131833333Y-137379123D01*
X131833333Y-137379123D02*
X131785714Y-137188647D01*
X131785714Y-137188647D02*
X131785714Y-137045790D01*
X131785714Y-137045790D02*
X131833333Y-136855314D01*
X131833333Y-136855314D02*
X131880952Y-136760076D01*
X131880952Y-136760076D02*
X131976190Y-136664838D01*
X131976190Y-136664838D02*
X132119047Y-136617219D01*
X132119047Y-136617219D02*
X132214285Y-136617219D01*
X132214285Y-136617219D02*
X132357142Y-136664838D01*
X132357142Y-136664838D02*
X132404761Y-136712457D01*
X133309523Y-137617219D02*
X132833333Y-137617219D01*
X132833333Y-137617219D02*
X132833333Y-136617219D01*
X133642857Y-137617219D02*
X133642857Y-136617219D01*
X134214285Y-137617219D02*
X133785714Y-137045790D01*
X134214285Y-136617219D02*
X133642857Y-137188647D01*
X136702380Y-137617219D02*
X136369047Y-137141028D01*
X136130952Y-137617219D02*
X136130952Y-136617219D01*
X136130952Y-136617219D02*
X136511904Y-136617219D01*
X136511904Y-136617219D02*
X136607142Y-136664838D01*
X136607142Y-136664838D02*
X136654761Y-136712457D01*
X136654761Y-136712457D02*
X136702380Y-136807695D01*
X136702380Y-136807695D02*
X136702380Y-136950552D01*
X136702380Y-136950552D02*
X136654761Y-137045790D01*
X136654761Y-137045790D02*
X136607142Y-137093409D01*
X136607142Y-137093409D02*
X136511904Y-137141028D01*
X136511904Y-137141028D02*
X136130952Y-137141028D01*
X137083333Y-137569600D02*
X137226190Y-137617219D01*
X137226190Y-137617219D02*
X137464285Y-137617219D01*
X137464285Y-137617219D02*
X137559523Y-137569600D01*
X137559523Y-137569600D02*
X137607142Y-137521980D01*
X137607142Y-137521980D02*
X137654761Y-137426742D01*
X137654761Y-137426742D02*
X137654761Y-137331504D01*
X137654761Y-137331504D02*
X137607142Y-137236266D01*
X137607142Y-137236266D02*
X137559523Y-137188647D01*
X137559523Y-137188647D02*
X137464285Y-137141028D01*
X137464285Y-137141028D02*
X137273809Y-137093409D01*
X137273809Y-137093409D02*
X137178571Y-137045790D01*
X137178571Y-137045790D02*
X137130952Y-136998171D01*
X137130952Y-136998171D02*
X137083333Y-136902933D01*
X137083333Y-136902933D02*
X137083333Y-136807695D01*
X137083333Y-136807695D02*
X137130952Y-136712457D01*
X137130952Y-136712457D02*
X137178571Y-136664838D01*
X137178571Y-136664838D02*
X137273809Y-136617219D01*
X137273809Y-136617219D02*
X137511904Y-136617219D01*
X137511904Y-136617219D02*
X137654761Y-136664838D01*
X137940476Y-136617219D02*
X138511904Y-136617219D01*
X138226190Y-137617219D02*
X138226190Y-136617219D01*
X111059523Y-136617219D02*
X110583333Y-136617219D01*
X110583333Y-136617219D02*
X110535714Y-137093409D01*
X110535714Y-137093409D02*
X110583333Y-137045790D01*
X110583333Y-137045790D02*
X110678571Y-136998171D01*
X110678571Y-136998171D02*
X110916666Y-136998171D01*
X110916666Y-136998171D02*
X111011904Y-137045790D01*
X111011904Y-137045790D02*
X111059523Y-137093409D01*
X111059523Y-137093409D02*
X111107142Y-137188647D01*
X111107142Y-137188647D02*
X111107142Y-137426742D01*
X111107142Y-137426742D02*
X111059523Y-137521980D01*
X111059523Y-137521980D02*
X111011904Y-137569600D01*
X111011904Y-137569600D02*
X110916666Y-137617219D01*
X110916666Y-137617219D02*
X110678571Y-137617219D01*
X110678571Y-137617219D02*
X110583333Y-137569600D01*
X110583333Y-137569600D02*
X110535714Y-137521980D01*
X111392857Y-136617219D02*
X111726190Y-137617219D01*
X111726190Y-137617219D02*
X112059523Y-136617219D01*
X114488095Y-136664838D02*
X114392857Y-136617219D01*
X114392857Y-136617219D02*
X114250000Y-136617219D01*
X114250000Y-136617219D02*
X114107143Y-136664838D01*
X114107143Y-136664838D02*
X114011905Y-136760076D01*
X114011905Y-136760076D02*
X113964286Y-136855314D01*
X113964286Y-136855314D02*
X113916667Y-137045790D01*
X113916667Y-137045790D02*
X113916667Y-137188647D01*
X113916667Y-137188647D02*
X113964286Y-137379123D01*
X113964286Y-137379123D02*
X114011905Y-137474361D01*
X114011905Y-137474361D02*
X114107143Y-137569600D01*
X114107143Y-137569600D02*
X114250000Y-137617219D01*
X114250000Y-137617219D02*
X114345238Y-137617219D01*
X114345238Y-137617219D02*
X114488095Y-137569600D01*
X114488095Y-137569600D02*
X114535714Y-137521980D01*
X114535714Y-137521980D02*
X114535714Y-137188647D01*
X114535714Y-137188647D02*
X114345238Y-137188647D01*
X114964286Y-137617219D02*
X114964286Y-136617219D01*
X114964286Y-136617219D02*
X115535714Y-137617219D01*
X115535714Y-137617219D02*
X115535714Y-136617219D01*
X116011905Y-137617219D02*
X116011905Y-136617219D01*
X116011905Y-136617219D02*
X116250000Y-136617219D01*
X116250000Y-136617219D02*
X116392857Y-136664838D01*
X116392857Y-136664838D02*
X116488095Y-136760076D01*
X116488095Y-136760076D02*
X116535714Y-136855314D01*
X116535714Y-136855314D02*
X116583333Y-137045790D01*
X116583333Y-137045790D02*
X116583333Y-137188647D01*
X116583333Y-137188647D02*
X116535714Y-137379123D01*
X116535714Y-137379123D02*
X116488095Y-137474361D01*
X116488095Y-137474361D02*
X116392857Y-137569600D01*
X116392857Y-137569600D02*
X116250000Y-137617219D01*
X116250000Y-137617219D02*
X116011905Y-137617219D01*
X124702381Y-136617219D02*
X124892857Y-136617219D01*
X124892857Y-136617219D02*
X124988095Y-136664838D01*
X124988095Y-136664838D02*
X125083333Y-136760076D01*
X125083333Y-136760076D02*
X125130952Y-136950552D01*
X125130952Y-136950552D02*
X125130952Y-137283885D01*
X125130952Y-137283885D02*
X125083333Y-137474361D01*
X125083333Y-137474361D02*
X124988095Y-137569600D01*
X124988095Y-137569600D02*
X124892857Y-137617219D01*
X124892857Y-137617219D02*
X124702381Y-137617219D01*
X124702381Y-137617219D02*
X124607143Y-137569600D01*
X124607143Y-137569600D02*
X124511905Y-137474361D01*
X124511905Y-137474361D02*
X124464286Y-137283885D01*
X124464286Y-137283885D02*
X124464286Y-136950552D01*
X124464286Y-136950552D02*
X124511905Y-136760076D01*
X124511905Y-136760076D02*
X124607143Y-136664838D01*
X124607143Y-136664838D02*
X124702381Y-136617219D01*
X125559524Y-137093409D02*
X125892857Y-137093409D01*
X126035714Y-137617219D02*
X125559524Y-137617219D01*
X125559524Y-137617219D02*
X125559524Y-136617219D01*
X125559524Y-136617219D02*
X126035714Y-136617219D01*
X124373810Y-136339600D02*
X126126191Y-136339600D01*
X122035714Y-137617219D02*
X122035714Y-136617219D01*
X122035714Y-136617219D02*
X122273809Y-136617219D01*
X122273809Y-136617219D02*
X122416666Y-136664838D01*
X122416666Y-136664838D02*
X122511904Y-136760076D01*
X122511904Y-136760076D02*
X122559523Y-136855314D01*
X122559523Y-136855314D02*
X122607142Y-137045790D01*
X122607142Y-137045790D02*
X122607142Y-137188647D01*
X122607142Y-137188647D02*
X122559523Y-137379123D01*
X122559523Y-137379123D02*
X122511904Y-137474361D01*
X122511904Y-137474361D02*
X122416666Y-137569600D01*
X122416666Y-137569600D02*
X122273809Y-137617219D01*
X122273809Y-137617219D02*
X122035714Y-137617219D01*
X123035714Y-137093409D02*
X123369047Y-137093409D01*
X123511904Y-137617219D02*
X123035714Y-137617219D01*
X123035714Y-137617219D02*
X123035714Y-136617219D01*
X123035714Y-136617219D02*
X123511904Y-136617219D01*
X121897619Y-136339600D02*
X123602381Y-136339600D01*
D12*
X121000000Y-66100000D02*
X118000000Y-69100000D01*
X118000000Y-74000000D01*
X101600000Y-74000000D01*
X101600000Y-59000000D01*
X121000000Y-59000000D01*
X121000000Y-66100000D01*
D13*
X159564819Y-119751904D02*
X160374342Y-119751904D01*
X160374342Y-119751904D02*
X160469580Y-119704285D01*
X160469580Y-119704285D02*
X160517200Y-119656666D01*
X160517200Y-119656666D02*
X160564819Y-119561428D01*
X160564819Y-119561428D02*
X160564819Y-119370952D01*
X160564819Y-119370952D02*
X160517200Y-119275714D01*
X160517200Y-119275714D02*
X160469580Y-119228095D01*
X160469580Y-119228095D02*
X160374342Y-119180476D01*
X160374342Y-119180476D02*
X159564819Y-119180476D01*
X159564819Y-118275714D02*
X159564819Y-118466190D01*
X159564819Y-118466190D02*
X159612438Y-118561428D01*
X159612438Y-118561428D02*
X159660057Y-118609047D01*
X159660057Y-118609047D02*
X159802914Y-118704285D01*
X159802914Y-118704285D02*
X159993390Y-118751904D01*
X159993390Y-118751904D02*
X160374342Y-118751904D01*
X160374342Y-118751904D02*
X160469580Y-118704285D01*
X160469580Y-118704285D02*
X160517200Y-118656666D01*
X160517200Y-118656666D02*
X160564819Y-118561428D01*
X160564819Y-118561428D02*
X160564819Y-118370952D01*
X160564819Y-118370952D02*
X160517200Y-118275714D01*
X160517200Y-118275714D02*
X160469580Y-118228095D01*
X160469580Y-118228095D02*
X160374342Y-118180476D01*
X160374342Y-118180476D02*
X160136247Y-118180476D01*
X160136247Y-118180476D02*
X160041009Y-118228095D01*
X160041009Y-118228095D02*
X159993390Y-118275714D01*
X159993390Y-118275714D02*
X159945771Y-118370952D01*
X159945771Y-118370952D02*
X159945771Y-118561428D01*
X159945771Y-118561428D02*
X159993390Y-118656666D01*
X159993390Y-118656666D02*
X160041009Y-118704285D01*
X160041009Y-118704285D02*
X160136247Y-118751904D01*
X188768095Y-76794819D02*
X188768095Y-77604342D01*
X188768095Y-77604342D02*
X188815714Y-77699580D01*
X188815714Y-77699580D02*
X188863333Y-77747200D01*
X188863333Y-77747200D02*
X188958571Y-77794819D01*
X188958571Y-77794819D02*
X189149047Y-77794819D01*
X189149047Y-77794819D02*
X189244285Y-77747200D01*
X189244285Y-77747200D02*
X189291904Y-77699580D01*
X189291904Y-77699580D02*
X189339523Y-77604342D01*
X189339523Y-77604342D02*
X189339523Y-76794819D01*
X190291904Y-76794819D02*
X189815714Y-76794819D01*
X189815714Y-76794819D02*
X189768095Y-77271009D01*
X189768095Y-77271009D02*
X189815714Y-77223390D01*
X189815714Y-77223390D02*
X189910952Y-77175771D01*
X189910952Y-77175771D02*
X190149047Y-77175771D01*
X190149047Y-77175771D02*
X190244285Y-77223390D01*
X190244285Y-77223390D02*
X190291904Y-77271009D01*
X190291904Y-77271009D02*
X190339523Y-77366247D01*
X190339523Y-77366247D02*
X190339523Y-77604342D01*
X190339523Y-77604342D02*
X190291904Y-77699580D01*
X190291904Y-77699580D02*
X190244285Y-77747200D01*
X190244285Y-77747200D02*
X190149047Y-77794819D01*
X190149047Y-77794819D02*
X189910952Y-77794819D01*
X189910952Y-77794819D02*
X189815714Y-77747200D01*
X189815714Y-77747200D02*
X189768095Y-77699580D01*
X162948095Y-76744819D02*
X162948095Y-77554342D01*
X162948095Y-77554342D02*
X162995714Y-77649580D01*
X162995714Y-77649580D02*
X163043333Y-77697200D01*
X163043333Y-77697200D02*
X163138571Y-77744819D01*
X163138571Y-77744819D02*
X163329047Y-77744819D01*
X163329047Y-77744819D02*
X163424285Y-77697200D01*
X163424285Y-77697200D02*
X163471904Y-77649580D01*
X163471904Y-77649580D02*
X163519523Y-77554342D01*
X163519523Y-77554342D02*
X163519523Y-76744819D01*
X164424285Y-77078152D02*
X164424285Y-77744819D01*
X164186190Y-76697200D02*
X163948095Y-77411485D01*
X163948095Y-77411485D02*
X164567142Y-77411485D01*
X117449819Y-119751904D02*
X118259342Y-119751904D01*
X118259342Y-119751904D02*
X118354580Y-119704285D01*
X118354580Y-119704285D02*
X118402200Y-119656666D01*
X118402200Y-119656666D02*
X118449819Y-119561428D01*
X118449819Y-119561428D02*
X118449819Y-119370952D01*
X118449819Y-119370952D02*
X118402200Y-119275714D01*
X118402200Y-119275714D02*
X118354580Y-119228095D01*
X118354580Y-119228095D02*
X118259342Y-119180476D01*
X118259342Y-119180476D02*
X117449819Y-119180476D01*
X117449819Y-118799523D02*
X117449819Y-118180476D01*
X117449819Y-118180476D02*
X117830771Y-118513809D01*
X117830771Y-118513809D02*
X117830771Y-118370952D01*
X117830771Y-118370952D02*
X117878390Y-118275714D01*
X117878390Y-118275714D02*
X117926009Y-118228095D01*
X117926009Y-118228095D02*
X118021247Y-118180476D01*
X118021247Y-118180476D02*
X118259342Y-118180476D01*
X118259342Y-118180476D02*
X118354580Y-118228095D01*
X118354580Y-118228095D02*
X118402200Y-118275714D01*
X118402200Y-118275714D02*
X118449819Y-118370952D01*
X118449819Y-118370952D02*
X118449819Y-118656666D01*
X118449819Y-118656666D02*
X118402200Y-118751904D01*
X118402200Y-118751904D02*
X118354580Y-118799523D01*
X141153095Y-76744819D02*
X141153095Y-77554342D01*
X141153095Y-77554342D02*
X141200714Y-77649580D01*
X141200714Y-77649580D02*
X141248333Y-77697200D01*
X141248333Y-77697200D02*
X141343571Y-77744819D01*
X141343571Y-77744819D02*
X141534047Y-77744819D01*
X141534047Y-77744819D02*
X141629285Y-77697200D01*
X141629285Y-77697200D02*
X141676904Y-77649580D01*
X141676904Y-77649580D02*
X141724523Y-77554342D01*
X141724523Y-77554342D02*
X141724523Y-76744819D01*
X142153095Y-76840057D02*
X142200714Y-76792438D01*
X142200714Y-76792438D02*
X142295952Y-76744819D01*
X142295952Y-76744819D02*
X142534047Y-76744819D01*
X142534047Y-76744819D02*
X142629285Y-76792438D01*
X142629285Y-76792438D02*
X142676904Y-76840057D01*
X142676904Y-76840057D02*
X142724523Y-76935295D01*
X142724523Y-76935295D02*
X142724523Y-77030533D01*
X142724523Y-77030533D02*
X142676904Y-77173390D01*
X142676904Y-77173390D02*
X142105476Y-77744819D01*
X142105476Y-77744819D02*
X142724523Y-77744819D01*
X120833095Y-76799819D02*
X120833095Y-77609342D01*
X120833095Y-77609342D02*
X120880714Y-77704580D01*
X120880714Y-77704580D02*
X120928333Y-77752200D01*
X120928333Y-77752200D02*
X121023571Y-77799819D01*
X121023571Y-77799819D02*
X121214047Y-77799819D01*
X121214047Y-77799819D02*
X121309285Y-77752200D01*
X121309285Y-77752200D02*
X121356904Y-77704580D01*
X121356904Y-77704580D02*
X121404523Y-77609342D01*
X121404523Y-77609342D02*
X121404523Y-76799819D01*
X122404523Y-77799819D02*
X121833095Y-77799819D01*
X122118809Y-77799819D02*
X122118809Y-76799819D01*
X122118809Y-76799819D02*
X122023571Y-76942676D01*
X122023571Y-76942676D02*
X121928333Y-77037914D01*
X121928333Y-77037914D02*
X121833095Y-77085533D01*
X116251667Y-58257200D02*
X116394524Y-58304819D01*
X116394524Y-58304819D02*
X116632619Y-58304819D01*
X116632619Y-58304819D02*
X116727857Y-58257200D01*
X116727857Y-58257200D02*
X116775476Y-58209580D01*
X116775476Y-58209580D02*
X116823095Y-58114342D01*
X116823095Y-58114342D02*
X116823095Y-58019104D01*
X116823095Y-58019104D02*
X116775476Y-57923866D01*
X116775476Y-57923866D02*
X116727857Y-57876247D01*
X116727857Y-57876247D02*
X116632619Y-57828628D01*
X116632619Y-57828628D02*
X116442143Y-57781009D01*
X116442143Y-57781009D02*
X116346905Y-57733390D01*
X116346905Y-57733390D02*
X116299286Y-57685771D01*
X116299286Y-57685771D02*
X116251667Y-57590533D01*
X116251667Y-57590533D02*
X116251667Y-57495295D01*
X116251667Y-57495295D02*
X116299286Y-57400057D01*
X116299286Y-57400057D02*
X116346905Y-57352438D01*
X116346905Y-57352438D02*
X116442143Y-57304819D01*
X116442143Y-57304819D02*
X116680238Y-57304819D01*
X116680238Y-57304819D02*
X116823095Y-57352438D01*
X117156429Y-57304819D02*
X117394524Y-58304819D01*
X117394524Y-58304819D02*
X117585000Y-57590533D01*
X117585000Y-57590533D02*
X117775476Y-58304819D01*
X117775476Y-58304819D02*
X118013572Y-57304819D01*
X118918333Y-58304819D02*
X118346905Y-58304819D01*
X118632619Y-58304819D02*
X118632619Y-57304819D01*
X118632619Y-57304819D02*
X118537381Y-57447676D01*
X118537381Y-57447676D02*
X118442143Y-57542914D01*
X118442143Y-57542914D02*
X118346905Y-57590533D01*
X174979819Y-55944285D02*
X173979819Y-55944285D01*
X173979819Y-55944285D02*
X173979819Y-55706190D01*
X173979819Y-55706190D02*
X174027438Y-55563333D01*
X174027438Y-55563333D02*
X174122676Y-55468095D01*
X174122676Y-55468095D02*
X174217914Y-55420476D01*
X174217914Y-55420476D02*
X174408390Y-55372857D01*
X174408390Y-55372857D02*
X174551247Y-55372857D01*
X174551247Y-55372857D02*
X174741723Y-55420476D01*
X174741723Y-55420476D02*
X174836961Y-55468095D01*
X174836961Y-55468095D02*
X174932200Y-55563333D01*
X174932200Y-55563333D02*
X174979819Y-55706190D01*
X174979819Y-55706190D02*
X174979819Y-55944285D01*
X174979819Y-54420476D02*
X174979819Y-54991904D01*
X174979819Y-54706190D02*
X173979819Y-54706190D01*
X173979819Y-54706190D02*
X174122676Y-54801428D01*
X174122676Y-54801428D02*
X174217914Y-54896666D01*
X174217914Y-54896666D02*
X174265533Y-54991904D01*
X173979819Y-54087142D02*
X173979819Y-53468095D01*
X173979819Y-53468095D02*
X174360771Y-53801428D01*
X174360771Y-53801428D02*
X174360771Y-53658571D01*
X174360771Y-53658571D02*
X174408390Y-53563333D01*
X174408390Y-53563333D02*
X174456009Y-53515714D01*
X174456009Y-53515714D02*
X174551247Y-53468095D01*
X174551247Y-53468095D02*
X174789342Y-53468095D01*
X174789342Y-53468095D02*
X174884580Y-53515714D01*
X174884580Y-53515714D02*
X174932200Y-53563333D01*
X174932200Y-53563333D02*
X174979819Y-53658571D01*
X174979819Y-53658571D02*
X174979819Y-53944285D01*
X174979819Y-53944285D02*
X174932200Y-54039523D01*
X174932200Y-54039523D02*
X174884580Y-54087142D01*
X148979819Y-63356666D02*
X148503628Y-63689999D01*
X148979819Y-63928094D02*
X147979819Y-63928094D01*
X147979819Y-63928094D02*
X147979819Y-63547142D01*
X147979819Y-63547142D02*
X148027438Y-63451904D01*
X148027438Y-63451904D02*
X148075057Y-63404285D01*
X148075057Y-63404285D02*
X148170295Y-63356666D01*
X148170295Y-63356666D02*
X148313152Y-63356666D01*
X148313152Y-63356666D02*
X148408390Y-63404285D01*
X148408390Y-63404285D02*
X148456009Y-63451904D01*
X148456009Y-63451904D02*
X148503628Y-63547142D01*
X148503628Y-63547142D02*
X148503628Y-63928094D01*
X148408390Y-62785237D02*
X148360771Y-62880475D01*
X148360771Y-62880475D02*
X148313152Y-62928094D01*
X148313152Y-62928094D02*
X148217914Y-62975713D01*
X148217914Y-62975713D02*
X148170295Y-62975713D01*
X148170295Y-62975713D02*
X148075057Y-62928094D01*
X148075057Y-62928094D02*
X148027438Y-62880475D01*
X148027438Y-62880475D02*
X147979819Y-62785237D01*
X147979819Y-62785237D02*
X147979819Y-62594761D01*
X147979819Y-62594761D02*
X148027438Y-62499523D01*
X148027438Y-62499523D02*
X148075057Y-62451904D01*
X148075057Y-62451904D02*
X148170295Y-62404285D01*
X148170295Y-62404285D02*
X148217914Y-62404285D01*
X148217914Y-62404285D02*
X148313152Y-62451904D01*
X148313152Y-62451904D02*
X148360771Y-62499523D01*
X148360771Y-62499523D02*
X148408390Y-62594761D01*
X148408390Y-62594761D02*
X148408390Y-62785237D01*
X148408390Y-62785237D02*
X148456009Y-62880475D01*
X148456009Y-62880475D02*
X148503628Y-62928094D01*
X148503628Y-62928094D02*
X148598866Y-62975713D01*
X148598866Y-62975713D02*
X148789342Y-62975713D01*
X148789342Y-62975713D02*
X148884580Y-62928094D01*
X148884580Y-62928094D02*
X148932200Y-62880475D01*
X148932200Y-62880475D02*
X148979819Y-62785237D01*
X148979819Y-62785237D02*
X148979819Y-62594761D01*
X148979819Y-62594761D02*
X148932200Y-62499523D01*
X148932200Y-62499523D02*
X148884580Y-62451904D01*
X148884580Y-62451904D02*
X148789342Y-62404285D01*
X148789342Y-62404285D02*
X148598866Y-62404285D01*
X148598866Y-62404285D02*
X148503628Y-62451904D01*
X148503628Y-62451904D02*
X148456009Y-62499523D01*
X148456009Y-62499523D02*
X148408390Y-62594761D01*
X140999819Y-63356666D02*
X140523628Y-63689999D01*
X140999819Y-63928094D02*
X139999819Y-63928094D01*
X139999819Y-63928094D02*
X139999819Y-63547142D01*
X139999819Y-63547142D02*
X140047438Y-63451904D01*
X140047438Y-63451904D02*
X140095057Y-63404285D01*
X140095057Y-63404285D02*
X140190295Y-63356666D01*
X140190295Y-63356666D02*
X140333152Y-63356666D01*
X140333152Y-63356666D02*
X140428390Y-63404285D01*
X140428390Y-63404285D02*
X140476009Y-63451904D01*
X140476009Y-63451904D02*
X140523628Y-63547142D01*
X140523628Y-63547142D02*
X140523628Y-63928094D01*
X139999819Y-62499523D02*
X139999819Y-62689999D01*
X139999819Y-62689999D02*
X140047438Y-62785237D01*
X140047438Y-62785237D02*
X140095057Y-62832856D01*
X140095057Y-62832856D02*
X140237914Y-62928094D01*
X140237914Y-62928094D02*
X140428390Y-62975713D01*
X140428390Y-62975713D02*
X140809342Y-62975713D01*
X140809342Y-62975713D02*
X140904580Y-62928094D01*
X140904580Y-62928094D02*
X140952200Y-62880475D01*
X140952200Y-62880475D02*
X140999819Y-62785237D01*
X140999819Y-62785237D02*
X140999819Y-62594761D01*
X140999819Y-62594761D02*
X140952200Y-62499523D01*
X140952200Y-62499523D02*
X140904580Y-62451904D01*
X140904580Y-62451904D02*
X140809342Y-62404285D01*
X140809342Y-62404285D02*
X140571247Y-62404285D01*
X140571247Y-62404285D02*
X140476009Y-62451904D01*
X140476009Y-62451904D02*
X140428390Y-62499523D01*
X140428390Y-62499523D02*
X140380771Y-62594761D01*
X140380771Y-62594761D02*
X140380771Y-62785237D01*
X140380771Y-62785237D02*
X140428390Y-62880475D01*
X140428390Y-62880475D02*
X140476009Y-62928094D01*
X140476009Y-62928094D02*
X140571247Y-62975713D01*
X194423333Y-72954580D02*
X194375714Y-73002200D01*
X194375714Y-73002200D02*
X194232857Y-73049819D01*
X194232857Y-73049819D02*
X194137619Y-73049819D01*
X194137619Y-73049819D02*
X193994762Y-73002200D01*
X193994762Y-73002200D02*
X193899524Y-72906961D01*
X193899524Y-72906961D02*
X193851905Y-72811723D01*
X193851905Y-72811723D02*
X193804286Y-72621247D01*
X193804286Y-72621247D02*
X193804286Y-72478390D01*
X193804286Y-72478390D02*
X193851905Y-72287914D01*
X193851905Y-72287914D02*
X193899524Y-72192676D01*
X193899524Y-72192676D02*
X193994762Y-72097438D01*
X193994762Y-72097438D02*
X194137619Y-72049819D01*
X194137619Y-72049819D02*
X194232857Y-72049819D01*
X194232857Y-72049819D02*
X194375714Y-72097438D01*
X194375714Y-72097438D02*
X194423333Y-72145057D01*
X195280476Y-72383152D02*
X195280476Y-73049819D01*
X195042381Y-72002200D02*
X194804286Y-72716485D01*
X194804286Y-72716485D02*
X195423333Y-72716485D01*
X166999819Y-55944285D02*
X165999819Y-55944285D01*
X165999819Y-55944285D02*
X165999819Y-55706190D01*
X165999819Y-55706190D02*
X166047438Y-55563333D01*
X166047438Y-55563333D02*
X166142676Y-55468095D01*
X166142676Y-55468095D02*
X166237914Y-55420476D01*
X166237914Y-55420476D02*
X166428390Y-55372857D01*
X166428390Y-55372857D02*
X166571247Y-55372857D01*
X166571247Y-55372857D02*
X166761723Y-55420476D01*
X166761723Y-55420476D02*
X166856961Y-55468095D01*
X166856961Y-55468095D02*
X166952200Y-55563333D01*
X166952200Y-55563333D02*
X166999819Y-55706190D01*
X166999819Y-55706190D02*
X166999819Y-55944285D01*
X166999819Y-54420476D02*
X166999819Y-54991904D01*
X166999819Y-54706190D02*
X165999819Y-54706190D01*
X165999819Y-54706190D02*
X166142676Y-54801428D01*
X166142676Y-54801428D02*
X166237914Y-54896666D01*
X166237914Y-54896666D02*
X166285533Y-54991904D01*
X166999819Y-53468095D02*
X166999819Y-54039523D01*
X166999819Y-53753809D02*
X165999819Y-53753809D01*
X165999819Y-53753809D02*
X166142676Y-53849047D01*
X166142676Y-53849047D02*
X166237914Y-53944285D01*
X166237914Y-53944285D02*
X166285533Y-54039523D01*
X126488333Y-72954580D02*
X126440714Y-73002200D01*
X126440714Y-73002200D02*
X126297857Y-73049819D01*
X126297857Y-73049819D02*
X126202619Y-73049819D01*
X126202619Y-73049819D02*
X126059762Y-73002200D01*
X126059762Y-73002200D02*
X125964524Y-72906961D01*
X125964524Y-72906961D02*
X125916905Y-72811723D01*
X125916905Y-72811723D02*
X125869286Y-72621247D01*
X125869286Y-72621247D02*
X125869286Y-72478390D01*
X125869286Y-72478390D02*
X125916905Y-72287914D01*
X125916905Y-72287914D02*
X125964524Y-72192676D01*
X125964524Y-72192676D02*
X126059762Y-72097438D01*
X126059762Y-72097438D02*
X126202619Y-72049819D01*
X126202619Y-72049819D02*
X126297857Y-72049819D01*
X126297857Y-72049819D02*
X126440714Y-72097438D01*
X126440714Y-72097438D02*
X126488333Y-72145057D01*
X127440714Y-73049819D02*
X126869286Y-73049819D01*
X127155000Y-73049819D02*
X127155000Y-72049819D01*
X127155000Y-72049819D02*
X127059762Y-72192676D01*
X127059762Y-72192676D02*
X126964524Y-72287914D01*
X126964524Y-72287914D02*
X126869286Y-72335533D01*
X144989819Y-63356666D02*
X144513628Y-63689999D01*
X144989819Y-63928094D02*
X143989819Y-63928094D01*
X143989819Y-63928094D02*
X143989819Y-63547142D01*
X143989819Y-63547142D02*
X144037438Y-63451904D01*
X144037438Y-63451904D02*
X144085057Y-63404285D01*
X144085057Y-63404285D02*
X144180295Y-63356666D01*
X144180295Y-63356666D02*
X144323152Y-63356666D01*
X144323152Y-63356666D02*
X144418390Y-63404285D01*
X144418390Y-63404285D02*
X144466009Y-63451904D01*
X144466009Y-63451904D02*
X144513628Y-63547142D01*
X144513628Y-63547142D02*
X144513628Y-63928094D01*
X143989819Y-63023332D02*
X143989819Y-62356666D01*
X143989819Y-62356666D02*
X144989819Y-62785237D01*
X127099819Y-55468094D02*
X126099819Y-55468094D01*
X126099819Y-55468094D02*
X126099819Y-55229999D01*
X126099819Y-55229999D02*
X126147438Y-55087142D01*
X126147438Y-55087142D02*
X126242676Y-54991904D01*
X126242676Y-54991904D02*
X126337914Y-54944285D01*
X126337914Y-54944285D02*
X126528390Y-54896666D01*
X126528390Y-54896666D02*
X126671247Y-54896666D01*
X126671247Y-54896666D02*
X126861723Y-54944285D01*
X126861723Y-54944285D02*
X126956961Y-54991904D01*
X126956961Y-54991904D02*
X127052200Y-55087142D01*
X127052200Y-55087142D02*
X127099819Y-55229999D01*
X127099819Y-55229999D02*
X127099819Y-55468094D01*
X127099819Y-53944285D02*
X127099819Y-54515713D01*
X127099819Y-54229999D02*
X126099819Y-54229999D01*
X126099819Y-54229999D02*
X126242676Y-54325237D01*
X126242676Y-54325237D02*
X126337914Y-54420475D01*
X126337914Y-54420475D02*
X126385533Y-54515713D01*
D11*
X175892857Y-138593409D02*
X176035714Y-138641028D01*
X176035714Y-138641028D02*
X176083333Y-138688647D01*
X176083333Y-138688647D02*
X176130952Y-138783885D01*
X176130952Y-138783885D02*
X176130952Y-138926742D01*
X176130952Y-138926742D02*
X176083333Y-139021980D01*
X176083333Y-139021980D02*
X176035714Y-139069600D01*
X176035714Y-139069600D02*
X175940476Y-139117219D01*
X175940476Y-139117219D02*
X175559524Y-139117219D01*
X175559524Y-139117219D02*
X175559524Y-138117219D01*
X175559524Y-138117219D02*
X175892857Y-138117219D01*
X175892857Y-138117219D02*
X175988095Y-138164838D01*
X175988095Y-138164838D02*
X176035714Y-138212457D01*
X176035714Y-138212457D02*
X176083333Y-138307695D01*
X176083333Y-138307695D02*
X176083333Y-138402933D01*
X176083333Y-138402933D02*
X176035714Y-138498171D01*
X176035714Y-138498171D02*
X175988095Y-138545790D01*
X175988095Y-138545790D02*
X175892857Y-138593409D01*
X175892857Y-138593409D02*
X175559524Y-138593409D01*
X176559524Y-138117219D02*
X176559524Y-138926742D01*
X176559524Y-138926742D02*
X176607143Y-139021980D01*
X176607143Y-139021980D02*
X176654762Y-139069600D01*
X176654762Y-139069600D02*
X176750000Y-139117219D01*
X176750000Y-139117219D02*
X176940476Y-139117219D01*
X176940476Y-139117219D02*
X177035714Y-139069600D01*
X177035714Y-139069600D02*
X177083333Y-139021980D01*
X177083333Y-139021980D02*
X177130952Y-138926742D01*
X177130952Y-138926742D02*
X177130952Y-138117219D01*
X177559524Y-139069600D02*
X177702381Y-139117219D01*
X177702381Y-139117219D02*
X177940476Y-139117219D01*
X177940476Y-139117219D02*
X178035714Y-139069600D01*
X178035714Y-139069600D02*
X178083333Y-139021980D01*
X178083333Y-139021980D02*
X178130952Y-138926742D01*
X178130952Y-138926742D02*
X178130952Y-138831504D01*
X178130952Y-138831504D02*
X178083333Y-138736266D01*
X178083333Y-138736266D02*
X178035714Y-138688647D01*
X178035714Y-138688647D02*
X177940476Y-138641028D01*
X177940476Y-138641028D02*
X177750000Y-138593409D01*
X177750000Y-138593409D02*
X177654762Y-138545790D01*
X177654762Y-138545790D02*
X177607143Y-138498171D01*
X177607143Y-138498171D02*
X177559524Y-138402933D01*
X177559524Y-138402933D02*
X177559524Y-138307695D01*
X177559524Y-138307695D02*
X177607143Y-138212457D01*
X177607143Y-138212457D02*
X177654762Y-138164838D01*
X177654762Y-138164838D02*
X177750000Y-138117219D01*
X177750000Y-138117219D02*
X177988095Y-138117219D01*
X177988095Y-138117219D02*
X178130952Y-138164838D01*
X179464286Y-138545790D02*
X179369048Y-138498171D01*
X179369048Y-138498171D02*
X179321429Y-138450552D01*
X179321429Y-138450552D02*
X179273810Y-138355314D01*
X179273810Y-138355314D02*
X179273810Y-138307695D01*
X179273810Y-138307695D02*
X179321429Y-138212457D01*
X179321429Y-138212457D02*
X179369048Y-138164838D01*
X179369048Y-138164838D02*
X179464286Y-138117219D01*
X179464286Y-138117219D02*
X179654762Y-138117219D01*
X179654762Y-138117219D02*
X179750000Y-138164838D01*
X179750000Y-138164838D02*
X179797619Y-138212457D01*
X179797619Y-138212457D02*
X179845238Y-138307695D01*
X179845238Y-138307695D02*
X179845238Y-138355314D01*
X179845238Y-138355314D02*
X179797619Y-138450552D01*
X179797619Y-138450552D02*
X179750000Y-138498171D01*
X179750000Y-138498171D02*
X179654762Y-138545790D01*
X179654762Y-138545790D02*
X179464286Y-138545790D01*
X179464286Y-138545790D02*
X179369048Y-138593409D01*
X179369048Y-138593409D02*
X179321429Y-138641028D01*
X179321429Y-138641028D02*
X179273810Y-138736266D01*
X179273810Y-138736266D02*
X179273810Y-138926742D01*
X179273810Y-138926742D02*
X179321429Y-139021980D01*
X179321429Y-139021980D02*
X179369048Y-139069600D01*
X179369048Y-139069600D02*
X179464286Y-139117219D01*
X179464286Y-139117219D02*
X179654762Y-139117219D01*
X179654762Y-139117219D02*
X179750000Y-139069600D01*
X179750000Y-139069600D02*
X179797619Y-139021980D01*
X179797619Y-139021980D02*
X179845238Y-138926742D01*
X179845238Y-138926742D02*
X179845238Y-138736266D01*
X179845238Y-138736266D02*
X179797619Y-138641028D01*
X179797619Y-138641028D02*
X179750000Y-138593409D01*
X179750000Y-138593409D02*
X179654762Y-138545790D01*
X180273810Y-138736266D02*
X181035715Y-138736266D01*
X182035714Y-139117219D02*
X181464286Y-139117219D01*
X181750000Y-139117219D02*
X181750000Y-138117219D01*
X181750000Y-138117219D02*
X181654762Y-138260076D01*
X181654762Y-138260076D02*
X181559524Y-138355314D01*
X181559524Y-138355314D02*
X181464286Y-138402933D01*
X182940476Y-138117219D02*
X182464286Y-138117219D01*
X182464286Y-138117219D02*
X182416667Y-138593409D01*
X182416667Y-138593409D02*
X182464286Y-138545790D01*
X182464286Y-138545790D02*
X182559524Y-138498171D01*
X182559524Y-138498171D02*
X182797619Y-138498171D01*
X182797619Y-138498171D02*
X182892857Y-138545790D01*
X182892857Y-138545790D02*
X182940476Y-138593409D01*
X182940476Y-138593409D02*
X182988095Y-138688647D01*
X182988095Y-138688647D02*
X182988095Y-138926742D01*
X182988095Y-138926742D02*
X182940476Y-139021980D01*
X182940476Y-139021980D02*
X182892857Y-139069600D01*
X182892857Y-139069600D02*
X182797619Y-139117219D01*
X182797619Y-139117219D02*
X182559524Y-139117219D01*
X182559524Y-139117219D02*
X182464286Y-139069600D01*
X182464286Y-139069600D02*
X182416667Y-139021980D01*
D13*
X146808333Y-72899580D02*
X146760714Y-72947200D01*
X146760714Y-72947200D02*
X146617857Y-72994819D01*
X146617857Y-72994819D02*
X146522619Y-72994819D01*
X146522619Y-72994819D02*
X146379762Y-72947200D01*
X146379762Y-72947200D02*
X146284524Y-72851961D01*
X146284524Y-72851961D02*
X146236905Y-72756723D01*
X146236905Y-72756723D02*
X146189286Y-72566247D01*
X146189286Y-72566247D02*
X146189286Y-72423390D01*
X146189286Y-72423390D02*
X146236905Y-72232914D01*
X146236905Y-72232914D02*
X146284524Y-72137676D01*
X146284524Y-72137676D02*
X146379762Y-72042438D01*
X146379762Y-72042438D02*
X146522619Y-71994819D01*
X146522619Y-71994819D02*
X146617857Y-71994819D01*
X146617857Y-71994819D02*
X146760714Y-72042438D01*
X146760714Y-72042438D02*
X146808333Y-72090057D01*
X147189286Y-72090057D02*
X147236905Y-72042438D01*
X147236905Y-72042438D02*
X147332143Y-71994819D01*
X147332143Y-71994819D02*
X147570238Y-71994819D01*
X147570238Y-71994819D02*
X147665476Y-72042438D01*
X147665476Y-72042438D02*
X147713095Y-72090057D01*
X147713095Y-72090057D02*
X147760714Y-72185295D01*
X147760714Y-72185295D02*
X147760714Y-72280533D01*
X147760714Y-72280533D02*
X147713095Y-72423390D01*
X147713095Y-72423390D02*
X147141667Y-72994819D01*
X147141667Y-72994819D02*
X147760714Y-72994819D01*
X159019819Y-55468094D02*
X158019819Y-55468094D01*
X158019819Y-55468094D02*
X158019819Y-55229999D01*
X158019819Y-55229999D02*
X158067438Y-55087142D01*
X158067438Y-55087142D02*
X158162676Y-54991904D01*
X158162676Y-54991904D02*
X158257914Y-54944285D01*
X158257914Y-54944285D02*
X158448390Y-54896666D01*
X158448390Y-54896666D02*
X158591247Y-54896666D01*
X158591247Y-54896666D02*
X158781723Y-54944285D01*
X158781723Y-54944285D02*
X158876961Y-54991904D01*
X158876961Y-54991904D02*
X158972200Y-55087142D01*
X158972200Y-55087142D02*
X159019819Y-55229999D01*
X159019819Y-55229999D02*
X159019819Y-55468094D01*
X159019819Y-54420475D02*
X159019819Y-54229999D01*
X159019819Y-54229999D02*
X158972200Y-54134761D01*
X158972200Y-54134761D02*
X158924580Y-54087142D01*
X158924580Y-54087142D02*
X158781723Y-53991904D01*
X158781723Y-53991904D02*
X158591247Y-53944285D01*
X158591247Y-53944285D02*
X158210295Y-53944285D01*
X158210295Y-53944285D02*
X158115057Y-53991904D01*
X158115057Y-53991904D02*
X158067438Y-54039523D01*
X158067438Y-54039523D02*
X158019819Y-54134761D01*
X158019819Y-54134761D02*
X158019819Y-54325237D01*
X158019819Y-54325237D02*
X158067438Y-54420475D01*
X158067438Y-54420475D02*
X158115057Y-54468094D01*
X158115057Y-54468094D02*
X158210295Y-54515713D01*
X158210295Y-54515713D02*
X158448390Y-54515713D01*
X158448390Y-54515713D02*
X158543628Y-54468094D01*
X158543628Y-54468094D02*
X158591247Y-54420475D01*
X158591247Y-54420475D02*
X158638866Y-54325237D01*
X158638866Y-54325237D02*
X158638866Y-54134761D01*
X158638866Y-54134761D02*
X158591247Y-54039523D01*
X158591247Y-54039523D02*
X158543628Y-53991904D01*
X158543628Y-53991904D02*
X158448390Y-53944285D01*
X137009819Y-63356666D02*
X136533628Y-63689999D01*
X137009819Y-63928094D02*
X136009819Y-63928094D01*
X136009819Y-63928094D02*
X136009819Y-63547142D01*
X136009819Y-63547142D02*
X136057438Y-63451904D01*
X136057438Y-63451904D02*
X136105057Y-63404285D01*
X136105057Y-63404285D02*
X136200295Y-63356666D01*
X136200295Y-63356666D02*
X136343152Y-63356666D01*
X136343152Y-63356666D02*
X136438390Y-63404285D01*
X136438390Y-63404285D02*
X136486009Y-63451904D01*
X136486009Y-63451904D02*
X136533628Y-63547142D01*
X136533628Y-63547142D02*
X136533628Y-63928094D01*
X136009819Y-62451904D02*
X136009819Y-62928094D01*
X136009819Y-62928094D02*
X136486009Y-62975713D01*
X136486009Y-62975713D02*
X136438390Y-62928094D01*
X136438390Y-62928094D02*
X136390771Y-62832856D01*
X136390771Y-62832856D02*
X136390771Y-62594761D01*
X136390771Y-62594761D02*
X136438390Y-62499523D01*
X136438390Y-62499523D02*
X136486009Y-62451904D01*
X136486009Y-62451904D02*
X136581247Y-62404285D01*
X136581247Y-62404285D02*
X136819342Y-62404285D01*
X136819342Y-62404285D02*
X136914580Y-62451904D01*
X136914580Y-62451904D02*
X136962200Y-62499523D01*
X136962200Y-62499523D02*
X137009819Y-62594761D01*
X137009819Y-62594761D02*
X137009819Y-62832856D01*
X137009819Y-62832856D02*
X136962200Y-62928094D01*
X136962200Y-62928094D02*
X136914580Y-62975713D01*
X135079819Y-55468094D02*
X134079819Y-55468094D01*
X134079819Y-55468094D02*
X134079819Y-55229999D01*
X134079819Y-55229999D02*
X134127438Y-55087142D01*
X134127438Y-55087142D02*
X134222676Y-54991904D01*
X134222676Y-54991904D02*
X134317914Y-54944285D01*
X134317914Y-54944285D02*
X134508390Y-54896666D01*
X134508390Y-54896666D02*
X134651247Y-54896666D01*
X134651247Y-54896666D02*
X134841723Y-54944285D01*
X134841723Y-54944285D02*
X134936961Y-54991904D01*
X134936961Y-54991904D02*
X135032200Y-55087142D01*
X135032200Y-55087142D02*
X135079819Y-55229999D01*
X135079819Y-55229999D02*
X135079819Y-55468094D01*
X134079819Y-54563332D02*
X134079819Y-53944285D01*
X134079819Y-53944285D02*
X134460771Y-54277618D01*
X134460771Y-54277618D02*
X134460771Y-54134761D01*
X134460771Y-54134761D02*
X134508390Y-54039523D01*
X134508390Y-54039523D02*
X134556009Y-53991904D01*
X134556009Y-53991904D02*
X134651247Y-53944285D01*
X134651247Y-53944285D02*
X134889342Y-53944285D01*
X134889342Y-53944285D02*
X134984580Y-53991904D01*
X134984580Y-53991904D02*
X135032200Y-54039523D01*
X135032200Y-54039523D02*
X135079819Y-54134761D01*
X135079819Y-54134761D02*
X135079819Y-54420475D01*
X135079819Y-54420475D02*
X135032200Y-54515713D01*
X135032200Y-54515713D02*
X134984580Y-54563332D01*
X176909819Y-63832857D02*
X176433628Y-64166190D01*
X176909819Y-64404285D02*
X175909819Y-64404285D01*
X175909819Y-64404285D02*
X175909819Y-64023333D01*
X175909819Y-64023333D02*
X175957438Y-63928095D01*
X175957438Y-63928095D02*
X176005057Y-63880476D01*
X176005057Y-63880476D02*
X176100295Y-63832857D01*
X176100295Y-63832857D02*
X176243152Y-63832857D01*
X176243152Y-63832857D02*
X176338390Y-63880476D01*
X176338390Y-63880476D02*
X176386009Y-63928095D01*
X176386009Y-63928095D02*
X176433628Y-64023333D01*
X176433628Y-64023333D02*
X176433628Y-64404285D01*
X176909819Y-62880476D02*
X176909819Y-63451904D01*
X176909819Y-63166190D02*
X175909819Y-63166190D01*
X175909819Y-63166190D02*
X176052676Y-63261428D01*
X176052676Y-63261428D02*
X176147914Y-63356666D01*
X176147914Y-63356666D02*
X176195533Y-63451904D01*
X175909819Y-62023333D02*
X175909819Y-62213809D01*
X175909819Y-62213809D02*
X175957438Y-62309047D01*
X175957438Y-62309047D02*
X176005057Y-62356666D01*
X176005057Y-62356666D02*
X176147914Y-62451904D01*
X176147914Y-62451904D02*
X176338390Y-62499523D01*
X176338390Y-62499523D02*
X176719342Y-62499523D01*
X176719342Y-62499523D02*
X176814580Y-62451904D01*
X176814580Y-62451904D02*
X176862200Y-62404285D01*
X176862200Y-62404285D02*
X176909819Y-62309047D01*
X176909819Y-62309047D02*
X176909819Y-62118571D01*
X176909819Y-62118571D02*
X176862200Y-62023333D01*
X176862200Y-62023333D02*
X176814580Y-61975714D01*
X176814580Y-61975714D02*
X176719342Y-61928095D01*
X176719342Y-61928095D02*
X176481247Y-61928095D01*
X176481247Y-61928095D02*
X176386009Y-61975714D01*
X176386009Y-61975714D02*
X176338390Y-62023333D01*
X176338390Y-62023333D02*
X176290771Y-62118571D01*
X176290771Y-62118571D02*
X176290771Y-62309047D01*
X176290771Y-62309047D02*
X176338390Y-62404285D01*
X176338390Y-62404285D02*
X176386009Y-62451904D01*
X176386009Y-62451904D02*
X176481247Y-62499523D01*
X129029819Y-63356666D02*
X128553628Y-63689999D01*
X129029819Y-63928094D02*
X128029819Y-63928094D01*
X128029819Y-63928094D02*
X128029819Y-63547142D01*
X128029819Y-63547142D02*
X128077438Y-63451904D01*
X128077438Y-63451904D02*
X128125057Y-63404285D01*
X128125057Y-63404285D02*
X128220295Y-63356666D01*
X128220295Y-63356666D02*
X128363152Y-63356666D01*
X128363152Y-63356666D02*
X128458390Y-63404285D01*
X128458390Y-63404285D02*
X128506009Y-63451904D01*
X128506009Y-63451904D02*
X128553628Y-63547142D01*
X128553628Y-63547142D02*
X128553628Y-63928094D01*
X128029819Y-63023332D02*
X128029819Y-62404285D01*
X128029819Y-62404285D02*
X128410771Y-62737618D01*
X128410771Y-62737618D02*
X128410771Y-62594761D01*
X128410771Y-62594761D02*
X128458390Y-62499523D01*
X128458390Y-62499523D02*
X128506009Y-62451904D01*
X128506009Y-62451904D02*
X128601247Y-62404285D01*
X128601247Y-62404285D02*
X128839342Y-62404285D01*
X128839342Y-62404285D02*
X128934580Y-62451904D01*
X128934580Y-62451904D02*
X128982200Y-62499523D01*
X128982200Y-62499523D02*
X129029819Y-62594761D01*
X129029819Y-62594761D02*
X129029819Y-62880475D01*
X129029819Y-62880475D02*
X128982200Y-62975713D01*
X128982200Y-62975713D02*
X128934580Y-63023332D01*
X182959819Y-55944285D02*
X181959819Y-55944285D01*
X181959819Y-55944285D02*
X181959819Y-55706190D01*
X181959819Y-55706190D02*
X182007438Y-55563333D01*
X182007438Y-55563333D02*
X182102676Y-55468095D01*
X182102676Y-55468095D02*
X182197914Y-55420476D01*
X182197914Y-55420476D02*
X182388390Y-55372857D01*
X182388390Y-55372857D02*
X182531247Y-55372857D01*
X182531247Y-55372857D02*
X182721723Y-55420476D01*
X182721723Y-55420476D02*
X182816961Y-55468095D01*
X182816961Y-55468095D02*
X182912200Y-55563333D01*
X182912200Y-55563333D02*
X182959819Y-55706190D01*
X182959819Y-55706190D02*
X182959819Y-55944285D01*
X182959819Y-54420476D02*
X182959819Y-54991904D01*
X182959819Y-54706190D02*
X181959819Y-54706190D01*
X181959819Y-54706190D02*
X182102676Y-54801428D01*
X182102676Y-54801428D02*
X182197914Y-54896666D01*
X182197914Y-54896666D02*
X182245533Y-54991904D01*
X181959819Y-53515714D02*
X181959819Y-53991904D01*
X181959819Y-53991904D02*
X182436009Y-54039523D01*
X182436009Y-54039523D02*
X182388390Y-53991904D01*
X182388390Y-53991904D02*
X182340771Y-53896666D01*
X182340771Y-53896666D02*
X182340771Y-53658571D01*
X182340771Y-53658571D02*
X182388390Y-53563333D01*
X182388390Y-53563333D02*
X182436009Y-53515714D01*
X182436009Y-53515714D02*
X182531247Y-53468095D01*
X182531247Y-53468095D02*
X182769342Y-53468095D01*
X182769342Y-53468095D02*
X182864580Y-53515714D01*
X182864580Y-53515714D02*
X182912200Y-53563333D01*
X182912200Y-53563333D02*
X182959819Y-53658571D01*
X182959819Y-53658571D02*
X182959819Y-53896666D01*
X182959819Y-53896666D02*
X182912200Y-53991904D01*
X182912200Y-53991904D02*
X182864580Y-54039523D01*
X160949819Y-63832857D02*
X160473628Y-64166190D01*
X160949819Y-64404285D02*
X159949819Y-64404285D01*
X159949819Y-64404285D02*
X159949819Y-64023333D01*
X159949819Y-64023333D02*
X159997438Y-63928095D01*
X159997438Y-63928095D02*
X160045057Y-63880476D01*
X160045057Y-63880476D02*
X160140295Y-63832857D01*
X160140295Y-63832857D02*
X160283152Y-63832857D01*
X160283152Y-63832857D02*
X160378390Y-63880476D01*
X160378390Y-63880476D02*
X160426009Y-63928095D01*
X160426009Y-63928095D02*
X160473628Y-64023333D01*
X160473628Y-64023333D02*
X160473628Y-64404285D01*
X160949819Y-62880476D02*
X160949819Y-63451904D01*
X160949819Y-63166190D02*
X159949819Y-63166190D01*
X159949819Y-63166190D02*
X160092676Y-63261428D01*
X160092676Y-63261428D02*
X160187914Y-63356666D01*
X160187914Y-63356666D02*
X160235533Y-63451904D01*
X160045057Y-62499523D02*
X159997438Y-62451904D01*
X159997438Y-62451904D02*
X159949819Y-62356666D01*
X159949819Y-62356666D02*
X159949819Y-62118571D01*
X159949819Y-62118571D02*
X159997438Y-62023333D01*
X159997438Y-62023333D02*
X160045057Y-61975714D01*
X160045057Y-61975714D02*
X160140295Y-61928095D01*
X160140295Y-61928095D02*
X160235533Y-61928095D01*
X160235533Y-61928095D02*
X160378390Y-61975714D01*
X160378390Y-61975714D02*
X160949819Y-62547142D01*
X160949819Y-62547142D02*
X160949819Y-61928095D01*
X139069819Y-55468094D02*
X138069819Y-55468094D01*
X138069819Y-55468094D02*
X138069819Y-55229999D01*
X138069819Y-55229999D02*
X138117438Y-55087142D01*
X138117438Y-55087142D02*
X138212676Y-54991904D01*
X138212676Y-54991904D02*
X138307914Y-54944285D01*
X138307914Y-54944285D02*
X138498390Y-54896666D01*
X138498390Y-54896666D02*
X138641247Y-54896666D01*
X138641247Y-54896666D02*
X138831723Y-54944285D01*
X138831723Y-54944285D02*
X138926961Y-54991904D01*
X138926961Y-54991904D02*
X139022200Y-55087142D01*
X139022200Y-55087142D02*
X139069819Y-55229999D01*
X139069819Y-55229999D02*
X139069819Y-55468094D01*
X138403152Y-54039523D02*
X139069819Y-54039523D01*
X138022200Y-54277618D02*
X138736485Y-54515713D01*
X138736485Y-54515713D02*
X138736485Y-53896666D01*
X147049819Y-55468094D02*
X146049819Y-55468094D01*
X146049819Y-55468094D02*
X146049819Y-55229999D01*
X146049819Y-55229999D02*
X146097438Y-55087142D01*
X146097438Y-55087142D02*
X146192676Y-54991904D01*
X146192676Y-54991904D02*
X146287914Y-54944285D01*
X146287914Y-54944285D02*
X146478390Y-54896666D01*
X146478390Y-54896666D02*
X146621247Y-54896666D01*
X146621247Y-54896666D02*
X146811723Y-54944285D01*
X146811723Y-54944285D02*
X146906961Y-54991904D01*
X146906961Y-54991904D02*
X147002200Y-55087142D01*
X147002200Y-55087142D02*
X147049819Y-55229999D01*
X147049819Y-55229999D02*
X147049819Y-55468094D01*
X146049819Y-54039523D02*
X146049819Y-54229999D01*
X146049819Y-54229999D02*
X146097438Y-54325237D01*
X146097438Y-54325237D02*
X146145057Y-54372856D01*
X146145057Y-54372856D02*
X146287914Y-54468094D01*
X146287914Y-54468094D02*
X146478390Y-54515713D01*
X146478390Y-54515713D02*
X146859342Y-54515713D01*
X146859342Y-54515713D02*
X146954580Y-54468094D01*
X146954580Y-54468094D02*
X147002200Y-54420475D01*
X147002200Y-54420475D02*
X147049819Y-54325237D01*
X147049819Y-54325237D02*
X147049819Y-54134761D01*
X147049819Y-54134761D02*
X147002200Y-54039523D01*
X147002200Y-54039523D02*
X146954580Y-53991904D01*
X146954580Y-53991904D02*
X146859342Y-53944285D01*
X146859342Y-53944285D02*
X146621247Y-53944285D01*
X146621247Y-53944285D02*
X146526009Y-53991904D01*
X146526009Y-53991904D02*
X146478390Y-54039523D01*
X146478390Y-54039523D02*
X146430771Y-54134761D01*
X146430771Y-54134761D02*
X146430771Y-54325237D01*
X146430771Y-54325237D02*
X146478390Y-54420475D01*
X146478390Y-54420475D02*
X146526009Y-54468094D01*
X146526009Y-54468094D02*
X146621247Y-54515713D01*
X156959819Y-63832857D02*
X156483628Y-64166190D01*
X156959819Y-64404285D02*
X155959819Y-64404285D01*
X155959819Y-64404285D02*
X155959819Y-64023333D01*
X155959819Y-64023333D02*
X156007438Y-63928095D01*
X156007438Y-63928095D02*
X156055057Y-63880476D01*
X156055057Y-63880476D02*
X156150295Y-63832857D01*
X156150295Y-63832857D02*
X156293152Y-63832857D01*
X156293152Y-63832857D02*
X156388390Y-63880476D01*
X156388390Y-63880476D02*
X156436009Y-63928095D01*
X156436009Y-63928095D02*
X156483628Y-64023333D01*
X156483628Y-64023333D02*
X156483628Y-64404285D01*
X156959819Y-62880476D02*
X156959819Y-63451904D01*
X156959819Y-63166190D02*
X155959819Y-63166190D01*
X155959819Y-63166190D02*
X156102676Y-63261428D01*
X156102676Y-63261428D02*
X156197914Y-63356666D01*
X156197914Y-63356666D02*
X156245533Y-63451904D01*
X155959819Y-62261428D02*
X155959819Y-62166190D01*
X155959819Y-62166190D02*
X156007438Y-62070952D01*
X156007438Y-62070952D02*
X156055057Y-62023333D01*
X156055057Y-62023333D02*
X156150295Y-61975714D01*
X156150295Y-61975714D02*
X156340771Y-61928095D01*
X156340771Y-61928095D02*
X156578866Y-61928095D01*
X156578866Y-61928095D02*
X156769342Y-61975714D01*
X156769342Y-61975714D02*
X156864580Y-62023333D01*
X156864580Y-62023333D02*
X156912200Y-62070952D01*
X156912200Y-62070952D02*
X156959819Y-62166190D01*
X156959819Y-62166190D02*
X156959819Y-62261428D01*
X156959819Y-62261428D02*
X156912200Y-62356666D01*
X156912200Y-62356666D02*
X156864580Y-62404285D01*
X156864580Y-62404285D02*
X156769342Y-62451904D01*
X156769342Y-62451904D02*
X156578866Y-62499523D01*
X156578866Y-62499523D02*
X156340771Y-62499523D01*
X156340771Y-62499523D02*
X156150295Y-62451904D01*
X156150295Y-62451904D02*
X156055057Y-62404285D01*
X156055057Y-62404285D02*
X156007438Y-62356666D01*
X156007438Y-62356666D02*
X155959819Y-62261428D01*
D11*
X152119047Y-138843409D02*
X152261904Y-138891028D01*
X152261904Y-138891028D02*
X152309523Y-138938647D01*
X152309523Y-138938647D02*
X152357142Y-139033885D01*
X152357142Y-139033885D02*
X152357142Y-139176742D01*
X152357142Y-139176742D02*
X152309523Y-139271980D01*
X152309523Y-139271980D02*
X152261904Y-139319600D01*
X152261904Y-139319600D02*
X152166666Y-139367219D01*
X152166666Y-139367219D02*
X151785714Y-139367219D01*
X151785714Y-139367219D02*
X151785714Y-138367219D01*
X151785714Y-138367219D02*
X152119047Y-138367219D01*
X152119047Y-138367219D02*
X152214285Y-138414838D01*
X152214285Y-138414838D02*
X152261904Y-138462457D01*
X152261904Y-138462457D02*
X152309523Y-138557695D01*
X152309523Y-138557695D02*
X152309523Y-138652933D01*
X152309523Y-138652933D02*
X152261904Y-138748171D01*
X152261904Y-138748171D02*
X152214285Y-138795790D01*
X152214285Y-138795790D02*
X152119047Y-138843409D01*
X152119047Y-138843409D02*
X151785714Y-138843409D01*
X152785714Y-138367219D02*
X152785714Y-139176742D01*
X152785714Y-139176742D02*
X152833333Y-139271980D01*
X152833333Y-139271980D02*
X152880952Y-139319600D01*
X152880952Y-139319600D02*
X152976190Y-139367219D01*
X152976190Y-139367219D02*
X153166666Y-139367219D01*
X153166666Y-139367219D02*
X153261904Y-139319600D01*
X153261904Y-139319600D02*
X153309523Y-139271980D01*
X153309523Y-139271980D02*
X153357142Y-139176742D01*
X153357142Y-139176742D02*
X153357142Y-138367219D01*
X153785714Y-139319600D02*
X153928571Y-139367219D01*
X153928571Y-139367219D02*
X154166666Y-139367219D01*
X154166666Y-139367219D02*
X154261904Y-139319600D01*
X154261904Y-139319600D02*
X154309523Y-139271980D01*
X154309523Y-139271980D02*
X154357142Y-139176742D01*
X154357142Y-139176742D02*
X154357142Y-139081504D01*
X154357142Y-139081504D02*
X154309523Y-138986266D01*
X154309523Y-138986266D02*
X154261904Y-138938647D01*
X154261904Y-138938647D02*
X154166666Y-138891028D01*
X154166666Y-138891028D02*
X153976190Y-138843409D01*
X153976190Y-138843409D02*
X153880952Y-138795790D01*
X153880952Y-138795790D02*
X153833333Y-138748171D01*
X153833333Y-138748171D02*
X153785714Y-138652933D01*
X153785714Y-138652933D02*
X153785714Y-138557695D01*
X153785714Y-138557695D02*
X153833333Y-138462457D01*
X153833333Y-138462457D02*
X153880952Y-138414838D01*
X153880952Y-138414838D02*
X153976190Y-138367219D01*
X153976190Y-138367219D02*
X154214285Y-138367219D01*
X154214285Y-138367219D02*
X154357142Y-138414838D01*
X155738095Y-138367219D02*
X155833333Y-138367219D01*
X155833333Y-138367219D02*
X155928571Y-138414838D01*
X155928571Y-138414838D02*
X155976190Y-138462457D01*
X155976190Y-138462457D02*
X156023809Y-138557695D01*
X156023809Y-138557695D02*
X156071428Y-138748171D01*
X156071428Y-138748171D02*
X156071428Y-138986266D01*
X156071428Y-138986266D02*
X156023809Y-139176742D01*
X156023809Y-139176742D02*
X155976190Y-139271980D01*
X155976190Y-139271980D02*
X155928571Y-139319600D01*
X155928571Y-139319600D02*
X155833333Y-139367219D01*
X155833333Y-139367219D02*
X155738095Y-139367219D01*
X155738095Y-139367219D02*
X155642857Y-139319600D01*
X155642857Y-139319600D02*
X155595238Y-139271980D01*
X155595238Y-139271980D02*
X155547619Y-139176742D01*
X155547619Y-139176742D02*
X155500000Y-138986266D01*
X155500000Y-138986266D02*
X155500000Y-138748171D01*
X155500000Y-138748171D02*
X155547619Y-138557695D01*
X155547619Y-138557695D02*
X155595238Y-138462457D01*
X155595238Y-138462457D02*
X155642857Y-138414838D01*
X155642857Y-138414838D02*
X155738095Y-138367219D01*
X156500000Y-138986266D02*
X157261905Y-138986266D01*
X157642857Y-138367219D02*
X158309523Y-138367219D01*
X158309523Y-138367219D02*
X157880952Y-139367219D01*
D13*
X164939819Y-63832857D02*
X164463628Y-64166190D01*
X164939819Y-64404285D02*
X163939819Y-64404285D01*
X163939819Y-64404285D02*
X163939819Y-64023333D01*
X163939819Y-64023333D02*
X163987438Y-63928095D01*
X163987438Y-63928095D02*
X164035057Y-63880476D01*
X164035057Y-63880476D02*
X164130295Y-63832857D01*
X164130295Y-63832857D02*
X164273152Y-63832857D01*
X164273152Y-63832857D02*
X164368390Y-63880476D01*
X164368390Y-63880476D02*
X164416009Y-63928095D01*
X164416009Y-63928095D02*
X164463628Y-64023333D01*
X164463628Y-64023333D02*
X164463628Y-64404285D01*
X164939819Y-62880476D02*
X164939819Y-63451904D01*
X164939819Y-63166190D02*
X163939819Y-63166190D01*
X163939819Y-63166190D02*
X164082676Y-63261428D01*
X164082676Y-63261428D02*
X164177914Y-63356666D01*
X164177914Y-63356666D02*
X164225533Y-63451904D01*
X163939819Y-62547142D02*
X163939819Y-61928095D01*
X163939819Y-61928095D02*
X164320771Y-62261428D01*
X164320771Y-62261428D02*
X164320771Y-62118571D01*
X164320771Y-62118571D02*
X164368390Y-62023333D01*
X164368390Y-62023333D02*
X164416009Y-61975714D01*
X164416009Y-61975714D02*
X164511247Y-61928095D01*
X164511247Y-61928095D02*
X164749342Y-61928095D01*
X164749342Y-61928095D02*
X164844580Y-61975714D01*
X164844580Y-61975714D02*
X164892200Y-62023333D01*
X164892200Y-62023333D02*
X164939819Y-62118571D01*
X164939819Y-62118571D02*
X164939819Y-62404285D01*
X164939819Y-62404285D02*
X164892200Y-62499523D01*
X164892200Y-62499523D02*
X164844580Y-62547142D01*
X105959580Y-119916666D02*
X106007200Y-119964285D01*
X106007200Y-119964285D02*
X106054819Y-120107142D01*
X106054819Y-120107142D02*
X106054819Y-120202380D01*
X106054819Y-120202380D02*
X106007200Y-120345237D01*
X106007200Y-120345237D02*
X105911961Y-120440475D01*
X105911961Y-120440475D02*
X105816723Y-120488094D01*
X105816723Y-120488094D02*
X105626247Y-120535713D01*
X105626247Y-120535713D02*
X105483390Y-120535713D01*
X105483390Y-120535713D02*
X105292914Y-120488094D01*
X105292914Y-120488094D02*
X105197676Y-120440475D01*
X105197676Y-120440475D02*
X105102438Y-120345237D01*
X105102438Y-120345237D02*
X105054819Y-120202380D01*
X105054819Y-120202380D02*
X105054819Y-120107142D01*
X105054819Y-120107142D02*
X105102438Y-119964285D01*
X105102438Y-119964285D02*
X105150057Y-119916666D01*
X105054819Y-119059523D02*
X105054819Y-119249999D01*
X105054819Y-119249999D02*
X105102438Y-119345237D01*
X105102438Y-119345237D02*
X105150057Y-119392856D01*
X105150057Y-119392856D02*
X105292914Y-119488094D01*
X105292914Y-119488094D02*
X105483390Y-119535713D01*
X105483390Y-119535713D02*
X105864342Y-119535713D01*
X105864342Y-119535713D02*
X105959580Y-119488094D01*
X105959580Y-119488094D02*
X106007200Y-119440475D01*
X106007200Y-119440475D02*
X106054819Y-119345237D01*
X106054819Y-119345237D02*
X106054819Y-119154761D01*
X106054819Y-119154761D02*
X106007200Y-119059523D01*
X106007200Y-119059523D02*
X105959580Y-119011904D01*
X105959580Y-119011904D02*
X105864342Y-118964285D01*
X105864342Y-118964285D02*
X105626247Y-118964285D01*
X105626247Y-118964285D02*
X105531009Y-119011904D01*
X105531009Y-119011904D02*
X105483390Y-119059523D01*
X105483390Y-119059523D02*
X105435771Y-119154761D01*
X105435771Y-119154761D02*
X105435771Y-119345237D01*
X105435771Y-119345237D02*
X105483390Y-119440475D01*
X105483390Y-119440475D02*
X105531009Y-119488094D01*
X105531009Y-119488094D02*
X105626247Y-119535713D01*
X151039819Y-55468094D02*
X150039819Y-55468094D01*
X150039819Y-55468094D02*
X150039819Y-55229999D01*
X150039819Y-55229999D02*
X150087438Y-55087142D01*
X150087438Y-55087142D02*
X150182676Y-54991904D01*
X150182676Y-54991904D02*
X150277914Y-54944285D01*
X150277914Y-54944285D02*
X150468390Y-54896666D01*
X150468390Y-54896666D02*
X150611247Y-54896666D01*
X150611247Y-54896666D02*
X150801723Y-54944285D01*
X150801723Y-54944285D02*
X150896961Y-54991904D01*
X150896961Y-54991904D02*
X150992200Y-55087142D01*
X150992200Y-55087142D02*
X151039819Y-55229999D01*
X151039819Y-55229999D02*
X151039819Y-55468094D01*
X150039819Y-54563332D02*
X150039819Y-53896666D01*
X150039819Y-53896666D02*
X151039819Y-54325237D01*
X186949819Y-55944285D02*
X185949819Y-55944285D01*
X185949819Y-55944285D02*
X185949819Y-55706190D01*
X185949819Y-55706190D02*
X185997438Y-55563333D01*
X185997438Y-55563333D02*
X186092676Y-55468095D01*
X186092676Y-55468095D02*
X186187914Y-55420476D01*
X186187914Y-55420476D02*
X186378390Y-55372857D01*
X186378390Y-55372857D02*
X186521247Y-55372857D01*
X186521247Y-55372857D02*
X186711723Y-55420476D01*
X186711723Y-55420476D02*
X186806961Y-55468095D01*
X186806961Y-55468095D02*
X186902200Y-55563333D01*
X186902200Y-55563333D02*
X186949819Y-55706190D01*
X186949819Y-55706190D02*
X186949819Y-55944285D01*
X186949819Y-54420476D02*
X186949819Y-54991904D01*
X186949819Y-54706190D02*
X185949819Y-54706190D01*
X185949819Y-54706190D02*
X186092676Y-54801428D01*
X186092676Y-54801428D02*
X186187914Y-54896666D01*
X186187914Y-54896666D02*
X186235533Y-54991904D01*
X185949819Y-53563333D02*
X185949819Y-53753809D01*
X185949819Y-53753809D02*
X185997438Y-53849047D01*
X185997438Y-53849047D02*
X186045057Y-53896666D01*
X186045057Y-53896666D02*
X186187914Y-53991904D01*
X186187914Y-53991904D02*
X186378390Y-54039523D01*
X186378390Y-54039523D02*
X186759342Y-54039523D01*
X186759342Y-54039523D02*
X186854580Y-53991904D01*
X186854580Y-53991904D02*
X186902200Y-53944285D01*
X186902200Y-53944285D02*
X186949819Y-53849047D01*
X186949819Y-53849047D02*
X186949819Y-53658571D01*
X186949819Y-53658571D02*
X186902200Y-53563333D01*
X186902200Y-53563333D02*
X186854580Y-53515714D01*
X186854580Y-53515714D02*
X186759342Y-53468095D01*
X186759342Y-53468095D02*
X186521247Y-53468095D01*
X186521247Y-53468095D02*
X186426009Y-53515714D01*
X186426009Y-53515714D02*
X186378390Y-53563333D01*
X186378390Y-53563333D02*
X186330771Y-53658571D01*
X186330771Y-53658571D02*
X186330771Y-53849047D01*
X186330771Y-53849047D02*
X186378390Y-53944285D01*
X186378390Y-53944285D02*
X186426009Y-53991904D01*
X186426009Y-53991904D02*
X186521247Y-54039523D01*
X172919819Y-63832857D02*
X172443628Y-64166190D01*
X172919819Y-64404285D02*
X171919819Y-64404285D01*
X171919819Y-64404285D02*
X171919819Y-64023333D01*
X171919819Y-64023333D02*
X171967438Y-63928095D01*
X171967438Y-63928095D02*
X172015057Y-63880476D01*
X172015057Y-63880476D02*
X172110295Y-63832857D01*
X172110295Y-63832857D02*
X172253152Y-63832857D01*
X172253152Y-63832857D02*
X172348390Y-63880476D01*
X172348390Y-63880476D02*
X172396009Y-63928095D01*
X172396009Y-63928095D02*
X172443628Y-64023333D01*
X172443628Y-64023333D02*
X172443628Y-64404285D01*
X172919819Y-62880476D02*
X172919819Y-63451904D01*
X172919819Y-63166190D02*
X171919819Y-63166190D01*
X171919819Y-63166190D02*
X172062676Y-63261428D01*
X172062676Y-63261428D02*
X172157914Y-63356666D01*
X172157914Y-63356666D02*
X172205533Y-63451904D01*
X171919819Y-61975714D02*
X171919819Y-62451904D01*
X171919819Y-62451904D02*
X172396009Y-62499523D01*
X172396009Y-62499523D02*
X172348390Y-62451904D01*
X172348390Y-62451904D02*
X172300771Y-62356666D01*
X172300771Y-62356666D02*
X172300771Y-62118571D01*
X172300771Y-62118571D02*
X172348390Y-62023333D01*
X172348390Y-62023333D02*
X172396009Y-61975714D01*
X172396009Y-61975714D02*
X172491247Y-61928095D01*
X172491247Y-61928095D02*
X172729342Y-61928095D01*
X172729342Y-61928095D02*
X172824580Y-61975714D01*
X172824580Y-61975714D02*
X172872200Y-62023333D01*
X172872200Y-62023333D02*
X172919819Y-62118571D01*
X172919819Y-62118571D02*
X172919819Y-62356666D01*
X172919819Y-62356666D02*
X172872200Y-62451904D01*
X172872200Y-62451904D02*
X172824580Y-62499523D01*
X155029819Y-55468094D02*
X154029819Y-55468094D01*
X154029819Y-55468094D02*
X154029819Y-55229999D01*
X154029819Y-55229999D02*
X154077438Y-55087142D01*
X154077438Y-55087142D02*
X154172676Y-54991904D01*
X154172676Y-54991904D02*
X154267914Y-54944285D01*
X154267914Y-54944285D02*
X154458390Y-54896666D01*
X154458390Y-54896666D02*
X154601247Y-54896666D01*
X154601247Y-54896666D02*
X154791723Y-54944285D01*
X154791723Y-54944285D02*
X154886961Y-54991904D01*
X154886961Y-54991904D02*
X154982200Y-55087142D01*
X154982200Y-55087142D02*
X155029819Y-55229999D01*
X155029819Y-55229999D02*
X155029819Y-55468094D01*
X154458390Y-54325237D02*
X154410771Y-54420475D01*
X154410771Y-54420475D02*
X154363152Y-54468094D01*
X154363152Y-54468094D02*
X154267914Y-54515713D01*
X154267914Y-54515713D02*
X154220295Y-54515713D01*
X154220295Y-54515713D02*
X154125057Y-54468094D01*
X154125057Y-54468094D02*
X154077438Y-54420475D01*
X154077438Y-54420475D02*
X154029819Y-54325237D01*
X154029819Y-54325237D02*
X154029819Y-54134761D01*
X154029819Y-54134761D02*
X154077438Y-54039523D01*
X154077438Y-54039523D02*
X154125057Y-53991904D01*
X154125057Y-53991904D02*
X154220295Y-53944285D01*
X154220295Y-53944285D02*
X154267914Y-53944285D01*
X154267914Y-53944285D02*
X154363152Y-53991904D01*
X154363152Y-53991904D02*
X154410771Y-54039523D01*
X154410771Y-54039523D02*
X154458390Y-54134761D01*
X154458390Y-54134761D02*
X154458390Y-54325237D01*
X154458390Y-54325237D02*
X154506009Y-54420475D01*
X154506009Y-54420475D02*
X154553628Y-54468094D01*
X154553628Y-54468094D02*
X154648866Y-54515713D01*
X154648866Y-54515713D02*
X154839342Y-54515713D01*
X154839342Y-54515713D02*
X154934580Y-54468094D01*
X154934580Y-54468094D02*
X154982200Y-54420475D01*
X154982200Y-54420475D02*
X155029819Y-54325237D01*
X155029819Y-54325237D02*
X155029819Y-54134761D01*
X155029819Y-54134761D02*
X154982200Y-54039523D01*
X154982200Y-54039523D02*
X154934580Y-53991904D01*
X154934580Y-53991904D02*
X154839342Y-53944285D01*
X154839342Y-53944285D02*
X154648866Y-53944285D01*
X154648866Y-53944285D02*
X154553628Y-53991904D01*
X154553628Y-53991904D02*
X154506009Y-54039523D01*
X154506009Y-54039523D02*
X154458390Y-54134761D01*
X168603333Y-72904580D02*
X168555714Y-72952200D01*
X168555714Y-72952200D02*
X168412857Y-72999819D01*
X168412857Y-72999819D02*
X168317619Y-72999819D01*
X168317619Y-72999819D02*
X168174762Y-72952200D01*
X168174762Y-72952200D02*
X168079524Y-72856961D01*
X168079524Y-72856961D02*
X168031905Y-72761723D01*
X168031905Y-72761723D02*
X167984286Y-72571247D01*
X167984286Y-72571247D02*
X167984286Y-72428390D01*
X167984286Y-72428390D02*
X168031905Y-72237914D01*
X168031905Y-72237914D02*
X168079524Y-72142676D01*
X168079524Y-72142676D02*
X168174762Y-72047438D01*
X168174762Y-72047438D02*
X168317619Y-71999819D01*
X168317619Y-71999819D02*
X168412857Y-71999819D01*
X168412857Y-71999819D02*
X168555714Y-72047438D01*
X168555714Y-72047438D02*
X168603333Y-72095057D01*
X168936667Y-71999819D02*
X169555714Y-71999819D01*
X169555714Y-71999819D02*
X169222381Y-72380771D01*
X169222381Y-72380771D02*
X169365238Y-72380771D01*
X169365238Y-72380771D02*
X169460476Y-72428390D01*
X169460476Y-72428390D02*
X169508095Y-72476009D01*
X169508095Y-72476009D02*
X169555714Y-72571247D01*
X169555714Y-72571247D02*
X169555714Y-72809342D01*
X169555714Y-72809342D02*
X169508095Y-72904580D01*
X169508095Y-72904580D02*
X169460476Y-72952200D01*
X169460476Y-72952200D02*
X169365238Y-72999819D01*
X169365238Y-72999819D02*
X169079524Y-72999819D01*
X169079524Y-72999819D02*
X168984286Y-72952200D01*
X168984286Y-72952200D02*
X168936667Y-72904580D01*
X168929819Y-63832857D02*
X168453628Y-64166190D01*
X168929819Y-64404285D02*
X167929819Y-64404285D01*
X167929819Y-64404285D02*
X167929819Y-64023333D01*
X167929819Y-64023333D02*
X167977438Y-63928095D01*
X167977438Y-63928095D02*
X168025057Y-63880476D01*
X168025057Y-63880476D02*
X168120295Y-63832857D01*
X168120295Y-63832857D02*
X168263152Y-63832857D01*
X168263152Y-63832857D02*
X168358390Y-63880476D01*
X168358390Y-63880476D02*
X168406009Y-63928095D01*
X168406009Y-63928095D02*
X168453628Y-64023333D01*
X168453628Y-64023333D02*
X168453628Y-64404285D01*
X168929819Y-62880476D02*
X168929819Y-63451904D01*
X168929819Y-63166190D02*
X167929819Y-63166190D01*
X167929819Y-63166190D02*
X168072676Y-63261428D01*
X168072676Y-63261428D02*
X168167914Y-63356666D01*
X168167914Y-63356666D02*
X168215533Y-63451904D01*
X168263152Y-62023333D02*
X168929819Y-62023333D01*
X167882200Y-62261428D02*
X168596485Y-62499523D01*
X168596485Y-62499523D02*
X168596485Y-61880476D01*
X178969819Y-55944285D02*
X177969819Y-55944285D01*
X177969819Y-55944285D02*
X177969819Y-55706190D01*
X177969819Y-55706190D02*
X178017438Y-55563333D01*
X178017438Y-55563333D02*
X178112676Y-55468095D01*
X178112676Y-55468095D02*
X178207914Y-55420476D01*
X178207914Y-55420476D02*
X178398390Y-55372857D01*
X178398390Y-55372857D02*
X178541247Y-55372857D01*
X178541247Y-55372857D02*
X178731723Y-55420476D01*
X178731723Y-55420476D02*
X178826961Y-55468095D01*
X178826961Y-55468095D02*
X178922200Y-55563333D01*
X178922200Y-55563333D02*
X178969819Y-55706190D01*
X178969819Y-55706190D02*
X178969819Y-55944285D01*
X178969819Y-54420476D02*
X178969819Y-54991904D01*
X178969819Y-54706190D02*
X177969819Y-54706190D01*
X177969819Y-54706190D02*
X178112676Y-54801428D01*
X178112676Y-54801428D02*
X178207914Y-54896666D01*
X178207914Y-54896666D02*
X178255533Y-54991904D01*
X178303152Y-53563333D02*
X178969819Y-53563333D01*
X177922200Y-53801428D02*
X178636485Y-54039523D01*
X178636485Y-54039523D02*
X178636485Y-53420476D01*
X131089819Y-55468094D02*
X130089819Y-55468094D01*
X130089819Y-55468094D02*
X130089819Y-55229999D01*
X130089819Y-55229999D02*
X130137438Y-55087142D01*
X130137438Y-55087142D02*
X130232676Y-54991904D01*
X130232676Y-54991904D02*
X130327914Y-54944285D01*
X130327914Y-54944285D02*
X130518390Y-54896666D01*
X130518390Y-54896666D02*
X130661247Y-54896666D01*
X130661247Y-54896666D02*
X130851723Y-54944285D01*
X130851723Y-54944285D02*
X130946961Y-54991904D01*
X130946961Y-54991904D02*
X131042200Y-55087142D01*
X131042200Y-55087142D02*
X131089819Y-55229999D01*
X131089819Y-55229999D02*
X131089819Y-55468094D01*
X130185057Y-54515713D02*
X130137438Y-54468094D01*
X130137438Y-54468094D02*
X130089819Y-54372856D01*
X130089819Y-54372856D02*
X130089819Y-54134761D01*
X130089819Y-54134761D02*
X130137438Y-54039523D01*
X130137438Y-54039523D02*
X130185057Y-53991904D01*
X130185057Y-53991904D02*
X130280295Y-53944285D01*
X130280295Y-53944285D02*
X130375533Y-53944285D01*
X130375533Y-53944285D02*
X130518390Y-53991904D01*
X130518390Y-53991904D02*
X131089819Y-54563332D01*
X131089819Y-54563332D02*
X131089819Y-53944285D01*
X184889819Y-63827857D02*
X184413628Y-64161190D01*
X184889819Y-64399285D02*
X183889819Y-64399285D01*
X183889819Y-64399285D02*
X183889819Y-64018333D01*
X183889819Y-64018333D02*
X183937438Y-63923095D01*
X183937438Y-63923095D02*
X183985057Y-63875476D01*
X183985057Y-63875476D02*
X184080295Y-63827857D01*
X184080295Y-63827857D02*
X184223152Y-63827857D01*
X184223152Y-63827857D02*
X184318390Y-63875476D01*
X184318390Y-63875476D02*
X184366009Y-63923095D01*
X184366009Y-63923095D02*
X184413628Y-64018333D01*
X184413628Y-64018333D02*
X184413628Y-64399285D01*
X184889819Y-62875476D02*
X184889819Y-63446904D01*
X184889819Y-63161190D02*
X183889819Y-63161190D01*
X183889819Y-63161190D02*
X184032676Y-63256428D01*
X184032676Y-63256428D02*
X184127914Y-63351666D01*
X184127914Y-63351666D02*
X184175533Y-63446904D01*
X184318390Y-62304047D02*
X184270771Y-62399285D01*
X184270771Y-62399285D02*
X184223152Y-62446904D01*
X184223152Y-62446904D02*
X184127914Y-62494523D01*
X184127914Y-62494523D02*
X184080295Y-62494523D01*
X184080295Y-62494523D02*
X183985057Y-62446904D01*
X183985057Y-62446904D02*
X183937438Y-62399285D01*
X183937438Y-62399285D02*
X183889819Y-62304047D01*
X183889819Y-62304047D02*
X183889819Y-62113571D01*
X183889819Y-62113571D02*
X183937438Y-62018333D01*
X183937438Y-62018333D02*
X183985057Y-61970714D01*
X183985057Y-61970714D02*
X184080295Y-61923095D01*
X184080295Y-61923095D02*
X184127914Y-61923095D01*
X184127914Y-61923095D02*
X184223152Y-61970714D01*
X184223152Y-61970714D02*
X184270771Y-62018333D01*
X184270771Y-62018333D02*
X184318390Y-62113571D01*
X184318390Y-62113571D02*
X184318390Y-62304047D01*
X184318390Y-62304047D02*
X184366009Y-62399285D01*
X184366009Y-62399285D02*
X184413628Y-62446904D01*
X184413628Y-62446904D02*
X184508866Y-62494523D01*
X184508866Y-62494523D02*
X184699342Y-62494523D01*
X184699342Y-62494523D02*
X184794580Y-62446904D01*
X184794580Y-62446904D02*
X184842200Y-62399285D01*
X184842200Y-62399285D02*
X184889819Y-62304047D01*
X184889819Y-62304047D02*
X184889819Y-62113571D01*
X184889819Y-62113571D02*
X184842200Y-62018333D01*
X184842200Y-62018333D02*
X184794580Y-61970714D01*
X184794580Y-61970714D02*
X184699342Y-61923095D01*
X184699342Y-61923095D02*
X184508866Y-61923095D01*
X184508866Y-61923095D02*
X184413628Y-61970714D01*
X184413628Y-61970714D02*
X184366009Y-62018333D01*
X184366009Y-62018333D02*
X184318390Y-62113571D01*
X121333333Y-109809580D02*
X121285714Y-109857200D01*
X121285714Y-109857200D02*
X121142857Y-109904819D01*
X121142857Y-109904819D02*
X121047619Y-109904819D01*
X121047619Y-109904819D02*
X120904762Y-109857200D01*
X120904762Y-109857200D02*
X120809524Y-109761961D01*
X120809524Y-109761961D02*
X120761905Y-109666723D01*
X120761905Y-109666723D02*
X120714286Y-109476247D01*
X120714286Y-109476247D02*
X120714286Y-109333390D01*
X120714286Y-109333390D02*
X120761905Y-109142914D01*
X120761905Y-109142914D02*
X120809524Y-109047676D01*
X120809524Y-109047676D02*
X120904762Y-108952438D01*
X120904762Y-108952438D02*
X121047619Y-108904819D01*
X121047619Y-108904819D02*
X121142857Y-108904819D01*
X121142857Y-108904819D02*
X121285714Y-108952438D01*
X121285714Y-108952438D02*
X121333333Y-109000057D01*
X122238095Y-108904819D02*
X121761905Y-108904819D01*
X121761905Y-108904819D02*
X121714286Y-109381009D01*
X121714286Y-109381009D02*
X121761905Y-109333390D01*
X121761905Y-109333390D02*
X121857143Y-109285771D01*
X121857143Y-109285771D02*
X122095238Y-109285771D01*
X122095238Y-109285771D02*
X122190476Y-109333390D01*
X122190476Y-109333390D02*
X122238095Y-109381009D01*
X122238095Y-109381009D02*
X122285714Y-109476247D01*
X122285714Y-109476247D02*
X122285714Y-109714342D01*
X122285714Y-109714342D02*
X122238095Y-109809580D01*
X122238095Y-109809580D02*
X122190476Y-109857200D01*
X122190476Y-109857200D02*
X122095238Y-109904819D01*
X122095238Y-109904819D02*
X121857143Y-109904819D01*
X121857143Y-109904819D02*
X121761905Y-109857200D01*
X121761905Y-109857200D02*
X121714286Y-109809580D01*
X143059819Y-55468094D02*
X142059819Y-55468094D01*
X142059819Y-55468094D02*
X142059819Y-55229999D01*
X142059819Y-55229999D02*
X142107438Y-55087142D01*
X142107438Y-55087142D02*
X142202676Y-54991904D01*
X142202676Y-54991904D02*
X142297914Y-54944285D01*
X142297914Y-54944285D02*
X142488390Y-54896666D01*
X142488390Y-54896666D02*
X142631247Y-54896666D01*
X142631247Y-54896666D02*
X142821723Y-54944285D01*
X142821723Y-54944285D02*
X142916961Y-54991904D01*
X142916961Y-54991904D02*
X143012200Y-55087142D01*
X143012200Y-55087142D02*
X143059819Y-55229999D01*
X143059819Y-55229999D02*
X143059819Y-55468094D01*
X142059819Y-53991904D02*
X142059819Y-54468094D01*
X142059819Y-54468094D02*
X142536009Y-54515713D01*
X142536009Y-54515713D02*
X142488390Y-54468094D01*
X142488390Y-54468094D02*
X142440771Y-54372856D01*
X142440771Y-54372856D02*
X142440771Y-54134761D01*
X142440771Y-54134761D02*
X142488390Y-54039523D01*
X142488390Y-54039523D02*
X142536009Y-53991904D01*
X142536009Y-53991904D02*
X142631247Y-53944285D01*
X142631247Y-53944285D02*
X142869342Y-53944285D01*
X142869342Y-53944285D02*
X142964580Y-53991904D01*
X142964580Y-53991904D02*
X143012200Y-54039523D01*
X143012200Y-54039523D02*
X143059819Y-54134761D01*
X143059819Y-54134761D02*
X143059819Y-54372856D01*
X143059819Y-54372856D02*
X143012200Y-54468094D01*
X143012200Y-54468094D02*
X142964580Y-54515713D01*
X163009819Y-55944285D02*
X162009819Y-55944285D01*
X162009819Y-55944285D02*
X162009819Y-55706190D01*
X162009819Y-55706190D02*
X162057438Y-55563333D01*
X162057438Y-55563333D02*
X162152676Y-55468095D01*
X162152676Y-55468095D02*
X162247914Y-55420476D01*
X162247914Y-55420476D02*
X162438390Y-55372857D01*
X162438390Y-55372857D02*
X162581247Y-55372857D01*
X162581247Y-55372857D02*
X162771723Y-55420476D01*
X162771723Y-55420476D02*
X162866961Y-55468095D01*
X162866961Y-55468095D02*
X162962200Y-55563333D01*
X162962200Y-55563333D02*
X163009819Y-55706190D01*
X163009819Y-55706190D02*
X163009819Y-55944285D01*
X163009819Y-54420476D02*
X163009819Y-54991904D01*
X163009819Y-54706190D02*
X162009819Y-54706190D01*
X162009819Y-54706190D02*
X162152676Y-54801428D01*
X162152676Y-54801428D02*
X162247914Y-54896666D01*
X162247914Y-54896666D02*
X162295533Y-54991904D01*
X162009819Y-53801428D02*
X162009819Y-53706190D01*
X162009819Y-53706190D02*
X162057438Y-53610952D01*
X162057438Y-53610952D02*
X162105057Y-53563333D01*
X162105057Y-53563333D02*
X162200295Y-53515714D01*
X162200295Y-53515714D02*
X162390771Y-53468095D01*
X162390771Y-53468095D02*
X162628866Y-53468095D01*
X162628866Y-53468095D02*
X162819342Y-53515714D01*
X162819342Y-53515714D02*
X162914580Y-53563333D01*
X162914580Y-53563333D02*
X162962200Y-53610952D01*
X162962200Y-53610952D02*
X163009819Y-53706190D01*
X163009819Y-53706190D02*
X163009819Y-53801428D01*
X163009819Y-53801428D02*
X162962200Y-53896666D01*
X162962200Y-53896666D02*
X162914580Y-53944285D01*
X162914580Y-53944285D02*
X162819342Y-53991904D01*
X162819342Y-53991904D02*
X162628866Y-54039523D01*
X162628866Y-54039523D02*
X162390771Y-54039523D01*
X162390771Y-54039523D02*
X162200295Y-53991904D01*
X162200295Y-53991904D02*
X162105057Y-53944285D01*
X162105057Y-53944285D02*
X162057438Y-53896666D01*
X162057438Y-53896666D02*
X162009819Y-53801428D01*
X152969819Y-63356666D02*
X152493628Y-63689999D01*
X152969819Y-63928094D02*
X151969819Y-63928094D01*
X151969819Y-63928094D02*
X151969819Y-63547142D01*
X151969819Y-63547142D02*
X152017438Y-63451904D01*
X152017438Y-63451904D02*
X152065057Y-63404285D01*
X152065057Y-63404285D02*
X152160295Y-63356666D01*
X152160295Y-63356666D02*
X152303152Y-63356666D01*
X152303152Y-63356666D02*
X152398390Y-63404285D01*
X152398390Y-63404285D02*
X152446009Y-63451904D01*
X152446009Y-63451904D02*
X152493628Y-63547142D01*
X152493628Y-63547142D02*
X152493628Y-63928094D01*
X152969819Y-62880475D02*
X152969819Y-62689999D01*
X152969819Y-62689999D02*
X152922200Y-62594761D01*
X152922200Y-62594761D02*
X152874580Y-62547142D01*
X152874580Y-62547142D02*
X152731723Y-62451904D01*
X152731723Y-62451904D02*
X152541247Y-62404285D01*
X152541247Y-62404285D02*
X152160295Y-62404285D01*
X152160295Y-62404285D02*
X152065057Y-62451904D01*
X152065057Y-62451904D02*
X152017438Y-62499523D01*
X152017438Y-62499523D02*
X151969819Y-62594761D01*
X151969819Y-62594761D02*
X151969819Y-62785237D01*
X151969819Y-62785237D02*
X152017438Y-62880475D01*
X152017438Y-62880475D02*
X152065057Y-62928094D01*
X152065057Y-62928094D02*
X152160295Y-62975713D01*
X152160295Y-62975713D02*
X152398390Y-62975713D01*
X152398390Y-62975713D02*
X152493628Y-62928094D01*
X152493628Y-62928094D02*
X152541247Y-62880475D01*
X152541247Y-62880475D02*
X152588866Y-62785237D01*
X152588866Y-62785237D02*
X152588866Y-62594761D01*
X152588866Y-62594761D02*
X152541247Y-62499523D01*
X152541247Y-62499523D02*
X152493628Y-62451904D01*
X152493628Y-62451904D02*
X152398390Y-62404285D01*
X170989819Y-55944285D02*
X169989819Y-55944285D01*
X169989819Y-55944285D02*
X169989819Y-55706190D01*
X169989819Y-55706190D02*
X170037438Y-55563333D01*
X170037438Y-55563333D02*
X170132676Y-55468095D01*
X170132676Y-55468095D02*
X170227914Y-55420476D01*
X170227914Y-55420476D02*
X170418390Y-55372857D01*
X170418390Y-55372857D02*
X170561247Y-55372857D01*
X170561247Y-55372857D02*
X170751723Y-55420476D01*
X170751723Y-55420476D02*
X170846961Y-55468095D01*
X170846961Y-55468095D02*
X170942200Y-55563333D01*
X170942200Y-55563333D02*
X170989819Y-55706190D01*
X170989819Y-55706190D02*
X170989819Y-55944285D01*
X170989819Y-54420476D02*
X170989819Y-54991904D01*
X170989819Y-54706190D02*
X169989819Y-54706190D01*
X169989819Y-54706190D02*
X170132676Y-54801428D01*
X170132676Y-54801428D02*
X170227914Y-54896666D01*
X170227914Y-54896666D02*
X170275533Y-54991904D01*
X170085057Y-54039523D02*
X170037438Y-53991904D01*
X170037438Y-53991904D02*
X169989819Y-53896666D01*
X169989819Y-53896666D02*
X169989819Y-53658571D01*
X169989819Y-53658571D02*
X170037438Y-53563333D01*
X170037438Y-53563333D02*
X170085057Y-53515714D01*
X170085057Y-53515714D02*
X170180295Y-53468095D01*
X170180295Y-53468095D02*
X170275533Y-53468095D01*
X170275533Y-53468095D02*
X170418390Y-53515714D01*
X170418390Y-53515714D02*
X170989819Y-54087142D01*
X170989819Y-54087142D02*
X170989819Y-53468095D01*
X180899819Y-63832857D02*
X180423628Y-64166190D01*
X180899819Y-64404285D02*
X179899819Y-64404285D01*
X179899819Y-64404285D02*
X179899819Y-64023333D01*
X179899819Y-64023333D02*
X179947438Y-63928095D01*
X179947438Y-63928095D02*
X179995057Y-63880476D01*
X179995057Y-63880476D02*
X180090295Y-63832857D01*
X180090295Y-63832857D02*
X180233152Y-63832857D01*
X180233152Y-63832857D02*
X180328390Y-63880476D01*
X180328390Y-63880476D02*
X180376009Y-63928095D01*
X180376009Y-63928095D02*
X180423628Y-64023333D01*
X180423628Y-64023333D02*
X180423628Y-64404285D01*
X180899819Y-62880476D02*
X180899819Y-63451904D01*
X180899819Y-63166190D02*
X179899819Y-63166190D01*
X179899819Y-63166190D02*
X180042676Y-63261428D01*
X180042676Y-63261428D02*
X180137914Y-63356666D01*
X180137914Y-63356666D02*
X180185533Y-63451904D01*
X179899819Y-62547142D02*
X179899819Y-61880476D01*
X179899819Y-61880476D02*
X180899819Y-62309047D01*
X125039819Y-63356666D02*
X124563628Y-63689999D01*
X125039819Y-63928094D02*
X124039819Y-63928094D01*
X124039819Y-63928094D02*
X124039819Y-63547142D01*
X124039819Y-63547142D02*
X124087438Y-63451904D01*
X124087438Y-63451904D02*
X124135057Y-63404285D01*
X124135057Y-63404285D02*
X124230295Y-63356666D01*
X124230295Y-63356666D02*
X124373152Y-63356666D01*
X124373152Y-63356666D02*
X124468390Y-63404285D01*
X124468390Y-63404285D02*
X124516009Y-63451904D01*
X124516009Y-63451904D02*
X124563628Y-63547142D01*
X124563628Y-63547142D02*
X124563628Y-63928094D01*
X124135057Y-62975713D02*
X124087438Y-62928094D01*
X124087438Y-62928094D02*
X124039819Y-62832856D01*
X124039819Y-62832856D02*
X124039819Y-62594761D01*
X124039819Y-62594761D02*
X124087438Y-62499523D01*
X124087438Y-62499523D02*
X124135057Y-62451904D01*
X124135057Y-62451904D02*
X124230295Y-62404285D01*
X124230295Y-62404285D02*
X124325533Y-62404285D01*
X124325533Y-62404285D02*
X124468390Y-62451904D01*
X124468390Y-62451904D02*
X125039819Y-63023332D01*
X125039819Y-63023332D02*
X125039819Y-62404285D01*
X133019819Y-63356666D02*
X132543628Y-63689999D01*
X133019819Y-63928094D02*
X132019819Y-63928094D01*
X132019819Y-63928094D02*
X132019819Y-63547142D01*
X132019819Y-63547142D02*
X132067438Y-63451904D01*
X132067438Y-63451904D02*
X132115057Y-63404285D01*
X132115057Y-63404285D02*
X132210295Y-63356666D01*
X132210295Y-63356666D02*
X132353152Y-63356666D01*
X132353152Y-63356666D02*
X132448390Y-63404285D01*
X132448390Y-63404285D02*
X132496009Y-63451904D01*
X132496009Y-63451904D02*
X132543628Y-63547142D01*
X132543628Y-63547142D02*
X132543628Y-63928094D01*
X132353152Y-62499523D02*
X133019819Y-62499523D01*
X131972200Y-62737618D02*
X132686485Y-62975713D01*
X132686485Y-62975713D02*
X132686485Y-62356666D01*
X163523333Y-109909580D02*
X163475714Y-109957200D01*
X163475714Y-109957200D02*
X163332857Y-110004819D01*
X163332857Y-110004819D02*
X163237619Y-110004819D01*
X163237619Y-110004819D02*
X163094762Y-109957200D01*
X163094762Y-109957200D02*
X162999524Y-109861961D01*
X162999524Y-109861961D02*
X162951905Y-109766723D01*
X162951905Y-109766723D02*
X162904286Y-109576247D01*
X162904286Y-109576247D02*
X162904286Y-109433390D01*
X162904286Y-109433390D02*
X162951905Y-109242914D01*
X162951905Y-109242914D02*
X162999524Y-109147676D01*
X162999524Y-109147676D02*
X163094762Y-109052438D01*
X163094762Y-109052438D02*
X163237619Y-109004819D01*
X163237619Y-109004819D02*
X163332857Y-109004819D01*
X163332857Y-109004819D02*
X163475714Y-109052438D01*
X163475714Y-109052438D02*
X163523333Y-109100057D01*
X163856667Y-109004819D02*
X164523333Y-109004819D01*
X164523333Y-109004819D02*
X164094762Y-110004819D01*
D14*
%TO.C,J9*%
X180670000Y-83420000D02*
X182000000Y-83420000D01*
X180670000Y-84750000D02*
X180670000Y-83420000D01*
X180670000Y-86020000D02*
X180670000Y-93700000D01*
X180670000Y-86020000D02*
X183330000Y-86020000D01*
X180670000Y-93700000D02*
X183330000Y-93700000D01*
X183330000Y-86020000D02*
X183330000Y-93700000D01*
%TO.C,J8*%
X154670000Y-83370000D02*
X156000000Y-83370000D01*
X154670000Y-84700000D02*
X154670000Y-83370000D01*
X154670000Y-85970000D02*
X154670000Y-93650000D01*
X154670000Y-85970000D02*
X157330000Y-85970000D01*
X154670000Y-93650000D02*
X157330000Y-93650000D01*
X157330000Y-85970000D02*
X157330000Y-93650000D01*
%TO.C,J7*%
X133170000Y-83370000D02*
X134500000Y-83370000D01*
X133170000Y-84700000D02*
X133170000Y-83370000D01*
X133170000Y-85970000D02*
X133170000Y-93650000D01*
X133170000Y-85970000D02*
X135830000Y-85970000D01*
X133170000Y-93650000D02*
X135830000Y-93650000D01*
X135830000Y-85970000D02*
X135830000Y-93650000D01*
%TO.C,J6*%
X112670000Y-83425000D02*
X114000000Y-83425000D01*
X112670000Y-84755000D02*
X112670000Y-83425000D01*
X112670000Y-86025000D02*
X112670000Y-93705000D01*
X112670000Y-86025000D02*
X115330000Y-86025000D01*
X112670000Y-93705000D02*
X115330000Y-93705000D01*
X115330000Y-86025000D02*
X115330000Y-93705000D01*
%TO.C,U6*%
X161050000Y-124240000D02*
X186690000Y-124240000D01*
X186690000Y-124240000D02*
X186690000Y-113740000D01*
X161110000Y-121240000D02*
X186630000Y-121240000D01*
X186630000Y-121240000D02*
X186630000Y-116740000D01*
X161110000Y-119990000D02*
X161110000Y-121240000D01*
X161110000Y-116740000D02*
X161110000Y-117990000D01*
X186630000Y-116740000D02*
X161110000Y-116740000D01*
X161050000Y-113740000D02*
X161050000Y-124240000D01*
X186690000Y-113740000D02*
X161050000Y-113740000D01*
X161110000Y-117990000D02*
G75*
G02*
X161110000Y-119990000I0J-1000000D01*
G01*
%TO.C,U5*%
X190530000Y-78340000D02*
G75*
G02*
X188530000Y-78340000I-1000000J0D01*
G01*
X194780000Y-98840000D02*
X194780000Y-78280000D01*
X194780000Y-78280000D02*
X184280000Y-78280000D01*
X191780000Y-98780000D02*
X191780000Y-78340000D01*
X191780000Y-78340000D02*
X190530000Y-78340000D01*
X188530000Y-78340000D02*
X187280000Y-78340000D01*
X187280000Y-98780000D02*
X191780000Y-98780000D01*
X187280000Y-78340000D02*
X187280000Y-98780000D01*
X184280000Y-98840000D02*
X194780000Y-98840000D01*
X184280000Y-78280000D02*
X184280000Y-98840000D01*
%TO.C,U4*%
X158460000Y-78230000D02*
X158460000Y-98790000D01*
X158460000Y-98790000D02*
X168960000Y-98790000D01*
X161460000Y-78290000D02*
X161460000Y-98730000D01*
X161460000Y-98730000D02*
X165960000Y-98730000D01*
X162710000Y-78290000D02*
X161460000Y-78290000D01*
X165960000Y-78290000D02*
X164710000Y-78290000D01*
X165960000Y-98730000D02*
X165960000Y-78290000D01*
X168960000Y-78230000D02*
X158460000Y-78230000D01*
X168960000Y-98790000D02*
X168960000Y-78230000D01*
X164710000Y-78290000D02*
G75*
G02*
X162710000Y-78290000I-1000000J0D01*
G01*
%TO.C,U3*%
X118935000Y-124240000D02*
X144575000Y-124240000D01*
X144575000Y-124240000D02*
X144575000Y-113740000D01*
X118995000Y-121240000D02*
X144515000Y-121240000D01*
X144515000Y-121240000D02*
X144515000Y-116740000D01*
X118995000Y-119990000D02*
X118995000Y-121240000D01*
X118995000Y-116740000D02*
X118995000Y-117990000D01*
X144515000Y-116740000D02*
X118995000Y-116740000D01*
X118935000Y-113740000D02*
X118935000Y-124240000D01*
X144575000Y-113740000D02*
X118935000Y-113740000D01*
X118995000Y-117990000D02*
G75*
G02*
X118995000Y-119990000I0J-1000000D01*
G01*
%TO.C,U2*%
X136665000Y-78230000D02*
X136665000Y-98790000D01*
X136665000Y-98790000D02*
X147165000Y-98790000D01*
X139665000Y-78290000D02*
X139665000Y-98730000D01*
X139665000Y-98730000D02*
X144165000Y-98730000D01*
X140915000Y-78290000D02*
X139665000Y-78290000D01*
X144165000Y-78290000D02*
X142915000Y-78290000D01*
X144165000Y-98730000D02*
X144165000Y-78290000D01*
X147165000Y-78230000D02*
X136665000Y-78230000D01*
X147165000Y-98790000D02*
X147165000Y-78230000D01*
X142915000Y-78290000D02*
G75*
G02*
X140915000Y-78290000I-1000000J0D01*
G01*
%TO.C,U1*%
X116345000Y-78285000D02*
X116345000Y-98845000D01*
X116345000Y-98845000D02*
X126845000Y-98845000D01*
X119345000Y-78345000D02*
X119345000Y-98785000D01*
X119345000Y-98785000D02*
X123845000Y-98785000D01*
X120595000Y-78345000D02*
X119345000Y-78345000D01*
X123845000Y-78345000D02*
X122595000Y-78345000D01*
X123845000Y-98785000D02*
X123845000Y-78345000D01*
X126845000Y-78285000D02*
X116345000Y-78285000D01*
X126845000Y-98845000D02*
X126845000Y-78285000D01*
X122595000Y-78345000D02*
G75*
G02*
X120595000Y-78345000I-1000000J0D01*
G01*
%TO.C,SW1*%
X114985000Y-51950000D02*
X112685000Y-51950000D01*
X121285000Y-51950000D02*
X119085000Y-51950000D01*
X121285000Y-56550000D02*
X112685000Y-56550000D01*
%TO.C,D13*%
X173525000Y-54540000D02*
X173525000Y-55271000D01*
X171405000Y-54540000D02*
X171405000Y-55271000D01*
%TO.C,R8*%
X149445000Y-65110000D02*
X149445000Y-61270000D01*
X149445000Y-61270000D02*
X147605000Y-61270000D01*
X148525000Y-66060000D02*
X148525000Y-65110000D01*
X148525000Y-60320000D02*
X148525000Y-61270000D01*
X147605000Y-65110000D02*
X149445000Y-65110000D01*
X147605000Y-61270000D02*
X147605000Y-65110000D01*
%TO.C,R6*%
X141465000Y-65110000D02*
X141465000Y-61270000D01*
X141465000Y-61270000D02*
X139625000Y-61270000D01*
X140545000Y-66060000D02*
X140545000Y-65110000D01*
X140545000Y-60320000D02*
X140545000Y-61270000D01*
X139625000Y-65110000D02*
X141465000Y-65110000D01*
X139625000Y-61270000D02*
X139625000Y-65110000D01*
%TO.C,C4*%
X192570000Y-73725000D02*
X192570000Y-74350000D01*
X192570000Y-73725000D02*
X196610000Y-73725000D01*
X192570000Y-75940000D02*
X192570000Y-76565000D01*
X192570000Y-76565000D02*
X196610000Y-76565000D01*
X196610000Y-73725000D02*
X196610000Y-74350000D01*
X196610000Y-75940000D02*
X196610000Y-76565000D01*
%TO.C,J2*%
X120190000Y-138140000D02*
X121610000Y-138140000D01*
X120190000Y-149860000D02*
X120190000Y-138140000D01*
X121610000Y-138140000D02*
X121610000Y-142640000D01*
X121610000Y-142640000D02*
X124000000Y-142640000D01*
X122450000Y-138450000D02*
X123050000Y-138450000D01*
X122500000Y-143750000D02*
X122500000Y-149250000D01*
X122500000Y-149250000D02*
X123000000Y-149250000D01*
X122750000Y-139050000D02*
X122450000Y-138450000D01*
X123000000Y-143750000D02*
X122500000Y-143750000D01*
X123000000Y-149250000D02*
X123000000Y-143750000D01*
X123050000Y-138450000D02*
X122750000Y-139050000D01*
X124000000Y-149860000D02*
X120190000Y-149860000D01*
X124000000Y-149860000D02*
X127810000Y-149860000D01*
X125000000Y-143750000D02*
X125000000Y-149250000D01*
X125000000Y-149250000D02*
X125500000Y-149250000D01*
X125500000Y-143750000D02*
X125000000Y-143750000D01*
X125500000Y-149250000D02*
X125500000Y-143750000D01*
X126390000Y-138140000D02*
X126390000Y-142640000D01*
X126390000Y-142640000D02*
X124000000Y-142640000D01*
X127810000Y-138140000D02*
X126390000Y-138140000D01*
X127810000Y-149860000D02*
X127810000Y-138140000D01*
%TO.C,D11*%
X165545000Y-54540000D02*
X165545000Y-55271000D01*
X163425000Y-54540000D02*
X163425000Y-55271000D01*
%TO.C,C1*%
X124635000Y-73725000D02*
X124635000Y-74350000D01*
X124635000Y-73725000D02*
X128675000Y-73725000D01*
X124635000Y-75940000D02*
X124635000Y-76565000D01*
X124635000Y-76565000D02*
X128675000Y-76565000D01*
X128675000Y-73725000D02*
X128675000Y-74350000D01*
X128675000Y-75940000D02*
X128675000Y-76565000D01*
%TO.C,R7*%
X145455000Y-65110000D02*
X145455000Y-61270000D01*
X145455000Y-61270000D02*
X143615000Y-61270000D01*
X144535000Y-66060000D02*
X144535000Y-65110000D01*
X144535000Y-60320000D02*
X144535000Y-61270000D01*
X143615000Y-65110000D02*
X145455000Y-65110000D01*
X143615000Y-61270000D02*
X143615000Y-65110000D01*
%TO.C,D1*%
X125645000Y-54540000D02*
X125645000Y-55271000D01*
X123525000Y-54540000D02*
X123525000Y-55271000D01*
%TO.C,J5*%
X167940000Y-137990000D02*
X169360000Y-137990000D01*
X167940000Y-149710000D02*
X167940000Y-137990000D01*
X169360000Y-137990000D02*
X169360000Y-142490000D01*
X170200000Y-139900000D02*
X170800000Y-139900000D01*
X170250000Y-143600000D02*
X170250000Y-149100000D01*
X170250000Y-149100000D02*
X170750000Y-149100000D01*
X170500000Y-140500000D02*
X170200000Y-139900000D01*
X170750000Y-143600000D02*
X170250000Y-143600000D01*
X170750000Y-149100000D02*
X170750000Y-143600000D01*
X170800000Y-139900000D02*
X170500000Y-140500000D01*
X172750000Y-143600000D02*
X172750000Y-149100000D01*
X172750000Y-149100000D02*
X173250000Y-149100000D01*
X173250000Y-143600000D02*
X172750000Y-143600000D01*
X173250000Y-149100000D02*
X173250000Y-143600000D01*
X175250000Y-143600000D02*
X175250000Y-149100000D01*
X175250000Y-149100000D02*
X175750000Y-149100000D01*
X175750000Y-143600000D02*
X175250000Y-143600000D01*
X175750000Y-149100000D02*
X175750000Y-143600000D01*
X177750000Y-143600000D02*
X177750000Y-149100000D01*
X177750000Y-149100000D02*
X178250000Y-149100000D01*
X178250000Y-143600000D02*
X177750000Y-143600000D01*
X178250000Y-149100000D02*
X178250000Y-143600000D01*
X179250000Y-149710000D02*
X167940000Y-149710000D01*
X179250000Y-149710000D02*
X190560000Y-149710000D01*
X180250000Y-143600000D02*
X180250000Y-149100000D01*
X180250000Y-149100000D02*
X180750000Y-149100000D01*
X180750000Y-143600000D02*
X180250000Y-143600000D01*
X180750000Y-149100000D02*
X180750000Y-143600000D01*
X182750000Y-143600000D02*
X182750000Y-149100000D01*
X182750000Y-149100000D02*
X183250000Y-149100000D01*
X183250000Y-143600000D02*
X182750000Y-143600000D01*
X183250000Y-149100000D02*
X183250000Y-143600000D01*
X185250000Y-143600000D02*
X185250000Y-149100000D01*
X185250000Y-149100000D02*
X185750000Y-149100000D01*
X185750000Y-143600000D02*
X185250000Y-143600000D01*
X185750000Y-149100000D02*
X185750000Y-143600000D01*
X187750000Y-143600000D02*
X187750000Y-149100000D01*
X187750000Y-149100000D02*
X188250000Y-149100000D01*
X188250000Y-143600000D02*
X187750000Y-143600000D01*
X188250000Y-149100000D02*
X188250000Y-143600000D01*
X189140000Y-137990000D02*
X189140000Y-142490000D01*
X190560000Y-137990000D02*
X189140000Y-137990000D01*
X190560000Y-149710000D02*
X190560000Y-137990000D01*
%TO.C,C2*%
X144955000Y-73670000D02*
X144955000Y-74295000D01*
X144955000Y-73670000D02*
X148995000Y-73670000D01*
X144955000Y-75885000D02*
X144955000Y-76510000D01*
X144955000Y-76510000D02*
X148995000Y-76510000D01*
X148995000Y-73670000D02*
X148995000Y-74295000D01*
X148995000Y-75885000D02*
X148995000Y-76510000D01*
%TO.C,D9*%
X157565000Y-54540000D02*
X157565000Y-55271000D01*
X155445000Y-54540000D02*
X155445000Y-55271000D01*
%TO.C,R5*%
X137475000Y-65110000D02*
X137475000Y-61270000D01*
X137475000Y-61270000D02*
X135635000Y-61270000D01*
X136555000Y-66060000D02*
X136555000Y-65110000D01*
X136555000Y-60320000D02*
X136555000Y-61270000D01*
X135635000Y-65110000D02*
X137475000Y-65110000D01*
X135635000Y-61270000D02*
X135635000Y-65110000D01*
%TO.C,D3*%
X133625000Y-54540000D02*
X133625000Y-55271000D01*
X131505000Y-54540000D02*
X131505000Y-55271000D01*
%TO.C,R16*%
X177375000Y-65110000D02*
X177375000Y-61270000D01*
X177375000Y-61270000D02*
X175535000Y-61270000D01*
X176455000Y-66060000D02*
X176455000Y-65110000D01*
X176455000Y-60320000D02*
X176455000Y-61270000D01*
X175535000Y-65110000D02*
X177375000Y-65110000D01*
X175535000Y-61270000D02*
X175535000Y-65110000D01*
%TO.C,R3*%
X129495000Y-65110000D02*
X129495000Y-61270000D01*
X129495000Y-61270000D02*
X127655000Y-61270000D01*
X128575000Y-66060000D02*
X128575000Y-65110000D01*
X128575000Y-60320000D02*
X128575000Y-61270000D01*
X127655000Y-65110000D02*
X129495000Y-65110000D01*
X127655000Y-61270000D02*
X127655000Y-65110000D01*
%TO.C,D15*%
X181505000Y-54540000D02*
X181505000Y-55271000D01*
X179385000Y-54540000D02*
X179385000Y-55271000D01*
%TO.C,J1*%
X109190000Y-138140000D02*
X110610000Y-138140000D01*
X109190000Y-149860000D02*
X109190000Y-138140000D01*
X110610000Y-138140000D02*
X110610000Y-142640000D01*
X110610000Y-142640000D02*
X113000000Y-142640000D01*
X111450000Y-138450000D02*
X112050000Y-138450000D01*
X111500000Y-143750000D02*
X111500000Y-149250000D01*
X111500000Y-149250000D02*
X112000000Y-149250000D01*
X111750000Y-139050000D02*
X111450000Y-138450000D01*
X112000000Y-143750000D02*
X111500000Y-143750000D01*
X112000000Y-149250000D02*
X112000000Y-143750000D01*
X112050000Y-138450000D02*
X111750000Y-139050000D01*
X113000000Y-149860000D02*
X109190000Y-149860000D01*
X113000000Y-149860000D02*
X116810000Y-149860000D01*
X114000000Y-143750000D02*
X114000000Y-149250000D01*
X114000000Y-149250000D02*
X114500000Y-149250000D01*
X114500000Y-143750000D02*
X114000000Y-143750000D01*
X114500000Y-149250000D02*
X114500000Y-143750000D01*
X115390000Y-138140000D02*
X115390000Y-142640000D01*
X115390000Y-142640000D02*
X113000000Y-142640000D01*
X116810000Y-138140000D02*
X115390000Y-138140000D01*
X116810000Y-149860000D02*
X116810000Y-138140000D01*
%TO.C,R12*%
X161415000Y-65110000D02*
X161415000Y-61270000D01*
X161415000Y-61270000D02*
X159575000Y-61270000D01*
X160495000Y-66060000D02*
X160495000Y-65110000D01*
X160495000Y-60320000D02*
X160495000Y-61270000D01*
X159575000Y-65110000D02*
X161415000Y-65110000D01*
X159575000Y-61270000D02*
X159575000Y-65110000D01*
%TO.C,D4*%
X137615000Y-54540000D02*
X137615000Y-55271000D01*
X135495000Y-54540000D02*
X135495000Y-55271000D01*
%TO.C,D6*%
X145595000Y-54540000D02*
X145595000Y-55271000D01*
X143475000Y-54540000D02*
X143475000Y-55271000D01*
%TO.C,R10*%
X157425000Y-65110000D02*
X157425000Y-61270000D01*
X157425000Y-61270000D02*
X155585000Y-61270000D01*
X156505000Y-66060000D02*
X156505000Y-65110000D01*
X156505000Y-60320000D02*
X156505000Y-61270000D01*
X155585000Y-65110000D02*
X157425000Y-65110000D01*
X155585000Y-61270000D02*
X155585000Y-65110000D01*
%TO.C,J4*%
X143690000Y-137990000D02*
X145110000Y-137990000D01*
X143690000Y-149710000D02*
X143690000Y-137990000D01*
X145110000Y-137990000D02*
X145110000Y-142490000D01*
X145950000Y-139900000D02*
X146550000Y-139900000D01*
X146000000Y-143600000D02*
X146000000Y-149100000D01*
X146000000Y-149100000D02*
X146500000Y-149100000D01*
X146250000Y-140500000D02*
X145950000Y-139900000D01*
X146500000Y-143600000D02*
X146000000Y-143600000D01*
X146500000Y-149100000D02*
X146500000Y-143600000D01*
X146550000Y-139900000D02*
X146250000Y-140500000D01*
X148500000Y-143600000D02*
X148500000Y-149100000D01*
X148500000Y-149100000D02*
X149000000Y-149100000D01*
X149000000Y-143600000D02*
X148500000Y-143600000D01*
X149000000Y-149100000D02*
X149000000Y-143600000D01*
X151000000Y-143600000D02*
X151000000Y-149100000D01*
X151000000Y-149100000D02*
X151500000Y-149100000D01*
X151500000Y-143600000D02*
X151000000Y-143600000D01*
X151500000Y-149100000D02*
X151500000Y-143600000D01*
X153500000Y-143600000D02*
X153500000Y-149100000D01*
X153500000Y-149100000D02*
X154000000Y-149100000D01*
X154000000Y-143600000D02*
X153500000Y-143600000D01*
X154000000Y-149100000D02*
X154000000Y-143600000D01*
X155000000Y-149710000D02*
X143690000Y-149710000D01*
X155000000Y-149710000D02*
X166310000Y-149710000D01*
X156000000Y-143600000D02*
X156000000Y-149100000D01*
X156000000Y-149100000D02*
X156500000Y-149100000D01*
X156500000Y-143600000D02*
X156000000Y-143600000D01*
X156500000Y-149100000D02*
X156500000Y-143600000D01*
X158500000Y-143600000D02*
X158500000Y-149100000D01*
X158500000Y-149100000D02*
X159000000Y-149100000D01*
X159000000Y-143600000D02*
X158500000Y-143600000D01*
X159000000Y-149100000D02*
X159000000Y-143600000D01*
X161000000Y-143600000D02*
X161000000Y-149100000D01*
X161000000Y-149100000D02*
X161500000Y-149100000D01*
X161500000Y-143600000D02*
X161000000Y-143600000D01*
X161500000Y-149100000D02*
X161500000Y-143600000D01*
X163500000Y-143600000D02*
X163500000Y-149100000D01*
X163500000Y-149100000D02*
X164000000Y-149100000D01*
X164000000Y-143600000D02*
X163500000Y-143600000D01*
X164000000Y-149100000D02*
X164000000Y-143600000D01*
X164890000Y-137990000D02*
X164890000Y-142490000D01*
X166310000Y-137990000D02*
X164890000Y-137990000D01*
X166310000Y-149710000D02*
X166310000Y-137990000D01*
%TO.C,R13*%
X165405000Y-65110000D02*
X165405000Y-61270000D01*
X165405000Y-61270000D02*
X163565000Y-61270000D01*
X164485000Y-66060000D02*
X164485000Y-65110000D01*
X164485000Y-60320000D02*
X164485000Y-61270000D01*
X163565000Y-65110000D02*
X165405000Y-65110000D01*
X163565000Y-61270000D02*
X163565000Y-65110000D01*
%TO.C,C6*%
X113270000Y-119750000D02*
G75*
G02*
X106730000Y-119750000I-3270000J0D01*
G01*
X106730000Y-119750000D02*
G75*
G02*
X113270000Y-119750000I3270000J0D01*
G01*
%TO.C,D7*%
X149585000Y-54540000D02*
X149585000Y-55271000D01*
X147465000Y-54540000D02*
X147465000Y-55271000D01*
%TO.C,D16*%
X185495000Y-54540000D02*
X185495000Y-55271000D01*
X183375000Y-54540000D02*
X183375000Y-55271000D01*
%TO.C,R15*%
X173385000Y-65110000D02*
X173385000Y-61270000D01*
X173385000Y-61270000D02*
X171545000Y-61270000D01*
X172465000Y-66060000D02*
X172465000Y-65110000D01*
X172465000Y-60320000D02*
X172465000Y-61270000D01*
X171545000Y-65110000D02*
X173385000Y-65110000D01*
X171545000Y-61270000D02*
X171545000Y-65110000D01*
%TO.C,D8*%
X153575000Y-54540000D02*
X153575000Y-55271000D01*
X151455000Y-54540000D02*
X151455000Y-55271000D01*
%TO.C,C3*%
X166750000Y-73675000D02*
X166750000Y-74300000D01*
X166750000Y-73675000D02*
X170790000Y-73675000D01*
X166750000Y-75890000D02*
X166750000Y-76515000D01*
X166750000Y-76515000D02*
X170790000Y-76515000D01*
X170790000Y-73675000D02*
X170790000Y-74300000D01*
X170790000Y-75890000D02*
X170790000Y-76515000D01*
%TO.C,R14*%
X169395000Y-65110000D02*
X169395000Y-61270000D01*
X169395000Y-61270000D02*
X167555000Y-61270000D01*
X168475000Y-66060000D02*
X168475000Y-65110000D01*
X168475000Y-60320000D02*
X168475000Y-61270000D01*
X167555000Y-65110000D02*
X169395000Y-65110000D01*
X167555000Y-61270000D02*
X167555000Y-65110000D01*
%TO.C,J3*%
X131190000Y-138140000D02*
X132610000Y-138140000D01*
X131190000Y-149860000D02*
X131190000Y-138140000D01*
X132610000Y-138140000D02*
X132610000Y-142640000D01*
X132610000Y-142640000D02*
X135000000Y-142640000D01*
X133450000Y-138450000D02*
X134050000Y-138450000D01*
X133500000Y-143750000D02*
X133500000Y-149250000D01*
X133500000Y-149250000D02*
X134000000Y-149250000D01*
X133750000Y-139050000D02*
X133450000Y-138450000D01*
X134000000Y-143750000D02*
X133500000Y-143750000D01*
X134000000Y-149250000D02*
X134000000Y-143750000D01*
X134050000Y-138450000D02*
X133750000Y-139050000D01*
X135000000Y-149860000D02*
X131190000Y-149860000D01*
X135000000Y-149860000D02*
X138810000Y-149860000D01*
X136000000Y-143750000D02*
X136000000Y-149250000D01*
X136000000Y-149250000D02*
X136500000Y-149250000D01*
X136500000Y-143750000D02*
X136000000Y-143750000D01*
X136500000Y-149250000D02*
X136500000Y-143750000D01*
X137390000Y-138140000D02*
X137390000Y-142640000D01*
X137390000Y-142640000D02*
X135000000Y-142640000D01*
X138810000Y-138140000D02*
X137390000Y-138140000D01*
X138810000Y-149860000D02*
X138810000Y-138140000D01*
%TO.C,D14*%
X177515000Y-54540000D02*
X177515000Y-55271000D01*
X175395000Y-54540000D02*
X175395000Y-55271000D01*
%TO.C,D2*%
X129635000Y-54540000D02*
X129635000Y-55271000D01*
X127515000Y-54540000D02*
X127515000Y-55271000D01*
%TO.C,R18*%
X185355000Y-65105000D02*
X185355000Y-61265000D01*
X185355000Y-61265000D02*
X183515000Y-61265000D01*
X184435000Y-66055000D02*
X184435000Y-65105000D01*
X184435000Y-60315000D02*
X184435000Y-61265000D01*
X183515000Y-65105000D02*
X185355000Y-65105000D01*
X183515000Y-61265000D02*
X183515000Y-65105000D01*
%TO.C,C5*%
X123520000Y-110580000D02*
X123520000Y-111205000D01*
X119480000Y-110580000D02*
X123520000Y-110580000D01*
X119480000Y-110580000D02*
X119480000Y-111205000D01*
X123520000Y-112795000D02*
X123520000Y-113420000D01*
X119480000Y-112795000D02*
X119480000Y-113420000D01*
X119480000Y-113420000D02*
X123520000Y-113420000D01*
%TO.C,D5*%
X141605000Y-54540000D02*
X141605000Y-55271000D01*
X139485000Y-54540000D02*
X139485000Y-55271000D01*
%TO.C,D10*%
X161555000Y-54540000D02*
X161555000Y-55271000D01*
X159435000Y-54540000D02*
X159435000Y-55271000D01*
%TO.C,R9*%
X153435000Y-65110000D02*
X153435000Y-61270000D01*
X153435000Y-61270000D02*
X151595000Y-61270000D01*
X152515000Y-66060000D02*
X152515000Y-65110000D01*
X152515000Y-60320000D02*
X152515000Y-61270000D01*
X151595000Y-65110000D02*
X153435000Y-65110000D01*
X151595000Y-61270000D02*
X151595000Y-65110000D01*
%TO.C,D12*%
X169535000Y-54540000D02*
X169535000Y-55271000D01*
X167415000Y-54540000D02*
X167415000Y-55271000D01*
%TO.C,R17*%
X181365000Y-65110000D02*
X181365000Y-61270000D01*
X181365000Y-61270000D02*
X179525000Y-61270000D01*
X180445000Y-66060000D02*
X180445000Y-65110000D01*
X180445000Y-60320000D02*
X180445000Y-61270000D01*
X179525000Y-65110000D02*
X181365000Y-65110000D01*
X179525000Y-61270000D02*
X179525000Y-65110000D01*
%TO.C,R2*%
X125505000Y-65110000D02*
X125505000Y-61270000D01*
X125505000Y-61270000D02*
X123665000Y-61270000D01*
X124585000Y-66060000D02*
X124585000Y-65110000D01*
X124585000Y-60320000D02*
X124585000Y-61270000D01*
X123665000Y-65110000D02*
X125505000Y-65110000D01*
X123665000Y-61270000D02*
X123665000Y-65110000D01*
%TO.C,R4*%
X133485000Y-65110000D02*
X133485000Y-61270000D01*
X133485000Y-61270000D02*
X131645000Y-61270000D01*
X132565000Y-66060000D02*
X132565000Y-65110000D01*
X132565000Y-60320000D02*
X132565000Y-61270000D01*
X131645000Y-65110000D02*
X133485000Y-65110000D01*
X131645000Y-61270000D02*
X131645000Y-65110000D01*
%TO.C,C7*%
X161670000Y-113520000D02*
X165710000Y-113520000D01*
X161670000Y-112895000D02*
X161670000Y-113520000D01*
X165710000Y-112895000D02*
X165710000Y-113520000D01*
X161670000Y-110680000D02*
X161670000Y-111305000D01*
X161670000Y-110680000D02*
X165710000Y-110680000D01*
X165710000Y-110680000D02*
X165710000Y-111305000D01*
%TD*%
M02*
