%TF.GenerationSoftware,KiCad,Pcbnew,8.0.4*%
%TF.CreationDate,2024-09-24T19:09:36+03:00*%
%TF.ProjectId,Register,52656769-7374-4657-922e-6b696361645f,rev?*%
%TF.SameCoordinates,Original*%
%TF.FileFunction,Soldermask,Bot*%
%TF.FilePolarity,Negative*%
%FSLAX46Y46*%
G04 Gerber Fmt 4.6, Leading zero omitted, Abs format (unit mm)*
G04 Created by KiCad (PCBNEW 8.0.4) date 2024-09-24 19:09:36*
%MOMM*%
%LPD*%
G01*
G04 APERTURE LIST*
G04 Aperture macros list*
%AMRoundRect*
0 Rectangle with rounded corners*
0 $1 Rounding radius*
0 $2 $3 $4 $5 $6 $7 $8 $9 X,Y pos of 4 corners*
0 Add a 4 corners polygon primitive as box body*
4,1,4,$2,$3,$4,$5,$6,$7,$8,$9,$2,$3,0*
0 Add four circle primitives for the rounded corners*
1,1,$1+$1,$2,$3*
1,1,$1+$1,$4,$5*
1,1,$1+$1,$6,$7*
1,1,$1+$1,$8,$9*
0 Add four rect primitives between the rounded corners*
20,1,$1+$1,$2,$3,$4,$5,0*
20,1,$1+$1,$4,$5,$6,$7,0*
20,1,$1+$1,$6,$7,$8,$9,0*
20,1,$1+$1,$8,$9,$2,$3,0*%
G04 Aperture macros list end*
%ADD10R,1.700000X1.700000*%
%ADD11O,1.700000X1.700000*%
%ADD12R,1.600000X2.400000*%
%ADD13O,1.600000X2.400000*%
%ADD14O,2.400000X1.600000*%
%ADD15R,2.400000X1.600000*%
%ADD16O,1.500000X2.500000*%
%ADD17R,1.500000X2.500000*%
%ADD18O,2.200000X3.500000*%
%ADD19C,3.800000*%
%ADD20C,1.800000*%
%ADD21R,1.800000X1.800000*%
%ADD22O,1.400000X1.400000*%
%ADD23C,1.400000*%
%ADD24C,1.600000*%
%ADD25RoundRect,0.250000X-0.600000X-0.750000X0.600000X-0.750000X0.600000X0.750000X-0.600000X0.750000X0*%
%ADD26O,1.700000X2.000000*%
%ADD27RoundRect,0.250000X-0.600000X-0.725000X0.600000X-0.725000X0.600000X0.725000X-0.600000X0.725000X0*%
%ADD28O,1.700000X1.950000*%
G04 APERTURE END LIST*
D10*
%TO.C,J9*%
X182000000Y-84750000D03*
D11*
X182000000Y-87290000D03*
X182000000Y-89830000D03*
X182000000Y-92370000D03*
%TD*%
D10*
%TO.C,J8*%
X156000000Y-84700000D03*
D11*
X156000000Y-87240000D03*
X156000000Y-89780000D03*
X156000000Y-92320000D03*
%TD*%
D10*
%TO.C,J7*%
X134500000Y-84700000D03*
D11*
X134500000Y-87240000D03*
X134500000Y-89780000D03*
X134500000Y-92320000D03*
%TD*%
D10*
%TO.C,J6*%
X114000000Y-84755000D03*
D11*
X114000000Y-87295000D03*
X114000000Y-89835000D03*
X114000000Y-92375000D03*
%TD*%
D12*
%TO.C,U6*%
X162440000Y-122800000D03*
D13*
X164980000Y-122800000D03*
X167520000Y-122800000D03*
X170060000Y-122800000D03*
X172600000Y-122800000D03*
X175140000Y-122800000D03*
X177680000Y-122800000D03*
X180220000Y-122800000D03*
X182760000Y-122800000D03*
X185300000Y-122800000D03*
X185300000Y-115180000D03*
X182760000Y-115180000D03*
X180220000Y-115180000D03*
X177680000Y-115180000D03*
X175140000Y-115180000D03*
X172600000Y-115180000D03*
X170060000Y-115180000D03*
X167520000Y-115180000D03*
X164980000Y-115180000D03*
X162440000Y-115180000D03*
%TD*%
D14*
%TO.C,U5*%
X193340000Y-79670000D03*
X193340000Y-82210000D03*
X193340000Y-84750000D03*
X193340000Y-87290000D03*
X193340000Y-89830000D03*
X193340000Y-92370000D03*
X193340000Y-94910000D03*
X193340000Y-97450000D03*
X185720000Y-97450000D03*
X185720000Y-94910000D03*
X185720000Y-92370000D03*
X185720000Y-89830000D03*
X185720000Y-87290000D03*
X185720000Y-84750000D03*
X185720000Y-82210000D03*
D15*
X185720000Y-79670000D03*
%TD*%
%TO.C,U4*%
X159900000Y-79620000D03*
D14*
X159900000Y-82160000D03*
X159900000Y-84700000D03*
X159900000Y-87240000D03*
X159900000Y-89780000D03*
X159900000Y-92320000D03*
X159900000Y-94860000D03*
X159900000Y-97400000D03*
X167520000Y-97400000D03*
X167520000Y-94860000D03*
X167520000Y-92320000D03*
X167520000Y-89780000D03*
X167520000Y-87240000D03*
X167520000Y-84700000D03*
X167520000Y-82160000D03*
X167520000Y-79620000D03*
%TD*%
D12*
%TO.C,U3*%
X120325000Y-122800000D03*
D13*
X122865000Y-122800000D03*
X125405000Y-122800000D03*
X127945000Y-122800000D03*
X130485000Y-122800000D03*
X133025000Y-122800000D03*
X135565000Y-122800000D03*
X138105000Y-122800000D03*
X140645000Y-122800000D03*
X143185000Y-122800000D03*
X143185000Y-115180000D03*
X140645000Y-115180000D03*
X138105000Y-115180000D03*
X135565000Y-115180000D03*
X133025000Y-115180000D03*
X130485000Y-115180000D03*
X127945000Y-115180000D03*
X125405000Y-115180000D03*
X122865000Y-115180000D03*
X120325000Y-115180000D03*
%TD*%
D15*
%TO.C,U2*%
X138105000Y-79620000D03*
D14*
X138105000Y-82160000D03*
X138105000Y-84700000D03*
X138105000Y-87240000D03*
X138105000Y-89780000D03*
X138105000Y-92320000D03*
X138105000Y-94860000D03*
X138105000Y-97400000D03*
X145725000Y-97400000D03*
X145725000Y-94860000D03*
X145725000Y-92320000D03*
X145725000Y-89780000D03*
X145725000Y-87240000D03*
X145725000Y-84700000D03*
X145725000Y-82160000D03*
X145725000Y-79620000D03*
%TD*%
D15*
%TO.C,U1*%
X117785000Y-79675000D03*
D14*
X117785000Y-82215000D03*
X117785000Y-84755000D03*
X117785000Y-87295000D03*
X117785000Y-89835000D03*
X117785000Y-92375000D03*
X117785000Y-94915000D03*
X117785000Y-97455000D03*
X125405000Y-97455000D03*
X125405000Y-94915000D03*
X125405000Y-92375000D03*
X125405000Y-89835000D03*
X125405000Y-87295000D03*
X125405000Y-84755000D03*
X125405000Y-82215000D03*
X125405000Y-79675000D03*
%TD*%
D16*
%TO.C,SW1*%
X114985000Y-54250000D03*
X116985000Y-54250000D03*
D17*
X118985000Y-54250000D03*
D18*
X112885000Y-54250000D03*
X121085000Y-54250000D03*
%TD*%
D19*
%TO.C,H4*%
X196000000Y-54000000D03*
%TD*%
%TO.C,H3*%
X104000000Y-146000000D03*
%TD*%
%TO.C,H2*%
X196000000Y-146000000D03*
%TD*%
%TO.C,H1*%
X104000000Y-54000000D03*
%TD*%
D20*
%TO.C,D13*%
X172465000Y-56000000D03*
D21*
X172465000Y-53460000D03*
%TD*%
D22*
%TO.C,R8*%
X148525000Y-59380000D03*
D23*
X148525000Y-67000000D03*
%TD*%
D22*
%TO.C,R6*%
X140545000Y-59380000D03*
D23*
X140545000Y-67000000D03*
%TD*%
D24*
%TO.C,C4*%
X193340000Y-75145000D03*
X195840000Y-75145000D03*
%TD*%
D25*
%TO.C,J2*%
X122750000Y-140550000D03*
D26*
X125250000Y-140550000D03*
%TD*%
D20*
%TO.C,D11*%
X164485000Y-56000000D03*
D21*
X164485000Y-53460000D03*
%TD*%
D24*
%TO.C,C1*%
X125405000Y-75145000D03*
X127905000Y-75145000D03*
%TD*%
D22*
%TO.C,R7*%
X144535000Y-59380000D03*
D23*
X144535000Y-67000000D03*
%TD*%
D20*
%TO.C,D1*%
X124585000Y-56000000D03*
D21*
X124585000Y-53460000D03*
%TD*%
D27*
%TO.C,J5*%
X170500000Y-142000000D03*
D28*
X173000000Y-142000000D03*
X175500000Y-142000000D03*
X178000000Y-142000000D03*
X180500000Y-142000000D03*
X183000000Y-142000000D03*
X185500000Y-142000000D03*
X188000000Y-142000000D03*
%TD*%
D24*
%TO.C,C2*%
X145725000Y-75090000D03*
X148225000Y-75090000D03*
%TD*%
D20*
%TO.C,D9*%
X156505000Y-56000000D03*
D21*
X156505000Y-53460000D03*
%TD*%
D22*
%TO.C,R5*%
X136555000Y-59380000D03*
D23*
X136555000Y-67000000D03*
%TD*%
D20*
%TO.C,D3*%
X132565000Y-56000000D03*
D21*
X132565000Y-53460000D03*
%TD*%
D22*
%TO.C,R16*%
X176455000Y-59380000D03*
D23*
X176455000Y-67000000D03*
%TD*%
D22*
%TO.C,R3*%
X128575000Y-59380000D03*
D23*
X128575000Y-67000000D03*
%TD*%
D20*
%TO.C,D15*%
X180445000Y-56000000D03*
D21*
X180445000Y-53460000D03*
%TD*%
D25*
%TO.C,J1*%
X111750000Y-140550000D03*
D26*
X114250000Y-140550000D03*
%TD*%
D22*
%TO.C,R12*%
X160495000Y-59380000D03*
D23*
X160495000Y-67000000D03*
%TD*%
D20*
%TO.C,D4*%
X136555000Y-56000000D03*
D21*
X136555000Y-53460000D03*
%TD*%
D20*
%TO.C,D6*%
X144535000Y-56000000D03*
D21*
X144535000Y-53460000D03*
%TD*%
D22*
%TO.C,R10*%
X156505000Y-59380000D03*
D23*
X156505000Y-67000000D03*
%TD*%
D27*
%TO.C,J4*%
X146250000Y-142000000D03*
D28*
X148750000Y-142000000D03*
X151250000Y-142000000D03*
X153750000Y-142000000D03*
X156250000Y-142000000D03*
X158750000Y-142000000D03*
X161250000Y-142000000D03*
X163750000Y-142000000D03*
%TD*%
D22*
%TO.C,R13*%
X164485000Y-59380000D03*
D23*
X164485000Y-67000000D03*
%TD*%
D24*
%TO.C,C6*%
X110000000Y-121000000D03*
X110000000Y-118500000D03*
%TD*%
D20*
%TO.C,D7*%
X148525000Y-56000000D03*
D21*
X148525000Y-53460000D03*
%TD*%
D20*
%TO.C,D16*%
X184435000Y-56000000D03*
D21*
X184435000Y-53460000D03*
%TD*%
D22*
%TO.C,R15*%
X172465000Y-59380000D03*
D23*
X172465000Y-67000000D03*
%TD*%
D20*
%TO.C,D8*%
X152515000Y-56000000D03*
D21*
X152515000Y-53460000D03*
%TD*%
D24*
%TO.C,C3*%
X167520000Y-75095000D03*
X170020000Y-75095000D03*
%TD*%
D22*
%TO.C,R14*%
X168475000Y-59380000D03*
D23*
X168475000Y-67000000D03*
%TD*%
D25*
%TO.C,J3*%
X133750000Y-140550000D03*
D26*
X136250000Y-140550000D03*
%TD*%
D20*
%TO.C,D14*%
X176455000Y-56000000D03*
D21*
X176455000Y-53460000D03*
%TD*%
D20*
%TO.C,D2*%
X128575000Y-56000000D03*
D21*
X128575000Y-53460000D03*
%TD*%
D22*
%TO.C,R18*%
X184435000Y-59375000D03*
D23*
X184435000Y-66995000D03*
%TD*%
D24*
%TO.C,C5*%
X122750000Y-112000000D03*
X120250000Y-112000000D03*
%TD*%
D20*
%TO.C,D5*%
X140545000Y-56000000D03*
D21*
X140545000Y-53460000D03*
%TD*%
D20*
%TO.C,D10*%
X160495000Y-56000000D03*
D21*
X160495000Y-53460000D03*
%TD*%
D22*
%TO.C,R9*%
X152515000Y-59380000D03*
D23*
X152515000Y-67000000D03*
%TD*%
D20*
%TO.C,D12*%
X168475000Y-56000000D03*
D21*
X168475000Y-53460000D03*
%TD*%
D22*
%TO.C,R17*%
X180445000Y-59380000D03*
D23*
X180445000Y-67000000D03*
%TD*%
D22*
%TO.C,R2*%
X124585000Y-59380000D03*
D23*
X124585000Y-67000000D03*
%TD*%
D22*
%TO.C,R4*%
X132565000Y-59380000D03*
D23*
X132565000Y-67000000D03*
%TD*%
D24*
%TO.C,C7*%
X162440000Y-112100000D03*
X164940000Y-112100000D03*
%TD*%
M02*
