%TF.GenerationSoftware,KiCad,Pcbnew,8.0.4*%
%TF.CreationDate,2024-09-25T14:12:18+03:00*%
%TF.ProjectId,STATUS_Register,53544154-5553-45f5-9265-676973746572,rev?*%
%TF.SameCoordinates,Original*%
%TF.FileFunction,Soldermask,Top*%
%TF.FilePolarity,Negative*%
%FSLAX46Y46*%
G04 Gerber Fmt 4.6, Leading zero omitted, Abs format (unit mm)*
G04 Created by KiCad (PCBNEW 8.0.4) date 2024-09-25 14:12:18*
%MOMM*%
%LPD*%
G01*
G04 APERTURE LIST*
G04 Aperture macros list*
%AMRoundRect*
0 Rectangle with rounded corners*
0 $1 Rounding radius*
0 $2 $3 $4 $5 $6 $7 $8 $9 X,Y pos of 4 corners*
0 Add a 4 corners polygon primitive as box body*
4,1,4,$2,$3,$4,$5,$6,$7,$8,$9,$2,$3,0*
0 Add four circle primitives for the rounded corners*
1,1,$1+$1,$2,$3*
1,1,$1+$1,$4,$5*
1,1,$1+$1,$6,$7*
1,1,$1+$1,$8,$9*
0 Add four rect primitives between the rounded corners*
20,1,$1+$1,$2,$3,$4,$5,0*
20,1,$1+$1,$4,$5,$6,$7,0*
20,1,$1+$1,$6,$7,$8,$9,0*
20,1,$1+$1,$8,$9,$2,$3,0*%
G04 Aperture macros list end*
%ADD10C,1.600000*%
%ADD11C,1.400000*%
%ADD12O,1.400000X1.400000*%
%ADD13RoundRect,0.250000X-0.600000X-0.750000X0.600000X-0.750000X0.600000X0.750000X-0.600000X0.750000X0*%
%ADD14O,1.700000X2.000000*%
%ADD15R,1.800000X1.800000*%
%ADD16C,1.800000*%
%ADD17R,2.400000X1.600000*%
%ADD18O,2.400000X1.600000*%
%ADD19C,3.800000*%
%ADD20RoundRect,0.250000X-0.600000X-0.725000X0.600000X-0.725000X0.600000X0.725000X-0.600000X0.725000X0*%
%ADD21O,1.700000X1.950000*%
%ADD22R,1.700000X1.700000*%
%ADD23O,1.700000X1.700000*%
%ADD24R,1.600000X2.400000*%
%ADD25O,1.600000X2.400000*%
%ADD26O,2.200000X3.500000*%
%ADD27R,1.500000X2.500000*%
%ADD28O,1.500000X2.500000*%
%ADD29RoundRect,0.250000X-0.725000X0.600000X-0.725000X-0.600000X0.725000X-0.600000X0.725000X0.600000X0*%
%ADD30O,1.950000X1.700000*%
G04 APERTURE END LIST*
D10*
%TO.C,C4*%
X121380000Y-78999125D03*
X123880000Y-78999125D03*
%TD*%
D11*
%TO.C,R4*%
X145965000Y-66810000D03*
D12*
X145965000Y-59190000D03*
%TD*%
D11*
%TO.C,R0*%
X124585000Y-66810000D03*
D12*
X124585000Y-59190000D03*
%TD*%
D13*
%TO.C,J2*%
X122750000Y-142000000D03*
D14*
X125250000Y-142000000D03*
%TD*%
D10*
%TO.C,C1*%
X146530000Y-79000000D03*
X149030000Y-79000000D03*
%TD*%
D15*
%TO.C,D1*%
X124585000Y-53460000D03*
D16*
X124585000Y-56000000D03*
%TD*%
D17*
%TO.C,U5*%
X179200000Y-79000000D03*
D18*
X179200000Y-81540000D03*
X179200000Y-84080000D03*
X179200000Y-86620000D03*
X179200000Y-89160000D03*
X179200000Y-91700000D03*
X179200000Y-94240000D03*
X179200000Y-96780000D03*
X186820000Y-96780000D03*
X186820000Y-94240000D03*
X186820000Y-91700000D03*
X186820000Y-89160000D03*
X186820000Y-86620000D03*
X186820000Y-84080000D03*
X186820000Y-81540000D03*
X186820000Y-79000000D03*
%TD*%
D11*
%TO.C,R1*%
X129930000Y-66810000D03*
D12*
X129930000Y-59190000D03*
%TD*%
D10*
%TO.C,C2*%
X169570000Y-79000000D03*
X172070000Y-79000000D03*
%TD*%
D19*
%TO.C,H2*%
X196000000Y-146000000D03*
%TD*%
D15*
%TO.C,D3*%
X135275000Y-53460000D03*
D16*
X135275000Y-56000000D03*
%TD*%
D13*
%TO.C,J1*%
X111750000Y-142000000D03*
D14*
X114250000Y-142000000D03*
%TD*%
D15*
%TO.C,D4*%
X140620000Y-53460000D03*
D16*
X140620000Y-56000000D03*
%TD*%
D15*
%TO.C,D6*%
X151310000Y-53460000D03*
D16*
X151310000Y-56000000D03*
%TD*%
D19*
%TO.C,H1*%
X104000000Y-54000000D03*
%TD*%
D20*
%TO.C,J4*%
X146250000Y-142000000D03*
D21*
X148750000Y-142000000D03*
X151250000Y-142000000D03*
X153750000Y-142000000D03*
X156250000Y-142000000D03*
X158750000Y-142000000D03*
X161250000Y-142000000D03*
X163750000Y-142000000D03*
%TD*%
D17*
%TO.C,U1*%
X135980000Y-79000000D03*
D18*
X135980000Y-81540000D03*
X135980000Y-84080000D03*
X135980000Y-86620000D03*
X135980000Y-89160000D03*
X135980000Y-91700000D03*
X135980000Y-94240000D03*
X135980000Y-96780000D03*
X143600000Y-96780000D03*
X143600000Y-94240000D03*
X143600000Y-91700000D03*
X143600000Y-89160000D03*
X143600000Y-86620000D03*
X143600000Y-84080000D03*
X143600000Y-81540000D03*
X143600000Y-79000000D03*
%TD*%
D22*
%TO.C,J6*%
X132100000Y-84080000D03*
D23*
X132100000Y-86620000D03*
X132100000Y-89160000D03*
X132100000Y-91700000D03*
%TD*%
D11*
%TO.C,R6*%
X156655000Y-66810000D03*
D12*
X156655000Y-59190000D03*
%TD*%
D10*
%TO.C,C6*%
X111750000Y-132500000D03*
X114250000Y-132500000D03*
%TD*%
D17*
%TO.C,U2*%
X159200000Y-79000000D03*
D18*
X159200000Y-81540000D03*
X159200000Y-84080000D03*
X159200000Y-86620000D03*
X159200000Y-89160000D03*
X159200000Y-91700000D03*
X159200000Y-94240000D03*
X159200000Y-96780000D03*
X166820000Y-96780000D03*
X166820000Y-94240000D03*
X166820000Y-91700000D03*
X166820000Y-89160000D03*
X166820000Y-86620000D03*
X166820000Y-84080000D03*
X166820000Y-81540000D03*
X166820000Y-79000000D03*
%TD*%
D13*
%TO.C,J10*%
X176250000Y-142000000D03*
D14*
X178750000Y-142000000D03*
%TD*%
D15*
%TO.C,D7*%
X156655000Y-53460000D03*
D16*
X156655000Y-56000000D03*
%TD*%
D11*
%TO.C,R7*%
X162000000Y-66810000D03*
D12*
X162000000Y-59190000D03*
%TD*%
D19*
%TO.C,H4*%
X196000000Y-54000000D03*
%TD*%
D11*
%TO.C,R3*%
X140620000Y-66810000D03*
D12*
X140620000Y-59190000D03*
%TD*%
D15*
%TO.C,D8*%
X162000000Y-53460000D03*
D16*
X162000000Y-56000000D03*
%TD*%
D24*
%TO.C,U3*%
X143640000Y-129000000D03*
D25*
X146180000Y-129000000D03*
X148720000Y-129000000D03*
X151260000Y-129000000D03*
X153800000Y-129000000D03*
X156340000Y-129000000D03*
X158880000Y-129000000D03*
X161420000Y-129000000D03*
X163960000Y-129000000D03*
X166500000Y-129000000D03*
X166500000Y-121380000D03*
X163960000Y-121380000D03*
X161420000Y-121380000D03*
X158880000Y-121380000D03*
X156340000Y-121380000D03*
X153800000Y-121380000D03*
X151260000Y-121380000D03*
X148720000Y-121380000D03*
X146180000Y-121380000D03*
X143640000Y-121380000D03*
%TD*%
D10*
%TO.C,C3*%
X143640000Y-117500000D03*
X141140000Y-117500000D03*
%TD*%
D13*
%TO.C,J3*%
X133750000Y-142000000D03*
D14*
X136250000Y-142000000D03*
%TD*%
D15*
%TO.C,D2*%
X129930000Y-53460000D03*
D16*
X129930000Y-56000000D03*
%TD*%
D10*
%TO.C,C5*%
X190320000Y-79000000D03*
X192820000Y-79000000D03*
%TD*%
D19*
%TO.C,H3*%
X104000000Y-146000000D03*
%TD*%
D15*
%TO.C,D5*%
X145965000Y-53460000D03*
D16*
X145965000Y-56000000D03*
%TD*%
D11*
%TO.C,R5*%
X151310000Y-66810000D03*
D12*
X151310000Y-59190000D03*
%TD*%
D22*
%TO.C,J7*%
X155320000Y-84120000D03*
D23*
X155320000Y-86660000D03*
X155320000Y-89200000D03*
X155320000Y-91740000D03*
%TD*%
D26*
%TO.C,SW1*%
X121085000Y-54250000D03*
X112885000Y-54250000D03*
D27*
X118985000Y-54250000D03*
D28*
X116985000Y-54250000D03*
X114985000Y-54250000D03*
%TD*%
D29*
%TO.C,J11*%
X108000000Y-116000000D03*
D30*
X108000000Y-118500000D03*
X108000000Y-121000000D03*
X108000000Y-123500000D03*
%TD*%
D11*
%TO.C,R2*%
X135275000Y-66810000D03*
D12*
X135275000Y-59190000D03*
%TD*%
D17*
%TO.C,U4*%
X110760000Y-78999125D03*
D18*
X110760000Y-81539125D03*
X110760000Y-84079125D03*
X110760000Y-86619125D03*
X110760000Y-89159125D03*
X110760000Y-91699125D03*
X110760000Y-94239125D03*
X110760000Y-96779125D03*
X118380000Y-96779125D03*
X118380000Y-94239125D03*
X118380000Y-91699125D03*
X118380000Y-89159125D03*
X118380000Y-86619125D03*
X118380000Y-84079125D03*
X118380000Y-81539125D03*
X118380000Y-78999125D03*
%TD*%
M02*
