%TF.GenerationSoftware,KiCad,Pcbnew,8.0.4*%
%TF.CreationDate,2024-08-26T23:59:35+03:00*%
%TF.ProjectId,SH8,5348382e-6b69-4636-9164-5f7063625858,rev?*%
%TF.SameCoordinates,Original*%
%TF.FileFunction,Soldermask,Top*%
%TF.FilePolarity,Negative*%
%FSLAX46Y46*%
G04 Gerber Fmt 4.6, Leading zero omitted, Abs format (unit mm)*
G04 Created by KiCad (PCBNEW 8.0.4) date 2024-08-26 23:59:35*
%MOMM*%
%LPD*%
G01*
G04 APERTURE LIST*
G04 Aperture macros list*
%AMRoundRect*
0 Rectangle with rounded corners*
0 $1 Rounding radius*
0 $2 $3 $4 $5 $6 $7 $8 $9 X,Y pos of 4 corners*
0 Add a 4 corners polygon primitive as box body*
4,1,4,$2,$3,$4,$5,$6,$7,$8,$9,$2,$3,0*
0 Add four circle primitives for the rounded corners*
1,1,$1+$1,$2,$3*
1,1,$1+$1,$4,$5*
1,1,$1+$1,$6,$7*
1,1,$1+$1,$8,$9*
0 Add four rect primitives between the rounded corners*
20,1,$1+$1,$2,$3,$4,$5,0*
20,1,$1+$1,$4,$5,$6,$7,0*
20,1,$1+$1,$6,$7,$8,$9,0*
20,1,$1+$1,$8,$9,$2,$3,0*%
G04 Aperture macros list end*
%ADD10C,1.400000*%
%ADD11O,1.400000X1.400000*%
%ADD12RoundRect,0.250000X-0.600000X-0.725000X0.600000X-0.725000X0.600000X0.725000X-0.600000X0.725000X0*%
%ADD13O,1.700000X1.950000*%
%ADD14R,1.800000X1.800000*%
%ADD15C,1.800000*%
%ADD16R,1.600000X1.600000*%
%ADD17O,1.600000X1.600000*%
%ADD18C,2.500000*%
%ADD19RoundRect,0.250000X-0.600000X-0.750000X0.600000X-0.750000X0.600000X0.750000X-0.600000X0.750000X0*%
%ADD20O,1.700000X2.000000*%
G04 APERTURE END LIST*
D10*
%TO.C,R15*%
X101000000Y-31330000D03*
D11*
X101000000Y-26250000D03*
%TD*%
D10*
%TO.C,R14*%
X95500000Y-31330000D03*
D11*
X95500000Y-26250000D03*
%TD*%
D10*
%TO.C,R5*%
X47500000Y-31330000D03*
D11*
X47500000Y-26250000D03*
%TD*%
D12*
%TO.C,J1*%
X62000000Y-89750000D03*
D13*
X64500000Y-89750000D03*
X67000000Y-89750000D03*
X69500000Y-89750000D03*
X72000000Y-89750000D03*
X74500000Y-89750000D03*
X77000000Y-89750000D03*
X79500000Y-89750000D03*
X82000000Y-89750000D03*
X84500000Y-89750000D03*
X87000000Y-89750000D03*
X89500000Y-89750000D03*
X92000000Y-89750000D03*
X94500000Y-89750000D03*
X97000000Y-89750000D03*
X99500000Y-89750000D03*
%TD*%
D14*
%TO.C,D12*%
X87441663Y-23750000D03*
D15*
X84901663Y-23750000D03*
%TD*%
D12*
%TO.C,J2*%
X46650000Y-89750000D03*
D13*
X49150000Y-89750000D03*
X51650000Y-89750000D03*
%TD*%
D14*
%TO.C,D11*%
X82108330Y-23750000D03*
D15*
X79568330Y-23750000D03*
%TD*%
D16*
%TO.C,U3*%
X27000000Y-40000000D03*
D17*
X27000000Y-42540000D03*
X27000000Y-45080000D03*
X27000000Y-47620000D03*
X27000000Y-50160000D03*
X27000000Y-52700000D03*
X27000000Y-55240000D03*
X27000000Y-57780000D03*
X34620000Y-57780000D03*
X34620000Y-55240000D03*
X34620000Y-52700000D03*
X34620000Y-50160000D03*
X34620000Y-47620000D03*
X34620000Y-45080000D03*
X34620000Y-42540000D03*
X34620000Y-40000000D03*
%TD*%
D14*
%TO.C,D16*%
X108775000Y-23750000D03*
D15*
X106235000Y-23750000D03*
%TD*%
D10*
%TO.C,R2*%
X31500000Y-31330000D03*
D11*
X31500000Y-26250000D03*
%TD*%
D10*
%TO.C,R4*%
X42250000Y-31330000D03*
D11*
X42250000Y-26250000D03*
%TD*%
D14*
%TO.C,D2*%
X34108333Y-23750000D03*
D15*
X31568333Y-23750000D03*
%TD*%
D18*
%TO.C,REF\u002A\u002A*%
X113750000Y-23500000D03*
%TD*%
D16*
%TO.C,U4*%
X51000000Y-40000000D03*
D17*
X51000000Y-42540000D03*
X51000000Y-45080000D03*
X51000000Y-47620000D03*
X51000000Y-50160000D03*
X51000000Y-52700000D03*
X51000000Y-55240000D03*
X51000000Y-57780000D03*
X58620000Y-57780000D03*
X58620000Y-55240000D03*
X58620000Y-52700000D03*
X58620000Y-50160000D03*
X58620000Y-47620000D03*
X58620000Y-45080000D03*
X58620000Y-42540000D03*
X58620000Y-40000000D03*
%TD*%
D16*
%TO.C,U5*%
X75000000Y-40000000D03*
D17*
X75000000Y-42540000D03*
X75000000Y-45080000D03*
X75000000Y-47620000D03*
X75000000Y-50160000D03*
X75000000Y-52700000D03*
X75000000Y-55240000D03*
X75000000Y-57780000D03*
X82620000Y-57780000D03*
X82620000Y-55240000D03*
X82620000Y-52700000D03*
X82620000Y-50160000D03*
X82620000Y-47620000D03*
X82620000Y-45080000D03*
X82620000Y-42540000D03*
X82620000Y-40000000D03*
%TD*%
D16*
%TO.C,U2*%
X31300000Y-77550000D03*
D17*
X33840000Y-77550000D03*
X36380000Y-77550000D03*
X38920000Y-77550000D03*
X41460000Y-77550000D03*
X44000000Y-77550000D03*
X46540000Y-77550000D03*
X49080000Y-77550000D03*
X51620000Y-77550000D03*
X54160000Y-77550000D03*
X54160000Y-69930000D03*
X51620000Y-69930000D03*
X49080000Y-69930000D03*
X46540000Y-69930000D03*
X44000000Y-69930000D03*
X41460000Y-69930000D03*
X38920000Y-69930000D03*
X36380000Y-69930000D03*
X33840000Y-69930000D03*
X31300000Y-69930000D03*
%TD*%
D10*
%TO.C,R11*%
X79500000Y-31290000D03*
D11*
X79500000Y-26210000D03*
%TD*%
D10*
%TO.C,R8*%
X63500000Y-31290000D03*
D11*
X63500000Y-26210000D03*
%TD*%
D18*
%TO.C,REF\u002A\u002A*%
X21250000Y-23500000D03*
%TD*%
D14*
%TO.C,D14*%
X98108329Y-23750000D03*
D15*
X95568329Y-23750000D03*
%TD*%
D14*
%TO.C,D15*%
X103441662Y-23750000D03*
D15*
X100901662Y-23750000D03*
%TD*%
D10*
%TO.C,R16*%
X106250000Y-31330000D03*
D11*
X106250000Y-26250000D03*
%TD*%
D14*
%TO.C,D7*%
X60774998Y-23750000D03*
D15*
X58234998Y-23750000D03*
%TD*%
D10*
%TO.C,R13*%
X90250000Y-31330000D03*
D11*
X90250000Y-26250000D03*
%TD*%
D14*
%TO.C,D13*%
X92774996Y-23750000D03*
D15*
X90234996Y-23750000D03*
%TD*%
D10*
%TO.C,R12*%
X85000000Y-31330000D03*
D11*
X85000000Y-26250000D03*
%TD*%
D14*
%TO.C,D3*%
X39441666Y-23750000D03*
D15*
X36901666Y-23750000D03*
%TD*%
D18*
%TO.C,REF\u002A\u002A*%
X21250000Y-96000000D03*
%TD*%
D16*
%TO.C,U6*%
X99000000Y-40000000D03*
D17*
X99000000Y-42540000D03*
X99000000Y-45080000D03*
X99000000Y-47620000D03*
X99000000Y-50160000D03*
X99000000Y-52700000D03*
X99000000Y-55240000D03*
X99000000Y-57780000D03*
X106620000Y-57780000D03*
X106620000Y-55240000D03*
X106620000Y-52700000D03*
X106620000Y-50160000D03*
X106620000Y-47620000D03*
X106620000Y-45080000D03*
X106620000Y-42540000D03*
X106620000Y-40000000D03*
%TD*%
D10*
%TO.C,R10*%
X74250000Y-31290000D03*
D11*
X74250000Y-26210000D03*
%TD*%
D14*
%TO.C,D5*%
X50108332Y-23750000D03*
D15*
X47568332Y-23750000D03*
%TD*%
D14*
%TO.C,D4*%
X44774999Y-23750000D03*
D15*
X42234999Y-23750000D03*
%TD*%
D19*
%TO.C,J3*%
X36150000Y-89750000D03*
D20*
X38650000Y-89750000D03*
%TD*%
D10*
%TO.C,R1*%
X26250000Y-31290000D03*
D11*
X26250000Y-26210000D03*
%TD*%
D10*
%TO.C,R6*%
X53000000Y-31330000D03*
D11*
X53000000Y-26250000D03*
%TD*%
D10*
%TO.C,R3*%
X37000000Y-31330000D03*
D11*
X37000000Y-26250000D03*
%TD*%
D14*
%TO.C,D10*%
X76774997Y-23750000D03*
D15*
X74234997Y-23750000D03*
%TD*%
D10*
%TO.C,R9*%
X69000000Y-31290000D03*
D11*
X69000000Y-26210000D03*
%TD*%
D14*
%TO.C,D6*%
X55441665Y-23750000D03*
D15*
X52901665Y-23750000D03*
%TD*%
D14*
%TO.C,D9*%
X71441664Y-23750000D03*
D15*
X68901664Y-23750000D03*
%TD*%
D18*
%TO.C,REF\u002A\u002A*%
X113750000Y-96000000D03*
%TD*%
D14*
%TO.C,D8*%
X66108331Y-23750000D03*
D15*
X63568331Y-23750000D03*
%TD*%
D14*
%TO.C,D1*%
X28775000Y-23750000D03*
D15*
X26235000Y-23750000D03*
%TD*%
D16*
%TO.C,U1*%
X79300000Y-77550000D03*
D17*
X81840000Y-77550000D03*
X84380000Y-77550000D03*
X86920000Y-77550000D03*
X89460000Y-77550000D03*
X92000000Y-77550000D03*
X94540000Y-77550000D03*
X97080000Y-77550000D03*
X99620000Y-77550000D03*
X102160000Y-77550000D03*
X102160000Y-69930000D03*
X99620000Y-69930000D03*
X97080000Y-69930000D03*
X94540000Y-69930000D03*
X92000000Y-69930000D03*
X89460000Y-69930000D03*
X86920000Y-69930000D03*
X84380000Y-69930000D03*
X81840000Y-69930000D03*
X79300000Y-69930000D03*
%TD*%
D10*
%TO.C,R7*%
X58250000Y-31330000D03*
D11*
X58250000Y-26250000D03*
%TD*%
M02*
