M48
; DRILL file {KiCad 8.0.5} date 2024-10-02T19:15:40+0300
; FORMAT={-:-/ absolute / inch / decimal}
; #@! TF.CreationDate,2024-10-02T19:15:40+03:00
; #@! TF.GenerationSoftware,Kicad,Pcbnew,8.0.5
; #@! TF.FileFunction,Plated,1,2,PTH
FMAT,2
INCH
; #@! TA.AperFunction,Plated,PTH,ViaDrill
T1C0.0118
; #@! TA.AperFunction,Plated,PTH,ComponentDrill
T2C0.0276
; #@! TA.AperFunction,Plated,PTH,ComponentDrill
T3C0.0315
; #@! TA.AperFunction,Plated,PTH,ComponentDrill
T4C0.0354
; #@! TA.AperFunction,Plated,PTH,ComponentDrill
T5C0.0374
; #@! TA.AperFunction,Plated,PTH,ComponentDrill
T6C0.0394
; #@! TA.AperFunction,Plated,PTH,ComponentDrill
T7C0.0591
; #@! TA.AperFunction,Plated,PTH,ComponentDrill
T8C0.0866
%
G90
G05
T1
X4.4291Y-4.2126
X4.4882Y-4.1929
X4.6358Y-4.6358
X4.6654Y-4.7047
X4.685Y-5.0787
X4.7441Y-3.9764
X4.8228Y-3.9961
X4.8228Y-4.0945
X4.8425Y-2.9528
X4.8573Y-4.6407
X4.8917Y-4.5965
X4.9016Y-3.7598
X4.9685Y-3.0394
X5.2165Y-3.9961
X5.3543Y-4.1339
X5.3642Y-3.9469
X5.3937Y-4.3799
X5.3937Y-4.5669
X5.4232Y-5.0886
X5.4528Y-5.2165
X5.4724Y-4.3799
X5.4724Y-4.5669
X5.4921Y-4.1339
X5.8711Y-3.8927
X6.9075Y-3.3268
X7.185Y-4.0748
X7.2165Y-4.6358
X7.2441Y-3.6909
X7.4705Y-3.4567
T2
X4.9049Y-2.3303
X4.9049Y-2.6303
X5.1154Y-2.3303
X5.1154Y-2.6303
X5.3258Y-2.3303
X5.3258Y-2.6303
X5.5362Y-2.3303
X5.5362Y-2.6303
X5.7467Y-2.3303
X5.7467Y-2.6303
X5.9571Y-2.3303
X5.9571Y-2.6303
X6.1675Y-2.3303
X6.1675Y-2.6303
X6.378Y-2.3303
X6.378Y-2.6303
T3
X4.3606Y-3.1102
X4.3606Y-3.2102
X4.3606Y-3.3102
X4.3606Y-3.4102
X4.3606Y-3.5102
X4.3606Y-3.6102
X4.3606Y-3.7102
X4.3606Y-3.8102
X4.3996Y-5.2165
X4.498Y-5.2165
X4.6606Y-3.1102
X4.6606Y-3.2102
X4.6606Y-3.3102
X4.6606Y-3.4102
X4.6606Y-3.5102
X4.6606Y-3.6102
X4.6606Y-3.7102
X4.6606Y-3.8102
X4.7787Y-3.1102
X4.8772Y-3.1102
X5.3535Y-3.1102
X5.3535Y-3.2102
X5.3535Y-3.3102
X5.3535Y-3.4102
X5.3535Y-3.5102
X5.3535Y-3.6102
X5.3535Y-3.7102
X5.3535Y-3.8102
X5.5567Y-4.626
X5.6535Y-3.1102
X5.6535Y-3.2102
X5.6535Y-3.3102
X5.6535Y-3.4102
X5.6535Y-3.5102
X5.6535Y-3.6102
X5.6535Y-3.7102
X5.6535Y-3.8102
X5.6551Y-4.626
X5.6551Y-4.7787
X5.6551Y-5.0787
X5.7551Y-4.7787
X5.7551Y-5.0787
X5.7689Y-3.1102
X5.8551Y-4.7787
X5.8551Y-5.0787
X5.8673Y-3.1102
X5.9551Y-4.7787
X5.9551Y-5.0787
X6.0551Y-4.7787
X6.0551Y-5.0787
X6.1551Y-4.7787
X6.1551Y-5.0787
X6.2551Y-4.7787
X6.2551Y-5.0787
X6.2677Y-3.1102
X6.2677Y-3.2102
X6.2677Y-3.3102
X6.2677Y-3.4102
X6.2677Y-3.5102
X6.2677Y-3.6102
X6.2677Y-3.7102
X6.2677Y-3.8102
X6.3551Y-4.7787
X6.3551Y-5.0787
X6.4551Y-4.7787
X6.4551Y-5.0787
X6.5551Y-4.7787
X6.5551Y-5.0787
X6.5677Y-3.1102
X6.5677Y-3.2102
X6.5677Y-3.3102
X6.5677Y-3.4102
X6.5677Y-3.5102
X6.5677Y-3.6102
X6.5677Y-3.7102
X6.5677Y-3.8102
X6.676Y-3.1102
X6.7744Y-3.1102
X7.0551Y-3.1102
X7.0551Y-3.2102
X7.0551Y-3.3102
X7.0551Y-3.4102
X7.0551Y-3.5102
X7.0551Y-3.6102
X7.0551Y-3.7102
X7.0551Y-3.8102
X7.3551Y-3.1102
X7.3551Y-3.2102
X7.3551Y-3.3102
X7.3551Y-3.4102
X7.3551Y-3.5102
X7.3551Y-3.6102
X7.3551Y-3.7102
X7.3551Y-3.8102
X7.4929Y-3.1102
X7.5913Y-3.1102
T4
X4.527Y-2.1358
X4.6057Y-2.1358
X4.6844Y-2.1358
X4.9049Y-2.1047
X4.9049Y-2.2047
X5.1154Y-2.1047
X5.1154Y-2.2047
X5.3258Y-2.1047
X5.3258Y-2.2047
X5.5362Y-2.1047
X5.5362Y-2.2047
X5.7467Y-2.1047
X5.7467Y-2.2047
X5.9571Y-2.1047
X5.9571Y-2.2047
X6.1675Y-2.1047
X6.1675Y-2.2047
X6.378Y-2.1047
X6.378Y-2.2047
T5
X4.252Y-4.5669
X4.252Y-4.6654
X4.252Y-4.7638
X4.252Y-4.8622
X5.7579Y-5.5906
X5.8563Y-5.5906
X5.9547Y-5.5906
X6.0531Y-5.5906
X6.1516Y-5.5906
X6.25Y-5.5906
X6.3484Y-5.5906
X6.4469Y-5.5906
T6
X4.3996Y-5.5906
X4.498Y-5.5906
X4.8327Y-5.5906
X4.9311Y-5.5906
X5.2008Y-3.3102
X5.2008Y-3.4102
X5.2008Y-3.5102
X5.2008Y-3.6102
X5.2657Y-5.5906
X5.3642Y-5.5906
X6.115Y-3.3118
X6.115Y-3.4118
X6.115Y-3.5118
X6.115Y-3.6118
X6.939Y-5.5906
X7.0374Y-5.5906
T7
X4.4443Y-2.1358
X4.7671Y-2.1358
T8
X4.0945Y-2.126
X4.0945Y-5.748
X7.7165Y-2.126
X7.7165Y-5.748
M30
