%TF.GenerationSoftware,KiCad,Pcbnew,8.0.4*%
%TF.CreationDate,2024-08-27T00:00:19+03:00*%
%TF.ProjectId,SH8,5348382e-6b69-4636-9164-5f7063625858,rev?*%
%TF.SameCoordinates,Original*%
%TF.FileFunction,Legend,Top*%
%TF.FilePolarity,Positive*%
%FSLAX46Y46*%
G04 Gerber Fmt 4.6, Leading zero omitted, Abs format (unit mm)*
G04 Created by KiCad (PCBNEW 8.0.4) date 2024-08-27 00:00:19*
%MOMM*%
%LPD*%
G01*
G04 APERTURE LIST*
%ADD10C,0.150000*%
%ADD11C,0.120000*%
G04 APERTURE END LIST*
D10*
X80416666Y-85704819D02*
X80416666Y-86419104D01*
X80416666Y-86419104D02*
X80369047Y-86561961D01*
X80369047Y-86561961D02*
X80273809Y-86657200D01*
X80273809Y-86657200D02*
X80130952Y-86704819D01*
X80130952Y-86704819D02*
X80035714Y-86704819D01*
X81416666Y-86704819D02*
X80845238Y-86704819D01*
X81130952Y-86704819D02*
X81130952Y-85704819D01*
X81130952Y-85704819D02*
X81035714Y-85847676D01*
X81035714Y-85847676D02*
X80940476Y-85942914D01*
X80940476Y-85942914D02*
X80845238Y-85990533D01*
X48816666Y-85704819D02*
X48816666Y-86419104D01*
X48816666Y-86419104D02*
X48769047Y-86561961D01*
X48769047Y-86561961D02*
X48673809Y-86657200D01*
X48673809Y-86657200D02*
X48530952Y-86704819D01*
X48530952Y-86704819D02*
X48435714Y-86704819D01*
X49245238Y-85800057D02*
X49292857Y-85752438D01*
X49292857Y-85752438D02*
X49388095Y-85704819D01*
X49388095Y-85704819D02*
X49626190Y-85704819D01*
X49626190Y-85704819D02*
X49721428Y-85752438D01*
X49721428Y-85752438D02*
X49769047Y-85800057D01*
X49769047Y-85800057D02*
X49816666Y-85895295D01*
X49816666Y-85895295D02*
X49816666Y-85990533D01*
X49816666Y-85990533D02*
X49769047Y-86133390D01*
X49769047Y-86133390D02*
X49197619Y-86704819D01*
X49197619Y-86704819D02*
X49816666Y-86704819D01*
X37066666Y-85704819D02*
X37066666Y-86419104D01*
X37066666Y-86419104D02*
X37019047Y-86561961D01*
X37019047Y-86561961D02*
X36923809Y-86657200D01*
X36923809Y-86657200D02*
X36780952Y-86704819D01*
X36780952Y-86704819D02*
X36685714Y-86704819D01*
X37447619Y-85704819D02*
X38066666Y-85704819D01*
X38066666Y-85704819D02*
X37733333Y-86085771D01*
X37733333Y-86085771D02*
X37876190Y-86085771D01*
X37876190Y-86085771D02*
X37971428Y-86133390D01*
X37971428Y-86133390D02*
X38019047Y-86181009D01*
X38019047Y-86181009D02*
X38066666Y-86276247D01*
X38066666Y-86276247D02*
X38066666Y-86514342D01*
X38066666Y-86514342D02*
X38019047Y-86609580D01*
X38019047Y-86609580D02*
X37971428Y-86657200D01*
X37971428Y-86657200D02*
X37876190Y-86704819D01*
X37876190Y-86704819D02*
X37590476Y-86704819D01*
X37590476Y-86704819D02*
X37495238Y-86657200D01*
X37495238Y-86657200D02*
X37447619Y-86609580D01*
D11*
%TO.C,R15*%
X100080000Y-30710000D02*
X100080000Y-26870000D01*
X101920000Y-30710000D02*
X101920000Y-26870000D01*
%TO.C,R14*%
X94580000Y-30710000D02*
X94580000Y-26870000D01*
X96420000Y-30710000D02*
X96420000Y-26870000D01*
%TO.C,R5*%
X46580000Y-30710000D02*
X46580000Y-26870000D01*
X48420000Y-30710000D02*
X48420000Y-26870000D01*
%TO.C,J1*%
X59440000Y-87340000D02*
X60860000Y-87340000D01*
X59440000Y-99060000D02*
X59440000Y-87340000D01*
X60860000Y-87340000D02*
X60860000Y-91840000D01*
X60860000Y-91840000D02*
X80750000Y-91840000D01*
X61700000Y-87650000D02*
X62300000Y-87650000D01*
X61750000Y-92950000D02*
X61750000Y-98450000D01*
X61750000Y-98450000D02*
X62250000Y-98450000D01*
X62000000Y-88250000D02*
X61700000Y-87650000D01*
X62250000Y-92950000D02*
X61750000Y-92950000D01*
X62250000Y-98450000D02*
X62250000Y-92950000D01*
X62300000Y-87650000D02*
X62000000Y-88250000D01*
X64250000Y-92950000D02*
X64250000Y-98450000D01*
X64250000Y-98450000D02*
X64750000Y-98450000D01*
X64750000Y-92950000D02*
X64250000Y-92950000D01*
X64750000Y-98450000D02*
X64750000Y-92950000D01*
X66750000Y-92950000D02*
X66750000Y-98450000D01*
X66750000Y-98450000D02*
X67250000Y-98450000D01*
X67250000Y-92950000D02*
X66750000Y-92950000D01*
X67250000Y-98450000D02*
X67250000Y-92950000D01*
X69250000Y-92950000D02*
X69250000Y-98450000D01*
X69250000Y-98450000D02*
X69750000Y-98450000D01*
X69750000Y-92950000D02*
X69250000Y-92950000D01*
X69750000Y-98450000D02*
X69750000Y-92950000D01*
X71750000Y-92950000D02*
X71750000Y-98450000D01*
X71750000Y-98450000D02*
X72250000Y-98450000D01*
X72250000Y-92950000D02*
X71750000Y-92950000D01*
X72250000Y-98450000D02*
X72250000Y-92950000D01*
X74250000Y-92950000D02*
X74250000Y-98450000D01*
X74250000Y-98450000D02*
X74750000Y-98450000D01*
X74750000Y-92950000D02*
X74250000Y-92950000D01*
X74750000Y-98450000D02*
X74750000Y-92950000D01*
X76750000Y-92950000D02*
X76750000Y-98450000D01*
X76750000Y-98450000D02*
X77250000Y-98450000D01*
X77250000Y-92950000D02*
X76750000Y-92950000D01*
X77250000Y-98450000D02*
X77250000Y-92950000D01*
X79250000Y-92950000D02*
X79250000Y-98450000D01*
X79250000Y-98450000D02*
X79750000Y-98450000D01*
X79750000Y-92950000D02*
X79250000Y-92950000D01*
X79750000Y-98450000D02*
X79750000Y-92950000D01*
X80750000Y-99060000D02*
X59440000Y-99060000D01*
X80750000Y-99060000D02*
X102060000Y-99060000D01*
X81750000Y-92950000D02*
X81750000Y-98450000D01*
X81750000Y-98450000D02*
X82250000Y-98450000D01*
X82250000Y-92950000D02*
X81750000Y-92950000D01*
X82250000Y-98450000D02*
X82250000Y-92950000D01*
X84250000Y-92950000D02*
X84250000Y-98450000D01*
X84250000Y-98450000D02*
X84750000Y-98450000D01*
X84750000Y-92950000D02*
X84250000Y-92950000D01*
X84750000Y-98450000D02*
X84750000Y-92950000D01*
X86750000Y-92950000D02*
X86750000Y-98450000D01*
X86750000Y-98450000D02*
X87250000Y-98450000D01*
X87250000Y-92950000D02*
X86750000Y-92950000D01*
X87250000Y-98450000D02*
X87250000Y-92950000D01*
X89250000Y-92950000D02*
X89250000Y-98450000D01*
X89250000Y-98450000D02*
X89750000Y-98450000D01*
X89750000Y-92950000D02*
X89250000Y-92950000D01*
X89750000Y-98450000D02*
X89750000Y-92950000D01*
X91750000Y-92950000D02*
X91750000Y-98450000D01*
X91750000Y-98450000D02*
X92250000Y-98450000D01*
X92250000Y-92950000D02*
X91750000Y-92950000D01*
X92250000Y-98450000D02*
X92250000Y-92950000D01*
X94250000Y-92950000D02*
X94250000Y-98450000D01*
X94250000Y-98450000D02*
X94750000Y-98450000D01*
X94750000Y-92950000D02*
X94250000Y-92950000D01*
X94750000Y-98450000D02*
X94750000Y-92950000D01*
X96750000Y-92950000D02*
X96750000Y-98450000D01*
X96750000Y-98450000D02*
X97250000Y-98450000D01*
X97250000Y-92950000D02*
X96750000Y-92950000D01*
X97250000Y-98450000D02*
X97250000Y-92950000D01*
X99250000Y-92950000D02*
X99250000Y-98450000D01*
X99250000Y-98450000D02*
X99750000Y-98450000D01*
X99750000Y-92950000D02*
X99250000Y-92950000D01*
X99750000Y-98450000D02*
X99750000Y-92950000D01*
X100640000Y-87340000D02*
X100640000Y-91840000D01*
X100640000Y-91840000D02*
X80750000Y-91840000D01*
X102060000Y-87340000D02*
X100640000Y-87340000D01*
X102060000Y-99060000D02*
X102060000Y-87340000D01*
%TO.C,D12*%
X86361663Y-22690000D02*
X85630663Y-22690000D01*
X86361663Y-24810000D02*
X85630663Y-24810000D01*
%TO.C,J2*%
X44090000Y-87340000D02*
X45510000Y-87340000D01*
X44090000Y-99060000D02*
X44090000Y-87340000D01*
X45510000Y-87340000D02*
X45510000Y-91840000D01*
X45510000Y-91840000D02*
X49150000Y-91840000D01*
X46350000Y-87650000D02*
X46950000Y-87650000D01*
X46400000Y-92950000D02*
X46400000Y-98450000D01*
X46400000Y-98450000D02*
X46900000Y-98450000D01*
X46650000Y-88250000D02*
X46350000Y-87650000D01*
X46900000Y-92950000D02*
X46400000Y-92950000D01*
X46900000Y-98450000D02*
X46900000Y-92950000D01*
X46950000Y-87650000D02*
X46650000Y-88250000D01*
X48900000Y-92950000D02*
X48900000Y-98450000D01*
X48900000Y-98450000D02*
X49400000Y-98450000D01*
X49150000Y-99060000D02*
X44090000Y-99060000D01*
X49150000Y-99060000D02*
X54210000Y-99060000D01*
X49400000Y-92950000D02*
X48900000Y-92950000D01*
X49400000Y-98450000D02*
X49400000Y-92950000D01*
X51400000Y-92950000D02*
X51400000Y-98450000D01*
X51400000Y-98450000D02*
X51900000Y-98450000D01*
X51900000Y-92950000D02*
X51400000Y-92950000D01*
X51900000Y-98450000D02*
X51900000Y-92950000D01*
X52790000Y-87340000D02*
X52790000Y-91840000D01*
X52790000Y-91840000D02*
X49150000Y-91840000D01*
X54210000Y-87340000D02*
X52790000Y-87340000D01*
X54210000Y-99060000D02*
X54210000Y-87340000D01*
%TO.C,D11*%
X81028330Y-22690000D02*
X80297330Y-22690000D01*
X81028330Y-24810000D02*
X80297330Y-24810000D01*
%TO.C,U3*%
X28160000Y-38670000D02*
X28160000Y-59110000D01*
X28160000Y-59110000D02*
X33460000Y-59110000D01*
X29810000Y-38670000D02*
X28160000Y-38670000D01*
X33460000Y-38670000D02*
X31810000Y-38670000D01*
X33460000Y-59110000D02*
X33460000Y-38670000D01*
X31810000Y-38670000D02*
G75*
G02*
X29810000Y-38670000I-1000000J0D01*
G01*
%TO.C,D16*%
X107695000Y-22690000D02*
X106964000Y-22690000D01*
X107695000Y-24810000D02*
X106964000Y-24810000D01*
%TO.C,R2*%
X30580000Y-30710000D02*
X30580000Y-26870000D01*
X32420000Y-30710000D02*
X32420000Y-26870000D01*
%TO.C,R4*%
X41330000Y-30710000D02*
X41330000Y-26870000D01*
X43170000Y-30710000D02*
X43170000Y-26870000D01*
%TO.C,D2*%
X33028333Y-22690000D02*
X32297333Y-22690000D01*
X33028333Y-24810000D02*
X32297333Y-24810000D01*
%TO.C,U4*%
X52160000Y-38670000D02*
X52160000Y-59110000D01*
X52160000Y-59110000D02*
X57460000Y-59110000D01*
X53810000Y-38670000D02*
X52160000Y-38670000D01*
X57460000Y-38670000D02*
X55810000Y-38670000D01*
X57460000Y-59110000D02*
X57460000Y-38670000D01*
X55810000Y-38670000D02*
G75*
G02*
X53810000Y-38670000I-1000000J0D01*
G01*
%TO.C,U5*%
X76160000Y-38670000D02*
X76160000Y-59110000D01*
X76160000Y-59110000D02*
X81460000Y-59110000D01*
X77810000Y-38670000D02*
X76160000Y-38670000D01*
X81460000Y-38670000D02*
X79810000Y-38670000D01*
X81460000Y-59110000D02*
X81460000Y-38670000D01*
X79810000Y-38670000D02*
G75*
G02*
X77810000Y-38670000I-1000000J0D01*
G01*
%TO.C,U2*%
X29970000Y-71090000D02*
X29970000Y-72740000D01*
X29970000Y-74740000D02*
X29970000Y-76390000D01*
X29970000Y-76390000D02*
X55490000Y-76390000D01*
X55490000Y-71090000D02*
X29970000Y-71090000D01*
X55490000Y-76390000D02*
X55490000Y-71090000D01*
X29970000Y-72740000D02*
G75*
G02*
X29970000Y-74740000I0J-1000000D01*
G01*
%TO.C,R11*%
X78580000Y-30670000D02*
X78580000Y-26830000D01*
X80420000Y-30670000D02*
X80420000Y-26830000D01*
%TO.C,R8*%
X62580000Y-30670000D02*
X62580000Y-26830000D01*
X64420000Y-30670000D02*
X64420000Y-26830000D01*
%TO.C,D14*%
X97028329Y-22690000D02*
X96297329Y-22690000D01*
X97028329Y-24810000D02*
X96297329Y-24810000D01*
%TO.C,D15*%
X102361662Y-22690000D02*
X101630662Y-22690000D01*
X102361662Y-24810000D02*
X101630662Y-24810000D01*
%TO.C,R16*%
X105330000Y-30710000D02*
X105330000Y-26870000D01*
X107170000Y-30710000D02*
X107170000Y-26870000D01*
%TO.C,D7*%
X59694998Y-22690000D02*
X58963998Y-22690000D01*
X59694998Y-24810000D02*
X58963998Y-24810000D01*
%TO.C,R13*%
X89330000Y-30710000D02*
X89330000Y-26870000D01*
X91170000Y-30710000D02*
X91170000Y-26870000D01*
%TO.C,D13*%
X91694996Y-22690000D02*
X90963996Y-22690000D01*
X91694996Y-24810000D02*
X90963996Y-24810000D01*
%TO.C,R12*%
X84080000Y-30710000D02*
X84080000Y-26870000D01*
X85920000Y-30710000D02*
X85920000Y-26870000D01*
%TO.C,D3*%
X38361666Y-22690000D02*
X37630666Y-22690000D01*
X38361666Y-24810000D02*
X37630666Y-24810000D01*
%TO.C,U6*%
X100160000Y-38670000D02*
X100160000Y-59110000D01*
X100160000Y-59110000D02*
X105460000Y-59110000D01*
X101810000Y-38670000D02*
X100160000Y-38670000D01*
X105460000Y-38670000D02*
X103810000Y-38670000D01*
X105460000Y-59110000D02*
X105460000Y-38670000D01*
X103810000Y-38670000D02*
G75*
G02*
X101810000Y-38670000I-1000000J0D01*
G01*
%TO.C,R10*%
X73330000Y-30670000D02*
X73330000Y-26830000D01*
X75170000Y-30670000D02*
X75170000Y-26830000D01*
%TO.C,D5*%
X49028332Y-22690000D02*
X48297332Y-22690000D01*
X49028332Y-24810000D02*
X48297332Y-24810000D01*
%TO.C,D4*%
X43694999Y-22690000D02*
X42963999Y-22690000D01*
X43694999Y-24810000D02*
X42963999Y-24810000D01*
%TO.C,J3*%
X33590000Y-87340000D02*
X35010000Y-87340000D01*
X33590000Y-99060000D02*
X33590000Y-87340000D01*
X35010000Y-87340000D02*
X35010000Y-91840000D01*
X35010000Y-91840000D02*
X37400000Y-91840000D01*
X35850000Y-87650000D02*
X36450000Y-87650000D01*
X35900000Y-92950000D02*
X35900000Y-98450000D01*
X35900000Y-98450000D02*
X36400000Y-98450000D01*
X36150000Y-88250000D02*
X35850000Y-87650000D01*
X36400000Y-92950000D02*
X35900000Y-92950000D01*
X36400000Y-98450000D02*
X36400000Y-92950000D01*
X36450000Y-87650000D02*
X36150000Y-88250000D01*
X37400000Y-99060000D02*
X33590000Y-99060000D01*
X37400000Y-99060000D02*
X41210000Y-99060000D01*
X38400000Y-92950000D02*
X38400000Y-98450000D01*
X38400000Y-98450000D02*
X38900000Y-98450000D01*
X38900000Y-92950000D02*
X38400000Y-92950000D01*
X38900000Y-98450000D02*
X38900000Y-92950000D01*
X39790000Y-87340000D02*
X39790000Y-91840000D01*
X39790000Y-91840000D02*
X37400000Y-91840000D01*
X41210000Y-87340000D02*
X39790000Y-87340000D01*
X41210000Y-99060000D02*
X41210000Y-87340000D01*
%TO.C,R1*%
X25330000Y-30670000D02*
X25330000Y-26830000D01*
X27170000Y-30670000D02*
X27170000Y-26830000D01*
%TO.C,R6*%
X52080000Y-30710000D02*
X52080000Y-26870000D01*
X53920000Y-30710000D02*
X53920000Y-26870000D01*
%TO.C,R3*%
X36080000Y-30710000D02*
X36080000Y-26870000D01*
X37920000Y-30710000D02*
X37920000Y-26870000D01*
%TO.C,D10*%
X75694997Y-22690000D02*
X74963997Y-22690000D01*
X75694997Y-24810000D02*
X74963997Y-24810000D01*
%TO.C,R9*%
X68080000Y-30670000D02*
X68080000Y-26830000D01*
X69920000Y-30670000D02*
X69920000Y-26830000D01*
%TO.C,D6*%
X54361665Y-22690000D02*
X53630665Y-22690000D01*
X54361665Y-24810000D02*
X53630665Y-24810000D01*
%TO.C,D9*%
X70361664Y-22690000D02*
X69630664Y-22690000D01*
X70361664Y-24810000D02*
X69630664Y-24810000D01*
%TO.C,D8*%
X65028331Y-22690000D02*
X64297331Y-22690000D01*
X65028331Y-24810000D02*
X64297331Y-24810000D01*
%TO.C,D1*%
X27695000Y-22690000D02*
X26964000Y-22690000D01*
X27695000Y-24810000D02*
X26964000Y-24810000D01*
%TO.C,U1*%
X77970000Y-71090000D02*
X77970000Y-72740000D01*
X77970000Y-74740000D02*
X77970000Y-76390000D01*
X77970000Y-76390000D02*
X103490000Y-76390000D01*
X103490000Y-71090000D02*
X77970000Y-71090000D01*
X103490000Y-76390000D02*
X103490000Y-71090000D01*
X77970000Y-72740000D02*
G75*
G02*
X77970000Y-74740000I0J-1000000D01*
G01*
%TO.C,R7*%
X57330000Y-30710000D02*
X57330000Y-26870000D01*
X59170000Y-30710000D02*
X59170000Y-26870000D01*
%TD*%
M02*
